<?xml version="1.0" standalone="no"?>
<!DOCTYPE svg PUBLIC "-//W3C//DTD SVG 1.1//EN" "http://www.w3.org/Graphics/SVG/1.1/DTD/svg11.dtd">
<svg xmlns="http://www.w3.org/2000/svg"><metadata>This SVG WebFont was generated by YouWorkForThem.
</metadata><defs><font horiz-adv-x="720" id="ywftsvg"><font-face ascent="800" bbox="-246.846 -303 1014 902" cap-height="621" descent="-200" font-family="" font-stretch="normal" font-weight="500" panose-1="0 0 6 0 0 0 0 0 0 0" underline-position="0" underline-thickness="0" unicode-range="U+0020-FB02" units-per-em="1000" x-height="451"/><missing-glyph d="M422 800v-1030h-326v1030h326zM343 731h-170v-34h67v-38h-68v-34h171v34h-68v38h68v34zM275 598h-103v-107h171v35h-68v72zM240 563v-37h-34v37h34zM343 463h-171v-34h68v-38h-68v-34h103v72h68v34zM343 401h-34v-68h-137v-35h171v103zM343 276h-103v-58h35v24h34v-49 h-103v83h-34v-117h171v117zM343 98h-171v-117h171v117zM309 64v-49h-103v49h103zM343 -43h-171v-34h72l-72 -48v-34h171v34h-105l72 48h33v34z" horiz-adv-x="515"/><glyph d="M23 0v29q36 3 50 15.5t14 42.5v304q0 14 -6 19t-20 5h-41v25q35 3 51 10.5t16 27.5v7q0 89 55.5 138t141.5 49q74 0 120 -28t46 -68q0 -23 -15 -36.5t-38 -13.5q-26 0 -39.5 18t-18 39t-21.5 39t-49 18q-43 0 -60 -32.5t-17 -93.5v-36q0 -27 24 -27h98v-36h-98 q-24 0 -24 -24v-304q0 -30 14.5 -42.5t51.5 -15.5v-29h-235zM362 0v29q36 3 50 15.5t14 42.5v262q0 34 -14 46.5t-51 8.5v28l129 26q41 8 41 -33v-338q0 -30 14 -42.5t49 -15.5v-29h-232z" glyph-name="uniFB01" horiz-adv-x="619" unicode="fi"/><glyph d="M489 -5q-81 0 -81 82v399q0 76 -31.5 125t-95.5 49q-49 0 -69 -32.5t-20 -93.5v-41q0 -32 24 -32h102v-36h-102q-24 0 -24 -24v-304q0 -30 14.5 -42.5t51.5 -15.5v-29h-235v29q36 3 50 15.5t14 42.5v304q0 14 -6 19t-20 5h-41v25q35 3 51 10.5t16 27.5v16q0 90 60 139 t155 49q42 0 77.5 -10t66.5 -31.5t49 -61t18 -94.5v-402q0 -26 14.5 -34t49.5 0v-28q-41 -26 -88 -26z" glyph-name="uniFB02" horiz-adv-x="592" unicode="fl"/><glyph d="M579 672q62 0 102.5 -28t40.5 -68q0 -23 -15 -36.5t-38 -13.5q-26 0 -38.5 18t-14.5 39t-14.5 39t-37.5 18q-36 0 -48.5 -31.5t-12.5 -94.5v-36q0 -27 24 -27h103v-36h-103q-24 0 -24 -24v-304q0 -30 14.5 -42.5t51.5 -15.5v-29h-235v29q36 3 50 15.5t14 42.5v304 q0 14 -6 19t-20 5h-156q-24 0 -24 -24v-304q0 -30 14.5 -42.5t51.5 -15.5v-29h-235v29q36 3 50 15.5t14 42.5v304q0 14 -6 19t-20 5h-41v25q35 3 51 10.5t16 27.5v16q0 90 58.5 139t149.5 49q97 0 150 -63q50 53 134 53zM383 451q15 9 15 27v5q0 63 -30 115t-90 52 q-47 0 -66.5 -32.5t-19.5 -93.5v-41q0 -32 24 -32h167z" glyph-name="f_f.liga" horiz-adv-x="702" unicode="ff"/><glyph d="M422 800v-1030h-326v1030h326zM343 731h-170v-34h67v-38h-68v-34h171v34h-68v38h68v34zM275 598h-103v-107h171v35h-68v72zM240 563v-37h-34v37h34zM343 463h-171v-34h68v-38h-68v-34h103v72h68v34zM343 401h-34v-68h-137v-35h171v103zM343 276h-103v-58h35v24h34v-49 h-103v83h-34v-117h171v117zM343 98h-171v-117h171v117zM309 64v-49h-103v49h103zM343 -43h-171v-34h72l-72 -48v-34h171v34h-105l72 48h33v34z" glyph-name=".notdef" horiz-adv-x="515"/><glyph glyph-name="glyph1" horiz-adv-x="0"/><glyph glyph-name="glyph2" horiz-adv-x="333"/><glyph glyph-name="space" horiz-adv-x="180" unicode=" "/><glyph d="M92 195q-2 91 -24.5 207.5t-22.5 156.5q0 36 18.5 57t49.5 21t49.5 -21t18.5 -57q0 -40 -22.5 -156.5t-24.5 -207.5h-42zM113 -6q-26 0 -44.5 19t-18.5 45t19 44.5t44 18.5t44 -18.5t19 -44.5t-18.5 -45t-44.5 -19z" glyph-name="exclam" horiz-adv-x="226" unicode="!"/><glyph d="M57 457q3 -23 26 -23t26 23l21 144q4 28 -8.5 43.5t-38.5 15.5q-25 0 -38 -15.5t-9 -43.5zM197 457q5 -23 27 -23q21 0 26 23l21 144q4 28 -9 43.5t-38 15.5t-38 -15.5t-9 -43.5z" glyph-name="quotedbl" horiz-adv-x="307" unicode="&quot;"/><glyph d="M508 435h-116l-59 -228h106v-33h-114l-53 -204h-35l53 204h-122l-53 -204h-35l53 204h-108v33h116l59 228h-106v33h114l53 204h35l-53 -204h122l53 204h35l-53 -204h108v-33zM298 207l59 228h-122l-59 -228h122z" glyph-name="numbersign" horiz-adv-x="533" unicode="#"/><glyph d="M451 216q0 -74 -57 -111.5t-141 -41.5v-63h-24v62q-106 1 -174 45q-20 47 -18 91t27 44q11 0 17 -16q19 -54 58.5 -86.5t89.5 -39.5v190l-22 7q-172 55 -172 175q0 68 53.5 109.5t140.5 43.5v64h24v-64q94 -5 152 -42q20 -47 18 -91t-27 -44q-12 0 -17 15 q-17 50 -50.5 81.5t-75.5 40.5v-193q36 -11 54.5 -18t50.5 -22.5t49 -32t30.5 -43.5t13.5 -60zM126 507q0 -40 26 -63.5t77 -42.5v188h-12q-46 0 -68.5 -24.5t-22.5 -57.5zM255 98q98 2 98 85q0 39 -25.5 61t-74.5 38v-184h2z" glyph-name="dollar" horiz-adv-x="486" unicode="$"/><glyph d="M523 621h44l-410 -621h-93l434 587q-30 -25 -66.5 -30.5t-59 -0.5t-65.5 19q15 -27 15 -63q0 -67 -48 -115.5t-113 -48.5q-54 0 -82.5 33t-28.5 82q0 67 48 116t113 49q45 0 91 -11.5t72.5 -20.5t65.5 -5t83 30zM179 379q32 0 48 35t16 88q0 94 -51 94q-31 0 -47 -35 t-16 -88q0 -94 50 -94zM505 269q53 0 81.5 -33t28.5 -82q0 -68 -47.5 -116.5t-113.5 -48.5q-53 0 -81.5 33t-28.5 83q0 67 48 115.5t113 48.5zM473 21q31 0 47 35t16 88q0 94 -50 94q-31 0 -47 -35t-16 -88q0 -94 50 -94z" glyph-name="percent" horiz-adv-x="665" unicode="%"/><glyph d="M332 -15q-124 0 -208 54.5t-84 148.5q0 76 55 124t108 48q-43 10 -71.5 46.5t-28.5 83.5q0 64 54.5 105.5t141.5 41.5q73 0 120 -29.5t47 -76.5q0 -26 -14.5 -41t-37.5 -15q-21 0 -36 14.5t-15 39.5q0 32 -20.5 53.5t-51.5 21.5q-40 0 -61.5 -26.5t-21.5 -69.5 q0 -50 29 -96t87 -64l-13 -30q-69 15 -111.5 -25t-42.5 -107q0 -73 49.5 -120.5t131.5 -47.5q85 0 133 50.5t48 115.5q0 40 -19 65.5t-53 25.5q-36 0 -50.5 -25t5.5 -47h-30q-24 20 -24 47q0 16 11 30.5t21.5 22.5t36.5 25l110 71q52 34 74 57t22 57q0 38 -27 56t-69 3 l-13 24q39 25 87 25q49 0 87 -29.5t38 -81.5q0 -32 -15 -58t-50.5 -51t-66.5 -41.5t-91 -45.5q-16 -8 -25 -12q76 -4 113.5 -38.5t38.5 -85.5q1 -83 -87.5 -138t-210.5 -55z" glyph-name="ampersand" horiz-adv-x="766" unicode="&amp;"/><glyph d="M57 457q3 -23 26 -23t26 23l21 144q4 28 -8.5 43.5t-38.5 15.5q-25 0 -38 -15.5t-9 -43.5z" glyph-name="quotesingle" horiz-adv-x="166" unicode="'"/><glyph d="M153 296q-1 -135 37 -252.5t105 -191.5q16 -18 -5 -18h-21q-11 0 -19 7q-97 77 -151 196t-54 259t54 259t151 196q8 7 19 7h19q10 0 13.5 -4t-1.5 -9q-69 -74 -108.5 -193t-38.5 -256z" glyph-name="parenleft" horiz-adv-x="328" unicode="("/><glyph d="M175 296q1 138 -38.5 256.5t-108.5 192.5q-5 5 -1.5 9t13.5 4h19q11 0 19 -7q98 -77 151.5 -196t53.5 -259t-53.5 -259t-151.5 -196q-8 -7 -19 -7h-21q-20 0 -5 18q67 74 105 191.5t37 252.5z" glyph-name="parenright" horiz-adv-x="328" unicode=")"/><glyph d="M154 520q2 -6 5.5 -8.5t7.5 0t6 8.5l31 78q-4 34 -40 39q-36 -5 -40 -39zM139 508l-55 67q-32 14 -54 -14q-14 -34 13 -54l80 -18q11 -2 17 5t-1 14zM190 508q-7 -7 -1 -14t17 -5l80 18q27 21 13 54q-23 27 -54 14zM124 473l-81 -17q-27 -21 -13 -55q22 -28 54 -14l54 67 q7 7 1.5 14t-15.5 5zM205 473q-10 2 -15.5 -5t1.5 -14l54 -67q31 -13 54 14q13 33 -13 55zM154 444l-30 -78q4 -34 40 -39q36 5 40 39l-30 78q-4 10 -10 10t-10 -10z" glyph-name="asterisk" horiz-adv-x="329" unicode="*"/><glyph d="M420 269v-35h-167v-168h-35v168h-168v35h168v168h35v-168h167z" glyph-name="plus" horiz-adv-x="470" unicode="+"/><glyph d="M81 -110l-17 19q43 38 43 69q0 17 -17 17q-26 0 -43 17.5t-17 43.5q0 29 19 47t47 18q34 0 52 -24t18 -61q0 -44 -24 -83t-61 -63z" glyph-name="comma" horiz-adv-x="196" unicode=","/><glyph d="M50 282h270v-49h-270v49z" glyph-name="hyphen" horiz-adv-x="370" unicode="-"/><glyph d="M103 -6q-26 0 -44.5 19t-18.5 45t19 44.5t44 18.5t44 -18.5t19 -44.5t-18.5 -45t-44.5 -19z" glyph-name="period" horiz-adv-x="206" unicode="."/><glyph d="M35 0l267 641h61l-267 -641h-61z" glyph-name="slash" horiz-adv-x="398" unicode="/"/><glyph d="M295 -10q-122 0 -191 94.5t-69 229.5q0 87 29 159t89 118t142 46t142 -46t89 -118t29 -159q0 -135 -69 -229.5t-191 -94.5zM295 30q72 0 106 76.5t34 207.5q0 129 -34.5 206.5t-105.5 77.5q-72 0 -106.5 -77.5t-34.5 -206.5q0 -131 34.5 -207.5t106.5 -76.5z" glyph-name="zero" horiz-adv-x="590" unicode="0"/><glyph d="M30 0v29q51 3 69.5 15t18.5 43v403q0 30 -8.5 39.5t-31.5 5.5l-43 -7v28l151 69q17 7 27 1.5t10 -17.5v-522q0 -31 18.5 -43t69.5 -15v-29h-281z" glyph-name="one" horiz-adv-x="341" unicode="1"/><glyph d="M40 0q0 65 36 122.5t87 100t102 82.5t87 86.5t36 94.5q0 47 -28.5 82t-81.5 35q-49 0 -79 -32t-30 -78q0 -19 7 -39t7 -32q0 -25 -17 -37.5t-40 -12.5q-32 0 -52 25.5t-20 66.5q0 72 61 122.5t169 50.5q102 0 161.5 -46.5t59.5 -126.5q0 -54 -32 -97t-83 -74t-105 -58.5 t-106.5 -65t-78.5 -80.5h245q65 0 95 15t44 56h29l-16 -97q-9 -47 3 -63h-460z" glyph-name="two" horiz-adv-x="553" unicode="2"/><glyph d="M270 -10q-99 0 -167 48t-68 126q0 68 58 68q22 0 32.5 -9.5t13 -21.5t6.5 -36t11 -41q40 -100 123 -100q63 0 100.5 50.5t37.5 120.5q0 62 -32 96t-81 34q-35 0 -74 -19l-12 32q88 29 122.5 58.5t34.5 85.5q0 55 -28.5 88t-81.5 33q-95 0 -95 -113q0 -62 -52 -62 q-28 0 -42 17.5t-14 44.5q0 56 55 101.5t160 45.5q99 0 151 -39.5t52 -102.5q0 -52 -34.5 -83.5t-83.5 -46.5q58 4 113.5 -39.5t55.5 -123.5q0 -93 -75.5 -152.5t-185.5 -59.5z" glyph-name="three" horiz-adv-x="571" unicode="3"/><glyph d="M528 167h-102v-80q0 -30 17 -42.5t61 -15.5v-29h-261v29q44 3 61 15.5t17 42.5v80h-278l-18 59l295 411l106 -16v-371h102v-83zM113 250h208v334l-221 -307q-8 -12 -4.5 -19.5t17.5 -7.5z" glyph-name="four" horiz-adv-x="568" unicode="4"/><glyph d="M267 -10q-98 0 -165 48t-67 126q0 68 57 68q28 0 37.5 -12t14.5 -45t12 -51q37 -100 119 -100q58 0 95.5 46t37.5 122q0 82 -43 137.5t-118 55.5q-42 0 -79 -19t-58 -52h-27l24 308h291l74 14l-12 -111h-329l-12 -159q64 62 168 62q91 0 164.5 -55t73.5 -159 q0 -101 -72.5 -162.5t-185.5 -61.5z" glyph-name="five" horiz-adv-x="560" unicode="5"/><glyph d="M278 -10q-123 0 -183.5 84.5t-59.5 215.5q0 69 16.5 130t49 110.5t86 78t122.5 28.5q78 0 121 -36l-16 -25q-45 23 -84 23q-51 0 -88.5 -24.5t-57 -66.5t-28.5 -87.5t-9 -95.5q15 25 60.5 51t103.5 26q82 0 140.5 -54.5t58.5 -143.5q0 -93 -64 -153.5t-168 -60.5zM284 24 q60 0 88.5 49t28.5 114q0 74 -33.5 120t-91.5 46q-56 0 -92.5 -40.5t-36.5 -96.5q0 -77 35.5 -134.5t101.5 -57.5z" glyph-name="six" horiz-adv-x="540" unicode="6"/><glyph d="M105 0l308 524h-198q-64 0 -96 -12t-55 -50h-29l52 167l80 -8h327l-316 -621h-73z" glyph-name="seven" horiz-adv-x="519" unicode="7"/><glyph d="M396 349q134 -52 134 -169q0 -83 -72.5 -136.5t-182.5 -53.5q-109 0 -174.5 51.5t-65.5 131.5q0 103 109 161q-72 54 -72 136q0 76 62.5 121.5t151.5 45.5q87 0 143.5 -43t56.5 -110q0 -83 -90 -135zM285 603q-59 0 -85 -30.5t-26 -72.5q0 -82 107 -115l62 -19 q60 45 60 118q0 46 -27 82.5t-91 36.5zM280 24q70 0 103.5 42t33.5 93q0 42 -26 68.5t-90 44.5l-78 23q-23 7 -37 14q-60 -47 -60 -121q0 -66 40 -115t114 -49z" glyph-name="eight" horiz-adv-x="565" unicode="8"/><glyph d="M263 637q123 0 183 -84.5t59 -215.5q0 -69 -16.5 -130.5t-49 -110.5t-86 -77.5t-121.5 -28.5q-78 0 -122 36l17 25q44 -23 83 -23q51 0 88.5 24.5t57 66.5t28.5 87.5t9 95.5q-16 -25 -61 -51t-103 -26q-82 0 -140.5 54.5t-58.5 143.5q0 93 64.5 153.5t168.5 60.5z M256 603q-60 0 -88 -49t-28 -114q0 -74 33 -120t92 -46q56 0 92 40.5t36 96.5q0 77 -35.5 134.5t-101.5 57.5z" glyph-name="nine" horiz-adv-x="540" unicode="9"/><glyph d="M103 319q-26 0 -44.5 18.5t-18.5 45.5q0 25 18.5 43.5t44.5 18.5t44.5 -18.5t18.5 -43.5q0 -27 -18.5 -45.5t-44.5 -18.5zM104 -6q-26 0 -44.5 19t-18.5 45t18.5 44.5t44.5 18.5t44.5 -18.5t18.5 -44.5t-18.5 -45t-44.5 -19z" glyph-name="colon" horiz-adv-x="207" unicode=":"/><glyph d="M97 318q-26 0 -44 18.5t-18 45.5q0 26 18.5 44t43.5 18q26 0 44.5 -18t18.5 -44q0 -27 -18.5 -45.5t-44.5 -18.5zM81 -110l-17 19q43 38 43 69q0 17 -17 17q-26 0 -43 17.5t-17 43.5q0 29 19 47t47 18q34 0 52 -24t18 -61q0 -44 -24 -83t-61 -63z" glyph-name="semicolon" horiz-adv-x="196" unicode=";"/><glyph d="M50 274l373 168v-39l-332 -152l332 -152v-39l-373 168v46z" glyph-name="less" horiz-adv-x="473" unicode="&lt;"/><glyph d="M50 359h370v-35h-370v35zM50 179h370v-35h-370v35z" glyph-name="equal" horiz-adv-x="470" unicode="="/><glyph d="M423 274v-46l-373 -168v39l332 152l-332 152v39z" glyph-name="greater" horiz-adv-x="473" unicode=">"/><glyph d="M35 469q0 -43 21 -69t50 -26q23 0 40.5 14.5t17.5 35.5q0 14 -12.5 41.5t-12.5 46.5q0 36 24 60t66 24q47 0 76.5 -28.5t29.5 -73.5q0 -29 -14.5 -55t-34.5 -48t-39 -47.5t-29.5 -66.5t-4.5 -93h43q3 43 23.5 77t47 56t52.5 43.5t44 52.5t18 70q0 70 -53.5 112t-142.5 42 q-95 0 -152.5 -47.5t-57.5 -120.5zM234 -6q-26 0 -44.5 19t-18.5 45t18.5 44.5t44.5 18.5t44.5 -18.5t18.5 -44.5t-18.5 -45t-44.5 -19z" glyph-name="question" horiz-adv-x="476" unicode="?"/><glyph d="M483 -67q-50 -16 -114 -16q-143 0 -241 95t-98 237q0 141 98 236t239 95q143 0 239.5 -90.5t96.5 -231.5q0 -93 -42.5 -145.5t-110.5 -52.5q-78 0 -101 73q-18 -29 -54 -51t-80 -22q-46 0 -79.5 24.5t-33.5 73.5q0 46 44 76.5t159 47.5q29 6 29 25q0 99 -66 99 q-54 0 -54 -56q0 -22 -13.5 -34.5t-34.5 -12.5q-44 0 -44 42q0 41 52 66t115 25q133 0 133 -135v-166q0 -18 8.5 -30.5t25.5 -12.5q56 0 56 139q0 131 -67 225t-178 94q-112 0 -178 -79.5t-66 -202.5q0 -81 30.5 -153.5t91 -120t138.5 -47.5q55 0 93 10zM353 105 q32 0 56.5 23t24.5 59v38q0 33 -29 29q-59 -9 -84 -33.5t-25 -53.5q0 -28 15 -45t42 -17z" glyph-name="at" horiz-adv-x="733" unicode="@"/><glyph d="M605 138q16 -36 22 -48t18 -29.5t24 -23.5t31 -9v-28h-251v28q43 7 51 26t-8 49l-21 48q-17 29 -56 29h-176q-41 0 -58 -31l-17 -40q-29 -67 66 -81v-28h-210v28q38 8 58.5 27t37.5 59l181 416q23 55 23 91l68 7zM415 219q10 0 14 6t0 19l27 -60l-121 275q-11 23 -20 -1 l-96 -223l3 8q-5 -11 0 -17.5t14 -6.5h179z" glyph-name="A" unicode="A"/><glyph d="M30 0v28q34 6 50 18.5t16 38.5v451q0 27 -15.5 39t-50.5 18v28h297q250 0 250 -146q0 -112 -147 -141q89 -13 135 -54.5t46 -107.5q0 -78 -60.5 -125t-158.5 -47q-16 0 -90.5 4t-147 4t-124.5 -8zM277 352h57q62 0 91 32t29 85q0 117 -125 117h-52q-33 0 -47.5 -11 t-14.5 -39v-135q0 -27 15 -38t47 -11zM254 39h92q142 0 142 131q0 75 -50 111t-166 36q-29 0 -43 -11t-14 -38v-188q0 -41 39 -41z" glyph-name="B" horiz-adv-x="646" unicode="B"/><glyph d="M361 -10q-136 0 -233.5 87.5t-97.5 232.5q0 149 101.5 238t241.5 89q109 0 175 -50.5t66 -112.5q0 -31 -18 -52.5t-52 -21.5q-31 0 -49 20t-18 52q0 50 -33 90t-99 40q-83 0 -136 -65.5t-53 -176.5q0 -135 79 -216.5t192 -81.5q97 0 170 81l20 -16q-27 -49 -92.5 -93 t-163.5 -44z" glyph-name="C" horiz-adv-x="652" unicode="C"/><glyph d="M30 0v28q34 6 50 18.5t16 38.5v451q0 27 -15.5 39t-50.5 18v28h260q159 0 252 -73t93 -232q0 -88 -30.5 -152t-81 -98t-104 -49t-111.5 -15q-19 0 -77 3t-84 3q-48 0 -117 -8zM293 37q110 0 162 77.5t52 201.5q0 126 -53.5 198t-159.5 72h-17q-33 0 -47.5 -11t-14.5 -39 v-451q0 -48 78 -48z" glyph-name="D" horiz-adv-x="675" unicode="D"/><glyph d="M30 0v28q34 6 50 18.5t16 38.5v451q0 27 -15.5 39t-50.5 18v28h473q14 0 15 -11q6 -60 20 -118h-21q-22 47 -51 68t-76 21h-113q-33 0 -47.5 -11t-14.5 -39v-147q0 -27 15 -38t47 -11h78q49 0 66 16t24 55h18v-182h-18q-7 38 -24.5 54.5t-65.5 16.5h-78q-32 0 -47 -11 t-15 -38v-157q0 -27 17.5 -38.5t61.5 -10.5l112 1q48 1 72 13.5t40 36.5l24 37h22q-22 -42 -30 -114q-2 -14 -16 -14h-488z" glyph-name="E" horiz-adv-x="584" unicode="E"/><glyph d="M30 0v28q34 6 50 18.5t16 38.5v451q0 27 -15.5 39t-50.5 18v28h473q14 0 15 -11q6 -60 20 -118h-21q-22 47 -51 68t-76 21h-113q-33 0 -47.5 -11t-14.5 -39v-147q0 -27 15 -38t47 -11h78q48 0 65.5 14.5t24.5 46.5h18v-162h-18q-7 31 -24.5 46t-65.5 15h-78 q-32 0 -47 -11t-15 -38v-161q0 -27 17 -39.5t59 -17.5v-28h-261z" glyph-name="F" horiz-adv-x="558" unicode="F"/><glyph d="M357 -10q-85 0 -159 37t-121 111.5t-47 171.5q0 149 102 238t243 89q110 0 175.5 -49.5t65.5 -109.5q0 -30 -18 -50t-51 -20q-30 0 -48.5 18t-18.5 44q0 52 -33 92t-102 40q-83 0 -136 -65t-53 -175q0 -138 80.5 -232t188.5 -94q70 0 70 53v116q0 33 -16 43.5t-71 15.5 v21l257 1v-22q-40 -5 -51.5 -15.5t-11.5 -43.5v-205q-24 17 -52 19t-51.5 -5t-63.5 -15.5t-78 -8.5z" glyph-name="G" horiz-adv-x="680" unicode="G"/><glyph d="M690 593q-35 -6 -50.5 -18t-15.5 -39v-451q0 -26 16 -38.5t50 -18.5v-28h-251v28q34 6 50 18.5t16 38.5v167q0 33 -39 33h-212q-39 0 -39 -33v-167q0 -27 15.5 -39t50.5 -18v-28h-251v28q34 6 50 18.5t16 38.5v451q0 27 -15.5 39t-50.5 18v28h251v-28q-35 -6 -50.5 -18 t-15.5 -39v-174q0 -34 40 -34h210q40 0 40 34v174q0 27 -15.5 39t-50.5 18v28h251v-28z" glyph-name="H" unicode="H"/><glyph d="M30 0v28q34 6 50 18.5t16 38.5v451q0 27 -15.5 39t-50.5 18v28h251v-28q-35 -6 -50.5 -18t-15.5 -39v-451q0 -27 15.5 -39t50.5 -18v-28h-251z" glyph-name="I" horiz-adv-x="311" unicode="I"/><glyph d="M121 -10q-64 0 -102.5 26.5t-38.5 69.5q0 29 16.5 46t43.5 17q52 0 52 -60q0 -29 11 -48t31 -19q38 0 38 66v448q0 27 -17 39.5t-59 17.5v28h260v-28q-34 -6 -49.5 -18t-15.5 -39v-391q0 -80 -49 -117.5t-121 -37.5z" glyph-name="J" horiz-adv-x="386" unicode="J"/><glyph d="M540 119q37 -48 65.5 -66t63.5 -25v-28h-270v28q65 11 26 62l-119 151q-35 45 -61 16l-13 -13q-16 -17 -17 -39v-120q0 -27 15.5 -39t50.5 -18v-28h-251v28q34 6 50 18.5t16 38.5v451q0 27 -15.5 39t-50.5 18v28h251v-28q-35 -6 -50.5 -18t-15.5 -39v-258l246 252 q24 28 12 44t-44 19v28h212v-28q-73 -6 -134 -67l-133 -136q-26 -27 4 -64z" glyph-name="K" horiz-adv-x="689" unicode="K"/><glyph d="M30 0v28q34 6 50 18.5t16 38.5v451q0 27 -15.5 39t-50.5 18v28h251v-28q-35 -6 -50.5 -18t-15.5 -39v-451q0 -56 67 -52l125 6q45 2 71 17.5t45 46.5l19 33h28l-18 -62q-13 -43 -10 -74h-512z" glyph-name="L" horiz-adv-x="590" unicode="L"/><glyph d="M821 593q-34 -6 -49.5 -18t-15.5 -39v-451q0 -27 15.5 -39t49.5 -18v-28h-250v28q34 6 49.5 18t15.5 39v434l-222 -459h-36l-232 458v-433q0 -26 16 -38.5t50 -18.5v-28h-182v28q34 6 50 18.5t16 38.5v451q0 27 -15.5 39t-50.5 18v28h186l216 -426l204 426h185v-28z" glyph-name="M" horiz-adv-x="851" unicode="M"/><glyph d="M473 621h181v-28q-34 -6 -49.5 -18t-15.5 -39v-536h-47l-396 487v-402q0 -27 15.5 -39t49.5 -18v-28h-181v28q34 6 50 18.5t16 38.5v451q0 27 -15.5 39t-50.5 18v28h152l356 -438v353q0 27 -15.5 39t-49.5 18v28z" glyph-name="N" horiz-adv-x="684" unicode="N"/><glyph d="M349 -10q-133 0 -226 88.5t-93 229.5q0 144 96.5 236.5t235.5 92.5q133 0 226 -88.5t93 -227.5q0 -146 -96.5 -238.5t-235.5 -92.5zM377 31q71 0 122 60t51 184q0 139 -62.5 230t-153.5 91q-71 0 -122 -59.5t-51 -182.5q0 -140 62.5 -231.5t153.5 -91.5z" glyph-name="O" horiz-adv-x="711" unicode="O"/><glyph d="M30 0v28q34 6 50 18.5t16 38.5v451q0 27 -15.5 39t-50.5 18v28h289q130 0 199.5 -50.5t69.5 -142.5q0 -93 -70 -146t-199 -53h-49q-30 0 -42.5 -12.5t-12.5 -40.5v-91q0 -27 17 -39.5t59 -17.5v-28h-261zM270 272h49q148 0 148 154q0 152 -148 152h-62q-42 0 -42 -45 v-208q0 -28 12.5 -40.5t42.5 -12.5z" glyph-name="P" horiz-adv-x="613" unicode="P"/><glyph d="M617 13q25 0 39.5 -17.5t14.5 -43.5q0 -47 -43.5 -80t-105.5 -33q-79 0 -141 51l-127 104q-46 34 -70.5 22.5t-24.5 -50.5q0 -23 -15 -37t-37 -14q-23 0 -38 15.5t-15 41.5q0 32 24 55.5t63 34.5q-111 93 -111 246q0 144 96.5 236.5t235.5 92.5q133 0 226 -88.5 t93 -227.5q0 -138 -88 -229.5t-218 -100.5l90 -73q34 -27 55 -34.5t30 4t11.5 26.5t2.5 43q0 23 14.5 39.5t38.5 16.5zM334 596q-71 0 -122 -59.5t-51 -182.5q0 -140 62.5 -231.5t153.5 -91.5q71 0 122 60t51 184q0 139 -62.5 230t-153.5 91z" glyph-name="Q" horiz-adv-x="711" unicode="Q"/><glyph d="M30 0v28q34 6 50 18.5t16 38.5v451q0 27 -15.5 39t-50.5 18v28h306q114 0 177.5 -44t63.5 -125q0 -126 -148 -154q-3 0 -4.5 -2.5t0 -5t4.5 -3.5q45 -12 71.5 -41.5t43.5 -82.5q24 -74 41.5 -104.5t48.5 -30.5v-28h-44q-78 0 -115 37.5t-68 128.5q-21 60 -49.5 84 t-78.5 24q-36 0 -50 -12t-14 -41v-136q0 -27 17 -39.5t59 -17.5v-28h-261zM270 317h54q69 0 100 37.5t31 96.5q0 57 -29.5 92t-94.5 35h-74q-42 0 -42 -45v-163q0 -28 12.5 -40.5t42.5 -12.5z" glyph-name="R" horiz-adv-x="654" unicode="R"/><glyph d="M261 -10q-122 0 -204 52q-22 52 -20.5 103.5t30.5 51.5q14 0 20 -18q25 -72 79 -110t122 -38q54 1 83 26t29 71q0 17 -5.5 31.5t-11.5 25t-21.5 21t-25 16t-33 14.5t-33 12t-37.5 12q-198 64 -198 201q0 80 63.5 128t166.5 48q117 0 195 -49q23 -52 21 -103.5t-31 -51.5 q-14 0 -20 18q-24 70 -74.5 107.5t-111.5 37.5q-54 0 -79.5 -28t-25.5 -66q0 -52 35.5 -80t108.5 -51q31 -10 44.5 -14.5t43 -16.5t45 -21.5t37 -26t32.5 -33.5t19.5 -41t8.5 -51q0 -47 -22 -83t-59.5 -55.5t-80 -29t-90.5 -9.5z" glyph-name="S" horiz-adv-x="548" unicode="S"/><glyph d="M166 0v28q48 5 67 17.5t19 39.5v441q0 34 -13.5 44.5t-62.5 10.5q-51 0 -75.5 -21t-45.5 -82h-30l19 146l57 -3h422l57 3l18 -146h-30q-21 61 -45.5 82t-75.5 21q-49 0 -62.5 -10.5t-13.5 -44.5v-441q0 -27 19 -39.5t67 -17.5v-28h-291z" glyph-name="T" horiz-adv-x="623" unicode="T"/><glyph d="M348 -10q-117 0 -187 67.5t-70 201.5v277q0 27 -15.5 39t-50.5 18v28h251v-28q-35 -6 -50.5 -18t-15.5 -39v-261q0 -116 43 -172t121 -56q76 0 124.5 53.5t48.5 168.5v267q0 27 -17 39t-53 18v28h187v-28q-35 -6 -52 -18t-17 -39v-281q0 -126 -63.5 -195.5t-183.5 -69.5z " glyph-name="U" horiz-adv-x="689" unicode="U"/><glyph d="M329 0l-214 483q-16 36 -22 48t-18 29.5t-24 23.5t-31 9v28h251v-28q-43 -7 -50.5 -26t8.5 -49l156 -355q11 -23 20 0l151 349q29 67 -65 81v28h209v-28q-37 -8 -57.5 -27t-37.5 -59l-181 -416q-24 -54 -24 -91h-71z" glyph-name="V" unicode="V"/><glyph d="M308 0l-194 483q-24 61 -41 82.5t-53 27.5v28h246v-28q-43 -7 -51 -26t8 -49l137 -349q10 -24 20 0l77 200q28 74 6 130q-21 50 -37.5 69t-50.5 25v28h246v-28q-43 -7 -51 -26t8 -49l137 -349q10 -24 20 0l131 343q13 36 -3 55t-62 26v28h210v-28q-39 -8 -60 -27.5 t-36 -58.5l-162 -416q-23 -62 -23 -91h-67l-153 381l-112 -290q-24 -61 -24 -91h-66z" glyph-name="W" horiz-adv-x="1031" unicode="W"/><glyph d="M550 126q36 -49 62.5 -72t59.5 -26v-28h-262v28q72 8 31 64l-120 165q-142 -171 -127 -211q6 -16 34 -18v-28h-208v28q40 3 92.5 46.5t148.5 166.5l37 47l-149 206q-37 50 -63.5 73t-59.5 26v28h261v-28q-72 -8 -31 -63l117 -161q142 170 122 208q-7 14 -33 16v28h207 v-28q-39 -3 -91 -46.5t-149 -166.5l-33 -42z" glyph-name="X" horiz-adv-x="692" unicode="X"/><glyph d="M185 0v28q48 5 66.5 17.5t18.5 39.5v148q0 35 -21 67l-124 194q-33 51 -56 72t-54 27v28h254v-28q-37 -6 -44 -23t15 -53l118 -185q7 -12 14 0l116 184q21 35 9.5 54t-50.5 23v28h196v-28q-33 -4 -56.5 -24t-51.5 -62l-129 -203q-16 -26 -16 -71v-148q0 -27 18.5 -39.5 t66.5 -17.5v-28h-290z" glyph-name="Y" horiz-adv-x="658" unicode="Y"/><glyph d="M15 0l403 586l-198 -1q-63 0 -92.5 -24t-54.5 -77h-30l28 137h505l-403 -586l224 2q63 0 90.5 22.5t58.5 82.5h30l-33 -142h-528z" glyph-name="Z" horiz-adv-x="596" unicode="Z"/><glyph d="M140 699v-805l97 -19q21 -3 21 -16v-25l-213 12v901l213 12v-25q0 -12 -21 -16z" glyph-name="bracketleft" horiz-adv-x="283" unicode="["/><glyph d="M363 0h-61l-267 641h61z" glyph-name="backslash" horiz-adv-x="398" unicode="\"/><glyph d="M143 699l-97 19q-21 4 -21 16v25l213 -12v-901l-213 -12v25q0 13 21 16l97 19v805z" glyph-name="bracketright" horiz-adv-x="283" unicode="]"/><glyph d="M200 679q8 8 16 7.5t14 -7.5l144 -194q9 -13 5 -23.5t-17 -10.5h-12q-13 0 -32 21l-103 108l-103 -109q-16 -20 -32 -20h-13q-12 0 -16 10.5t6 23.5z" glyph-name="asciicircum" horiz-adv-x="430" unicode="^"/><glyph d="M50 -20h512v-45h-512v45z" glyph-name="underscore" horiz-adv-x="612" unicode="_"/><glyph d="M239 567l-96 108q-45 50 -79 13q-17 -20 -8.5 -41.5t37.5 -39.5l120 -71q22 -13 32 0t-6 31z" glyph-name="grave" horiz-adv-x="300" unicode="`"/><glyph d="M161 -6q-56 0 -93.5 27.5t-37.5 82.5q0 63 61 101t210 58q18 2 25 9.5t7 24.5v16q0 114 -95 114q-70 0 -70 -73q0 -28 -15.5 -42.5t-40.5 -14.5q-24 0 -37.5 14.5t-13.5 36.5q0 51 65 81.5t149 30.5q87 0 125 -40t38 -135v-203q0 -49 50 -38v-28q-27 -21 -75 -21 q-36 0 -56.5 18.5t-22.5 50.5q0 5 -3 7.5t-6.5 1t-7.5 -6.5q-59 -72 -156 -72zM217 53q48 0 82 31t34 75v41q0 19 -8.5 26.5t-31.5 5.5q-85 -9 -119.5 -38t-34.5 -65q0 -32 20 -54t58 -22z" glyph-name="a" horiz-adv-x="508" unicode="a"/><glyph d="M91 -6q-17 0 -17 18v534q0 34 -13.5 46t-50.5 9v28l129 25q40 8 40 -32v-206q0 -9 6.5 -11.5t14.5 6.5q18 18 55 33.5t81 15.5q84 0 141.5 -61.5t57.5 -164.5q0 -111 -64.5 -175.5t-151.5 -64.5q-37 0 -71.5 12.5t-58 25t-34.5 12.5q-15 0 -34 -25t-30 -25zM314 31 q53 0 82.5 43.5t29.5 116.5q0 87 -38.5 146t-101.5 59q-43 0 -75 -28.5t-32 -94.5v-102q0 -69 42 -104.5t93 -35.5z" glyph-name="b" horiz-adv-x="565" unicode="b"/><glyph d="M275 -6q-100 0 -172.5 62.5t-72.5 168.5q0 109 75 172t176 63q76 0 125.5 -38t49.5 -85q0 -24 -13 -40.5t-39 -16.5q-25 0 -40.5 15.5t-15.5 37.5q0 39 -19 66.5t-66 27.5q-57 0 -89.5 -44.5t-32.5 -116.5q0 -95 52.5 -151.5t133.5 -56.5q69 0 112 53l22 -18 q-19 -36 -67 -67.5t-119 -31.5z" glyph-name="c" horiz-adv-x="496" unicode="c"/><glyph d="M490 83q0 -26 14.5 -34t49.5 0v-28q-41 -26 -88 -26q-78 0 -81 75q-60 -76 -156 -76q-84 0 -141.5 61t-57.5 164q0 111 65 176t154 65q27 0 52.5 -6.5t39 -12.5t25 -8.5t15.5 4.5t4 28v81q0 34 -13.5 46t-50.5 9v28l129 25q40 8 40 -32v-539zM282 58q41 0 72 25.5 t31 81.5v107q0 73 -41.5 112t-92.5 39q-53 0 -82 -44t-29 -116q0 -86 39.5 -145.5t102.5 -59.5z" glyph-name="d" horiz-adv-x="569" unicode="d"/><glyph d="M320 58q72 0 115 53l22 -18q-19 -36 -68.5 -67.5t-121.5 -31.5q-99 0 -168 62t-69 169q0 110 72 172.5t171 62.5q81 0 133.5 -41.5t52.5 -105.5q0 -51 -41 -69t-135 -21l-112 -3q-27 -1 -19 -39q19 -58 63.5 -90.5t104.5 -32.5zM258 427q-52 0 -81.5 -34.5t-35.5 -96.5 l1 1q-2 -26 6 -36.5t27 -10.5l66 1q65 0 91 18t26 54q0 45 -26.5 74.5t-73.5 29.5z" glyph-name="e" horiz-adv-x="494" unicode="e"/><glyph d="M268 672q62 0 102.5 -28t40.5 -68q0 -23 -15 -36.5t-38 -13.5q-26 0 -38.5 18t-14.5 39t-14.5 39t-37.5 18q-36 0 -48.5 -31.5t-12.5 -94.5v-36q0 -27 24 -27h103v-36h-103q-24 0 -24 -24v-304q0 -30 14.5 -42.5t51.5 -15.5v-29h-235v29q36 3 50 15.5t14 42.5v304 q0 14 -6 19t-20 5h-41v25q35 3 51 10.5t16 27.5v7q0 89 51 138t130 49z" glyph-name="f" horiz-adv-x="391" unicode="f"/><glyph d="M169 151q-39 0 -39 -27q0 -23 53 -33l140 -25q80 -13 120 -35.5t40 -65.5q0 -69 -83 -115.5t-189 -46.5q-85 0 -140.5 32t-55.5 88q0 11 2.5 21t5.5 17t10.5 15t10 11.5t13.5 9.5t12 7t13 6.5t11 4.5q7 2 9.5 3.5t4 3t-1.5 3t-10 3.5q-28 7 -43 26t-15 43q0 59 87 74 q-78 41 -78 130q0 71 50 115t140 44q113 0 165 -67q4 65 59 65q22 0 36.5 -11.5t14.5 -32.5q0 -22 -16 -32.5t-36 -4.5q-18 4 -23.5 -10.5t-5.5 -63.5q0 -71 -48 -114.5t-133 -43.5q-19 0 -44 3t-36 3zM222 429q-73 0 -73 -106q0 -61 28 -104t77 -43q73 0 73 105 q0 61 -28 104.5t-77 43.5zM217 1q-49 8 -76 -13.5t-27 -56.5q0 -42 38.5 -70t101.5 -28q57 0 94 25.5t37 69.5q0 27 -21 39.5t-72 21.5z" glyph-name="g" horiz-adv-x="526" unicode="g"/><glyph d="M499 82q0 -48 51 -38v-28q-31 -21 -77 -21q-79 0 -79 77v194q0 57 -26.5 91.5t-73.5 34.5q-50 0 -80 -35t-30 -91v-179q0 -30 14 -42.5t50 -15.5v-29h-233v29q36 3 50 15.5t14 42.5v459q0 34 -13.5 46t-50.5 9v28l129 25q40 8 40 -32v-195q0 -39 16 -39q6 1 11 7 q63 66 143 66q62 0 103.5 -40t41.5 -131v-208z" glyph-name="h" horiz-adv-x="570" unicode="h"/><glyph d="M131 543q-26 0 -44.5 18.5t-18.5 44.5t18.5 44.5t44.5 18.5t44.5 -18.5t18.5 -44.5t-18.5 -44.5t-44.5 -18.5zM25 0v29q36 3 50 15.5t14 42.5v262q0 34 -14 46.5t-50 8.5v28l129 26q40 8 40 -33v-338q0 -30 14 -42.5t50 -15.5v-29h-233z" glyph-name="i" horiz-adv-x="283" unicode="i"/><glyph d="M133 543q-26 0 -44.5 18.5t-18.5 44.5t18.5 44.5t44.5 18.5t44 -18.5t18 -44.5t-18 -44.5t-44 -18.5zM45 -201q-45 0 -77.5 18t-32.5 54q0 23 12.5 36.5t34.5 13.5q21 0 35 -13t19 -28.5t12.5 -28.5t17.5 -13q12 0 18.5 15t6.5 37v459q0 34 -14 46.5t-51 8.5v28l129 26 q41 8 41 -33v-478q0 -70 -42.5 -109t-108.5 -39z" glyph-name="j" horiz-adv-x="261" unicode="j"/><glyph d="M458 78q19 -27 36 -36.5t50 -12.5v-29h-224v29q47 5 19 44l-91 133q-14 20 -29 7q-13 -11 -19 -17.5t-11 -18t-5 -25.5v-65q0 -30 14 -42.5t50 -15.5v-29h-233v29q36 3 50 15.5t14 42.5v459q0 34 -13.5 46t-50.5 9v28l129 25q40 8 40 -32v-347q0 -18 10 -24t21 4l136 120 q10 10 10.5 19.5t-12.5 17.5t-36 10v29h190v-29q-23 -2 -41.5 -9.5t-28 -14.5t-32.5 -27l-92 -80z" glyph-name="k" horiz-adv-x="544" unicode="k"/><glyph d="M155 -5q-81 0 -81 82v469q0 34 -13.5 46t-50.5 9v28l129 25q40 8 40 -32v-539q0 -26 14.5 -34t49.5 0v-28q-41 -26 -88 -26z" glyph-name="l" horiz-adv-x="258" unicode="l"/><glyph d="M780 83q0 -50 50 -39v-28q-29 -21 -76 -21q-79 0 -79 77v194q0 58 -23 93t-67 35t-71 -36t-27 -92v-179q0 -30 14 -42.5t49 -15.5v-29h-232v29q36 3 50 15.5t14 42.5v179q0 58 -23 93t-67 35t-71 -36t-27 -92v-179q0 -30 14 -42.5t50 -15.5v-29h-233v29q36 3 50 15.5 t14 42.5v261q0 35 -13.5 47t-50.5 9v28l129 26q40 8 40 -31t16 -39q6 1 11 7l6.5 6.5t7.5 8t8.5 8.5t10.5 9t11.5 8.5t13.5 8.5t15 6.5t17.5 5.5t19 3.5t21.5 1.5q72 0 107 -54q19 -31 36 -13q67 67 146 67q60 0 99.5 -40t39.5 -131v-207z" glyph-name="m" horiz-adv-x="850" unicode="m"/><glyph d="M483 -5q-79 0 -79 77v194q0 58 -26 93t-74 35q-50 0 -80 -36t-30 -92v-179q0 -30 14 -42.5t50 -15.5v-29h-233v29q36 3 50 15.5t14 42.5v262q0 34 -14 46.5t-50 8.5v28l129 26q40 8 40 -31t16 -39q6 1 11 7q63 66 143 66q62 0 103.5 -40t41.5 -131v-208q0 -48 51 -38v-28 q-31 -21 -77 -21z" glyph-name="n" horiz-adv-x="580" unicode="n"/><glyph d="M268 -6q-98 0 -168 62.5t-70 170.5t70 170.5t168 62.5t168 -62.5t70 -170.5t-70 -170.5t-168 -62.5zM289 28q48 0 76.5 41.5t28.5 121.5q0 97 -42 166t-105 69q-48 0 -76.5 -41.5t-28.5 -121.5q0 -97 42 -166t105 -69z" glyph-name="o" horiz-adv-x="536" unicode="o"/><glyph d="M351 460q84 0 141.5 -61.5t57.5 -164.5q0 -111 -64.5 -175.5t-152.5 -64.5q-26 0 -51 6t-39.5 12.5t-26.5 10t-17 -1t-5 -20.5v-104q0 -30 14 -42.5t50 -15.5v-29h-233v29q36 3 50 15.5t14 42.5v452q0 34 -14 46.5t-50 8.5v28l129 26q40 8 40 -33v-9q0 -9 6.5 -11.5 t14.5 6.5q18 18 54.5 33.5t81.5 15.5zM329 31q53 0 82.5 43.5t29.5 116.5q0 87 -38.5 146t-100.5 59q-44 0 -76 -28.5t-32 -94.5v-102q0 -69 42 -104.5t93 -35.5z" glyph-name="p" horiz-adv-x="580" unicode="p"/><glyph d="M322 -190v29q36 3 50 15.5t14 42.5v140q0 9 -6.5 11.5t-14.5 -6.5q-17 -18 -53.5 -33t-80.5 -15q-86 0 -143.5 61t-57.5 164q0 111 64.5 176t152.5 65q36 0 70.5 -13t58.5 -25.5t35 -12.5q15 0 33.5 25t29.5 25q17 0 17 -18v-544q0 -30 14 -42.5t49 -15.5v-29h-232z M281 58q42 0 73.5 28t31.5 94v90q0 74 -42 113.5t-93 39.5q-53 0 -82 -44t-29 -116q0 -86 39.5 -145.5t101.5 -59.5z" glyph-name="q" horiz-adv-x="554" unicode="q"/><glyph d="M25 0v29q36 3 50 15.5t14 42.5v262q0 34 -14 46.5t-50 8.5v28l129 26q40 8 40 -31q0 -38 14 -36q5 1 11 7q54 63 128 63q49 0 74.5 -26.5t25.5 -60.5q0 -29 -16 -45.5t-42 -16.5q-23 0 -37.5 12.5t-14.5 32.5q0 21 -12.5 34t-33.5 13q-41 0 -69 -41t-28 -111v-165 q0 -30 14.5 -42.5t53.5 -15.5v-29h-237z" glyph-name="r" horiz-adv-x="462" unicode="r"/><glyph d="M207 -6q-75 0 -128.5 30.5t-53.5 85.5q0 51 45 51q22 0 34.5 -12t12.5 -28q0 -46 32.5 -70t75.5 -24q41 0 61.5 20.5t20.5 51.5q0 18 -7.5 31.5t-26 24t-33.5 16t-45 14.5q-158 46 -158 145q0 59 51 94.5t129 35.5q70 0 121 -27t51 -76q0 -47 -48 -47q-40 0 -40 35 q0 36 -27 59t-68 23q-34 0 -52.5 -16.5t-18.5 -45.5q0 -35 24 -53t72 -32q88 -28 117 -46q60 -38 60 -100q0 -65 -57.5 -102.5t-143.5 -37.5z" glyph-name="s" horiz-adv-x="433" unicode="s"/><glyph d="M210 -5q-128 0 -128 146v250q0 14 -6 19t-20 5h-41v25q59 9 89.5 36.5t42.5 81.5h40v-80q0 -27 24 -27h89v-36h-89q-24 0 -24 -24v-268q0 -86 53 -86q33 0 51 15l15 -26q-35 -31 -96 -31z" glyph-name="t" horiz-adv-x="326" unicode="t"/><glyph d="M235 -6q-63 0 -104.5 40t-41.5 131v184q0 34 -14 46.5t-50 8.5v28l129 26q40 8 40 -33v-236q0 -58 26 -93t74 -35q50 0 80 36t30 92v160q0 34 -14 46.5t-50 8.5v28l128 26q41 8 41 -33v-343q0 -48 51 -38v-28q-27 -21 -76 -21q-65 0 -78 61q-2 16 -11 16q-4 0 -13 -9 q-57 -69 -147 -69z" glyph-name="u" horiz-adv-x="585" unicode="u"/><glyph d="M222 0l-131 334q-17 43 -32.5 60t-48.5 28v29h222v-29q-40 -11 -45 -27.5t13 -60.5l87 -217q3 -9 8 -12.5t9.5 0t7.5 12.5l46 118q29 77 34 115t-7 51t-46 21v29h189v-29q-44 -11 -62 -28t-35 -60l-132 -334h-77z" glyph-name="v" horiz-adv-x="538" unicode="v"/><glyph d="M215 0l-124 334q-16 43 -32 60t-49 28v29h220v-29q-39 -11 -44 -27.5t12 -60.5l79 -217q3 -9 8 -12.5t10 0t8 12.5l36 108q26 74 6 129q-10 28 -25 43t-43 25v29h220v-29q-39 -11 -44 -27.5t12 -60.5l79 -217q3 -9 8.5 -12.5t10.5 0t8 12.5l39 118q27 80 31.5 117 t-6.5 49.5t-45 20.5v29h189v-29q-44 -11 -62.5 -28t-35.5 -60l-124 -334h-75l-96 260l-96 -260h-75z" glyph-name="w" horiz-adv-x="789" unicode="w"/><glyph d="M489 422q-44 -12 -72 -32t-67 -67l-60 -73l94 -130q30 -43 51.5 -61.5t53.5 -29.5v-29h-217v29q20 5 29 11t7 18t-9 24.5t-25 37.5l-42 59q-35 -44 -52 -69.5t-20 -42.5t5.5 -24.5t30.5 -13.5v-29h-181v29q44 12 72 32.5t67 66.5l61 74l-94 129q-31 43 -52.5 61.5 t-53.5 29.5v29h218v-29q-20 -5 -29 -11t-7 -18t9 -24.5t25 -37.5l42 -58q35 43 52 68.5t19.5 42t-6 24.5t-30.5 14v29h181v-29z" glyph-name="x" horiz-adv-x="504" unicode="x"/><glyph d="M134 -198q-43 0 -69.5 19.5t-26.5 50.5q0 23 15.5 39t40.5 16q23 0 34 -13.5t12.5 -29.5t8 -29.5t21.5 -13.5q29 0 50 58q22 54 -6 123l-123 312q-17 43 -32.5 60t-48.5 28v29h222v-29q-40 -11 -45.5 -27.5t13.5 -60.5l89 -218q3 -9 8 -12t9.5 0t7.5 12l46 119 q30 77 35 115t-6.5 51t-45.5 21v29h188v-29q-43 -11 -61 -27.5t-36 -60.5l-158 -400q-28 -71 -58.5 -101.5t-83.5 -30.5z" glyph-name="y" horiz-adv-x="541" unicode="y"/><glyph d="M15 0l280 413h-143q-36 0 -56 -20.5t-31 -60.5h-29l18 119h384l-280 -413h149q36 0 56 20t32 61h29l-18 -119h-391z" glyph-name="z" horiz-adv-x="453" unicode="z"/><glyph d="M204 43q0 -83 9.5 -124t41.5 -58l-29 -27q-48 19 -75 53.5t-34.5 69.5t-7.5 86v177q0 22 -12 32.5t-52 28.5v29q40 18 52 28.5t12 32.5v177q0 51 7.5 86t34.5 69.5t75 53.5l29 -27q-32 -17 -41.5 -58t-9.5 -124v-164q0 -64 -79 -87v-3q79 -23 79 -87v-164z" glyph-name="braceleft" horiz-adv-x="280" unicode="{"/><glyph d="M100 800h34v-1015h-34v1015z" glyph-name="bar" horiz-adv-x="234" unicode="|"/><glyph d="M76 43v164q0 64 79 87v3q-79 23 -79 87v164q0 83 -9.5 124t-41.5 58l29 27q48 -19 75 -53.5t34.5 -69.5t7.5 -86v-177q0 -22 12 -32.5t52 -28.5v-29q-40 -18 -52 -28.5t-12 -32.5v-177q0 -51 -7.5 -86t-34.5 -69.5t-75 -53.5l-29 27q32 17 41.5 58t9.5 124z" glyph-name="braceright" horiz-adv-x="280" unicode="}"/><glyph d="M450 300h-31q0 -25 -13.5 -37t-34.5 -12q-23 0 -92 35.5t-116 35.5q-51 0 -82 -32t-31 -90h30q0 23 14.5 36t34.5 13q22 0 91 -35.5t116 -35.5q52 0 83 32t31 90z" glyph-name="asciitilde" horiz-adv-x="500" unicode="~"/><glyph d="M113 456q26 0 44.5 -19t18.5 -45t-19 -44.5t-44 -18.5t-44 18.5t-19 44.5t18.5 45t44.5 19zM92 255h42q2 -91 24.5 -207.5t22.5 -156.5q0 -36 -18.5 -57t-49.5 -21t-49.5 21t-18.5 57q0 40 22.5 156.5t24.5 207.5z" glyph-name="exclamdown" horiz-adv-x="226" unicode="¡"/><glyph d="M439 111l22 -18q-19 -36 -67 -67.5t-119 -31.5q-40 0 -79 11l-18 -66h-24l20 74q-65 25 -104.5 80t-39.5 132q0 109 75 172t176 63h15l16 59h24l-17 -62q61 -9 99 -44t38 -76q0 -24 -13 -40.5t-39 -16.5q-25 0 -40.5 15.5t-15.5 37.5q0 62 -40 84l-89 -326 q47 -33 108 -33q69 0 112 53zM141 266q0 -101 59 -158l86 317q-14 2 -23 2q-57 0 -89.5 -44.5t-32.5 -116.5z" glyph-name="cent" horiz-adv-x="496" unicode="¢"/><glyph d="M494 63q-8 -47 4 -63h-457v66q50 30 73 55.5t23 59.5q0 20 -8 46h-89v24h80q-6 15 -28.5 62t-34 82t-11.5 69q0 80 62.5 126.5t165.5 46.5q106 0 164 -50.5t58 -122.5q0 -41 -19.5 -66.5t-52.5 -25.5q-22 0 -39.5 12.5t-17.5 37.5q0 12 7.5 32t7.5 39q0 46 -30 78t-79 32 q-53 0 -80.5 -34.5t-27.5 -80.5q0 -45 36.5 -123.5t41.5 -113.5h169v-24h-167q-1 -50 -32 -80.5t-86 -57.5h215q66 0 95.5 14.5t44.5 56.5h29z" glyph-name="sterling" horiz-adv-x="551" unicode="£"/><glyph d="M488 228q0 -71 -44 -128l68 -66l-40 -39l-67 66q-57 -42 -125 -42q-70 0 -124 41l-67 -65l-39 39l66 66q-43 56 -43 128q0 69 42 126l-65 64l39 40l65 -64q57 42 126 42q70 0 127 -43l65 65l40 -40l-66 -65q42 -57 42 -125zM279 74q63 0 107.5 45.5t44.5 108.5t-44.5 108 t-107.5 45t-106 -45t-43 -108t43.5 -108.5t105.5 -45.5z" glyph-name="currency" horiz-adv-x="562" unicode="¤"/><glyph d="M447 621h196v-28q-33 -4 -56.5 -24t-51.5 -62l-129 -203q-9 -16 -12 -29h138v-24h-142v-18v-43h142v-24h-142v-81q0 -27 18.5 -39.5t66.5 -17.5v-28h-290v28q48 5 66.5 17.5t18.5 39.5v81h-144v24h144v43q0 13 -1 18h-143v24h137q-8 16 -14 25l-124 194q-33 51 -56 72 t-54 27v28h254v-28q-37 -6 -44 -23t15 -53l118 -185q7 -12 14 0l116 184q21 35 9.5 54t-50.5 23v28z" glyph-name="yen" horiz-adv-x="658" unicode="¥"/><glyph d="M100 451v349h34v-349h-34zM100 -215v349h34v-349h-34z" glyph-name="brokenbar" horiz-adv-x="234" unicode="¦"/><glyph d="M389 93q80 -50 80 -132q0 -57 -35.5 -94.5t-85 -52t-108.5 -14.5q-109 0 -185 47q-20 48 -18.5 94.5t27.5 46.5q12 0 18 -17q24 -65 73 -99.5t110 -33.5q49 0 75 23t26 64q0 21 -9.5 38.5t-19 27.5t-37 22t-38.5 16t-48 16q-179 58 -179 183q0 81 77 115q-76 51 -76 135 q0 72 57.5 115.5t151.5 43.5q105 0 176 -44q20 -48 18.5 -94.5t-27.5 -46.5q-12 0 -18 16q-22 64 -67.5 98t-100.5 34q-49 0 -72.5 -25.5t-23.5 -60.5q0 -47 32.5 -72t99.5 -46q33 -11 47 -16t45 -18t46.5 -25.5t34.5 -31t27 -42t8 -52.5q0 -85 -81 -118zM129 264 q0 -47 32.5 -72t99.5 -46q62 -21 85 -31q21 23 21 60q0 22 -9.5 39.5t-19.5 27.5t-36 21.5t-39 16t-48 15.5q-42 15 -66 26q-20 -23 -20 -57z" glyph-name="section" horiz-adv-x="505" unicode="§"/><glyph d="M113 543q-26 0 -44.5 18.5t-18.5 44.5t18.5 44.5t44.5 18.5t44.5 -18.5t18.5 -44.5t-18.5 -44.5t-44.5 -18.5zM316 543q-26 0 -44.5 18.5t-18.5 44.5t18.5 44.5t44.5 18.5t44.5 -18.5t18.5 -44.5t-18.5 -44.5t-44.5 -18.5z" glyph-name="dieresis" horiz-adv-x="429" unicode="¨"/><glyph d="M360 -10q-141 0 -235.5 92.5t-94.5 231.5q0 138 94.5 230.5t235.5 92.5t235.5 -92.5t94.5 -230.5q0 -139 -94.5 -231.5t-235.5 -92.5zM360 21q127 0 212 84t85 209q0 124 -85 208t-212 84t-212 -84t-85 -208q0 -125 85 -209t212 -84zM370 123q-80 0 -137.5 50t-57.5 136 q0 89 59.5 137.5t139.5 48.5q63 0 104.5 -30.5t41.5 -69.5q0 -22 -11 -37t-35 -15t-37 14.5t-13 33.5q0 73 -62 73q-42 0 -64 -33t-22 -89q0 -74 40 -118.5t103 -44.5q49 0 82 41l20 -16q-15 -30 -53.5 -55.5t-97.5 -25.5z" glyph-name="copyright" unicode="©"/><glyph d="M130 329q-41 -1 -68 17.5t-27 56.5q0 39 38.5 63.5t144.5 39.5v11q0 82 -52 82q-40 0 -40 -35q0 -21 -9 -31.5t-33 -10.5q-15 0 -24 8.5t-9 22.5q0 32 40 51.5t92 19.5q53 0 79 -25.5t26 -80.5v-116q0 -45 34 -28v-28q-27 -17 -61 -6.5t-38 46.5q-29 -55 -93 -57z M147 367q29 0 50 24t21 54v35q-47 -8 -73 -22.5t-31.5 -26t-5.5 -27.5q0 -37 39 -37zM54 234v36h249v-36h-249z" glyph-name="ordfeminine" horiz-adv-x="358" unicode="ª"/><glyph d="M50 282l153 136l19 -17l-82 -119l82 -118l-19 -17zM215 282l153 136l19 -17l-82 -119l82 -118l-19 -17z" glyph-name="guillemotleft" horiz-adv-x="437" unicode="«"/><glyph d="M484 376v-233h-34v199h-400v34h434z" glyph-name="logicalnot" horiz-adv-x="534" unicode="¬"/><glyph d="M50 282h270v-49h-270v49z" glyph-name="uni00AD" horiz-adv-x="370" unicode="­"/><glyph d="M360 -10q-141 0 -235.5 92.5t-94.5 231.5q0 138 94.5 230.5t235.5 92.5t235.5 -92.5t94.5 -230.5q0 -139 -94.5 -231.5t-235.5 -92.5zM360 21q127 0 212 84t85 209q0 124 -85 208t-212 84t-212 -84t-85 -208q0 -125 85 -209t212 -84zM498 222q7 -25 12 -38t15 -25.5 t23 -12.5v-21h-32q-47 0 -69.5 23t-41.5 80q-20 60 -70 60q-23 0 -32 -7.5t-9 -24.5v-73q0 -31 40 -37v-21h-158v21q39 6 39 37v261q0 31 -39 37v21h195q68 0 108 -27t40 -76q0 -70 -93 -94q-3 -1 -3 -3.5t3 -3.5q54 -13 72 -76zM361 318q41 0 59.5 23t18.5 57q0 74 -70 74 h-48q-27 0 -27 -28v-94q0 -17 7.5 -24.5t26.5 -7.5h33z" glyph-name="registered" unicode="®"/><glyph d="M58 624q0 16 19 16h285q19 0 19 -16v-24q0 -16 -19 -16h-285q-19 0 -19 16v24z" glyph-name="macron" horiz-adv-x="439" unicode="¯"/><glyph d="M148 408q-50 0 -84 33.5t-34 81.5q0 47 34 80.5t84 33.5t84 -33.5t34 -80.5q0 -48 -34 -81.5t-84 -33.5zM148 450q30 0 49.5 21t19.5 52q0 30 -19.5 51t-49.5 21t-49.5 -21t-19.5 -51q0 -31 19.5 -52t49.5 -21z" glyph-name="degree" horiz-adv-x="296" unicode="°"/><glyph d="M253 370h167v-35h-167v-168h-35v168h-168v35h168v168h35v-168zM50 0v34h370v-34h-370z" glyph-name="plusminus" horiz-adv-x="470" unicode="±"/><glyph d="M40 387q15 74 98 125q46 28 46 56q0 17 -10.5 28.5t-26.5 11.5q-31 0 -38 -24q-2 -10 0.5 -21.5t1.5 -16.5q-7 -15 -22.5 -17t-28 6.5t-12.5 19.5q0 37 25.5 61.5t73.5 24.5q45 0 69 -20.5t24 -55.5q0 -8 -1.5 -15t-5 -13t-6 -11t-8.5 -10.5t-9 -8.5t-11.5 -8.5t-11 -7 t-12 -7t-10.5 -6.5q-20 -11 -27.5 -16t-16 -13.5t-11.5 -17.5h86q16 0 21 8l9 13h28l-10 -51q-3 -14 -21 -14h-183z" glyph-name="uni00B2" horiz-adv-x="294" unicode="²"/><glyph d="M138 383q-47 0 -75 23.5t-28 55.5q0 25 26 25q15 0 21 -5.5t8 -20t3 -17.5q11 -30 44 -30q20 0 33.5 15t13.5 36q0 32 -21 38.5t-47 -7.5l-13 28l24 11q37 13 37 44t-32 31q-22 0 -30 -19.5t-2 -39.5l-44 6q-12 5 -12 14q-1 31 23.5 51t67.5 20q42 0 66 -19.5t24 -41.5 q0 -29 -27 -43q46 -17 46 -66q0 -38 -30.5 -63.5t-75.5 -25.5z" glyph-name="uni00B3" horiz-adv-x="284" unicode="³"/><glyph d="M60 567q-16 -19 -6 -31q10 -13 32 0l120 71q29 18 38 39.5t-8 41.5q-35 37 -80 -13z" glyph-name="acute" horiz-adv-x="297" unicode="´"/><glyph d="M763 593q-35 -6 -50.5 -18t-15.5 -39v-544q0 -27 15.5 -39t50.5 -18v-28h-477v28q35 6 50.5 18t15.5 39v164q0 28 -12.5 40.5t-42.5 12.5h-36q-110 0 -170.5 58t-60.5 151t60.5 148t170.5 55h502v-28zM578 -8v544q0 28 -14.5 42.5t-39.5 14.5q-24 0 -38.5 -14.5 t-14.5 -42.5v-544q0 -28 14.5 -42.5t38.5 -14.5q25 0 39.5 14.5t14.5 42.5z" glyph-name="paragraph" horiz-adv-x="793" unicode="¶"/><glyph d="M113 235q-26 0 -44.5 18.5t-18.5 45.5q0 25 18.5 43.5t44.5 18.5t44.5 -18.5t18.5 -43.5q0 -27 -18.5 -45.5t-44.5 -18.5z" glyph-name="periodcentered" horiz-adv-x="226" unicode="·"/><glyph d="M129 -222q-52 0 -83 21t-31 50q0 28 24.5 38t46.5 -12q0 -25 10 -46t35 -21t39 20.5t14 47.5q0 50 -42 50q-9 0 -23.5 -4t-21.5 -4q-15 0 -20 9t2 23l24 50h69l-22 -46q41 5 73.5 -18t32.5 -62q0 -44 -38 -70t-89 -26z" glyph-name="cedilla" horiz-adv-x="271" unicode="¸"/><glyph d="M32 392v28q29 2 29 18v153l-31 -10v34l56 25q13 6 23.5 0t9.5 -15v-187q0 -16 29 -18v-28h-116z" glyph-name="uni00B9" horiz-adv-x="178" unicode="¹"/><glyph d="M178 330q-59 0 -101 41t-42 106q0 66 42 106t101 41q60 1 101.5 -40t41.5 -107t-41.5 -106.5t-101.5 -40.5zM188 358q27 0 44.5 26t17.5 74q0 57 -24 98t-58 41q-27 0 -44.5 -27t-17.5 -75q0 -56 24 -96.5t58 -40.5zM54 234v36h249v-36h-249z" glyph-name="ordmasculine" horiz-adv-x="356" unicode="º"/><glyph d="M222 282l-153 -135l-19 17l82 118l-82 119l19 17zM387 282l-154 -135l-18 17l81 118l-81 119l18 17z" glyph-name="guillemotright" horiz-adv-x="437" unicode="»"/><glyph d="M61 438v153l-31 -10v34l56 25q13 6 23.5 0t9.5 -15v-187q0 -16 29 -18v-28h-116v28q29 2 29 18zM458 636h66l-432 -641h-66zM570 62h-35v-27q0 -18 25 -18v-23h-109v23q24 0 24 18v27h-101v33l122 150q9 11 24 7t15 -16v-141h35v-33zM419 95h56v70z" glyph-name="onequarter" horiz-adv-x="610" unicode="¼"/><glyph d="M32 392v28q29 2 29 18v153l-31 -10v34l56 25q13 6 23.5 0t9.5 -15v-187q0 -16 29 -18v-28h-116zM26 -5l432 641h66l-432 -641h-66zM389 -6q15 74 98 125q46 28 46 56q0 17 -10.5 28.5t-26.5 11.5q-31 0 -38 -24q-2 -10 0.5 -21.5t1.5 -16.5q-7 -15 -22.5 -17t-28 6.5 t-12.5 19.5q0 37 25.5 61.5t73.5 24.5q45 0 69 -20.5t24 -55.5q0 -8 -1.5 -15t-5 -13t-6 -11t-8.5 -10.5t-9 -8.5t-11.5 -8.5t-11 -7t-12 -7t-10.5 -6.5q-20 -11 -27.5 -16t-16 -13.5t-11.5 -17.5h86q16 0 21 8l9 13h28l-10 -51q-3 -14 -21 -14h-183z" glyph-name="onehalf" horiz-adv-x="643" unicode="½"/><glyph d="M244 472q0 -38 -30.5 -63.5t-75.5 -25.5q-47 0 -75 23.5t-28 55.5q0 25 26 25q15 0 21 -5.5t8 -20t3 -17.5q11 -30 44 -30q20 0 33.5 15t13.5 36q0 32 -21 38.5t-47 -7.5l-13 28l24 11q37 13 37 44t-32 31q-22 0 -30 -19.5t-2 -39.5l-44 6q-12 5 -12 14q-1 31 23.5 51 t67.5 20q42 0 66 -19.5t24 -41.5q0 -29 -27 -43q46 -17 46 -66zM562 636h66l-432 -641h-66zM664 62h-35v-27q0 -18 25 -18v-23h-110v23q24 0 24 18v27h-101v33l122 150q9 11 24.5 7t15.5 -16v-141h35v-33zM512 95h56v70z" glyph-name="threequarters" horiz-adv-x="704" unicode="¾"/><glyph d="M241 559q26 0 44.5 -19t18.5 -45t-18.5 -44.5t-44.5 -18.5q-25 0 -43.5 18.5t-18.5 44.5t18.5 45t43.5 19zM441 84q0 43 -21 69t-51 26q-22 0 -40 -14.5t-18 -35.5q0 -14 13 -41.5t13 -46.5q0 -36 -24.5 -60t-66.5 -24q-47 0 -76 28.5t-29 73.5q0 29 14.5 55t34 48 t38.5 47.5t29.5 66.5t5.5 93h-43q-3 -43 -23.5 -77t-47 -56t-52.5 -43.5t-44 -52.5t-18 -70q0 -70 53 -112t142 -42q96 0 153.5 47.5t57.5 120.5z" glyph-name="questiondown" horiz-adv-x="476" unicode="¿"/><glyph d="M246 777q-29 18 -37.5 39.5t8.5 41.5q34 37 79 -13l96 -108q16 -18 6 -31t-32 0zM605 138q16 -36 22 -48t18 -29.5t24 -23.5t31 -9v-28h-251v28q43 7 51 26t-8 49l-21 48q-17 29 -56 29h-176q-41 0 -58 -31l-17 -40q-29 -67 66 -81v-28h-210v28q38 8 58.5 27t37.5 59 l181 416q23 55 23 91l68 7zM415 219q10 0 14 6t0 19l27 -60l-121 275q-11 23 -20 -1l-96 -223l3 8q-5 -11 0 -17.5t14 -6.5h179z" glyph-name="Agrave" unicode="À"/><glyph d="M348 706q-22 -13 -32 0q-10 12 6 31l96 108q45 50 80 13q17 -20 8 -41.5t-38 -39.5zM605 138q16 -36 22 -48t18 -29.5t24 -23.5t31 -9v-28h-251v28q43 7 51 26t-8 49l-21 48q-17 29 -56 29h-176q-41 0 -58 -31l-17 -40q-29 -67 66 -81v-28h-210v28q38 8 58.5 27t37.5 59 l181 416q23 55 23 91l68 7zM415 219q10 0 14 6t0 19l27 -60l-121 275q-11 23 -20 -1l-96 -223l3 8q-5 -11 0 -17.5t14 -6.5h179z" glyph-name="Aacute" unicode="Á"/><glyph d="M350 790l-119 -81l-17 18l136 153l135 -153l-17 -18zM605 138q16 -36 22 -48t18 -29.5t24 -23.5t31 -9v-28h-251v28q43 7 51 26t-8 49l-21 48q-17 29 -56 29h-176q-41 0 -58 -31l-17 -40q-29 -67 66 -81v-28h-210v28q38 8 58.5 27t37.5 59l181 416q23 55 23 91l68 7z M415 219q10 0 14 6t0 19l27 -60l-121 275q-11 23 -20 -1l-96 -223l3 8q-5 -11 0 -17.5t14 -6.5h179z" glyph-name="Acircumflex" unicode="Â"/><glyph d="M237 777q-19 0 -32 -12t-13 -34h-28q0 54 29 84t76 30q44 0 108.5 -33.5t85.5 -33.5q19 0 32 11.5t13 34.5h28q0 -54 -28.5 -83.5t-76.5 -29.5q-44 0 -108.5 33t-85.5 33zM605 138q16 -36 22 -48t18 -29.5t24 -23.5t31 -9v-28h-251v28q43 7 51 26t-8 49l-21 48 q-17 29 -56 29h-176q-41 0 -58 -31l-17 -40q-29 -67 66 -81v-28h-210v28q38 8 58.5 27t37.5 59l181 416q23 55 23 91l68 7zM415 219q10 0 14 6t0 19l27 -60l-121 275q-11 23 -20 -1l-96 -223l3 8q-5 -11 0 -17.5t14 -6.5h179z" glyph-name="Atilde" unicode="Ã"/><glyph d="M248 713q-26 0 -44.5 18.5t-18.5 44.5t18.5 44.5t44.5 18.5t44.5 -18.5t18.5 -44.5t-18.5 -44.5t-44.5 -18.5zM451 713q-26 0 -44.5 18.5t-18.5 44.5t18.5 44.5t44.5 18.5t44.5 -18.5t18.5 -44.5t-18.5 -44.5t-44.5 -18.5zM605 138q16 -36 22 -48t18 -29.5t24 -23.5 t31 -9v-28h-251v28q43 7 51 26t-8 49l-21 48q-17 29 -56 29h-176q-41 0 -58 -31l-17 -40q-29 -67 66 -81v-28h-210v28q38 8 58.5 27t37.5 59l181 416q23 55 23 91l68 7zM415 219q10 0 14 6t0 19l27 -60l-121 275q-11 23 -20 -1l-96 -223l3 8q-5 -11 0 -17.5t14 -6.5h179z " glyph-name="Adieresis" unicode="Ä"/><glyph d="M349 714q-41 0 -69 27.5t-28 66.5t28 66.5t69 27.5t69 -27.5t28 -66.5t-28 -66.5t-69 -27.5zM349 856q-20 0 -33 -14t-13 -34q0 -21 13 -34t33 -13t33 13t13 34q0 20 -13 34t-33 14zM605 138q16 -36 22 -48t18 -29.5t24 -23.5t31 -9v-28h-251v28q43 7 51 26t-8 49l-21 48 q-17 29 -56 29h-176q-41 0 -58 -31l-17 -40q-29 -67 66 -81v-28h-210v28q38 8 58.5 27t37.5 59l181 416q23 55 23 91l68 7zM415 219q10 0 14 6t0 19l27 -60l-121 275q-11 23 -20 -1l-96 -223l3 8q-5 -11 0 -17.5t14 -6.5h179z" glyph-name="Aring" unicode="Å"/><glyph d="M917 128h22q-22 -42 -30 -114q-2 -14 -16 -14h-488v28q34 6 50 18.5t16 38.5v98h-207q-20 0 -32.5 -5.5t-23.5 -23.5l-35 -56q-19 -33 -6 -48.5t59 -21.5v-28h-206v28q38 8 58 22t43 50l268 422q13 20 18 36.5t4 24.5t-6 10v28h473q14 0 15 -11q6 -60 20 -118h-21 q-22 47 -51 68t-76 21h-113q-33 0 -47.5 -11t-14.5 -39v-147q0 -27 15 -38t47 -11h78q49 0 66 16t24 55h18v-182h-18q-7 38 -24.5 54.5t-65.5 16.5h-78q-32 0 -47 -11t-15 -38v-157q0 -27 17.5 -38.5t61.5 -10.5l112 1q81 1 112 50zM289 223h182v313q0 26 -15 39 q6 -18 -18 -58l-171 -271q-8 -11 -0.5 -17t22.5 -6z" glyph-name="AE" horiz-adv-x="959" unicode="Æ"/><glyph d="M617 127q-11 -20 -30.5 -41t-49.5 -43.5t-75 -37t-96 -15.5l-17 -36q41 5 73.5 -18t32.5 -62q0 -44 -38 -70t-89 -26q-52 0 -83 21t-31 50q0 28 24 38t47 -12q0 -25 10 -46t35 -21t39 20.5t14 47.5q0 50 -42 50q-9 0 -23.5 -4t-21.5 -4q-15 0 -20 9t2 23l22 45 q-116 20 -193 103.5t-77 211.5q0 149 101.5 238t241.5 89q109 0 175 -50.5t66 -112.5q0 -31 -18 -52.5t-52 -21.5q-31 0 -49 20t-18 52q0 50 -33 90t-99 40q-83 0 -136 -65.5t-53 -176.5q0 -135 79 -216.5t192 -81.5q97 0 170 81z" glyph-name="Ccedilla" horiz-adv-x="652" unicode="Ç"/><glyph d="M341 737l-96 108q-45 50 -79 13q-17 -20 -8.5 -41.5t37.5 -39.5l120 -71q22 -13 32 0t-6 31zM30 0v28q34 6 50 18.5t16 38.5v451q0 27 -15.5 39t-50.5 18v28h473q14 0 15 -11q6 -60 20 -118h-21q-22 47 -51 68t-76 21h-113q-33 0 -47.5 -11t-14.5 -39v-147q0 -27 15 -38 t47 -11h78q49 0 66 16t24 55h18v-182h-18q-7 38 -24.5 54.5t-65.5 16.5h-78q-32 0 -47 -11t-15 -38v-157q0 -27 17.5 -38.5t61.5 -10.5l112 1q48 1 72 13.5t40 36.5l24 37h22q-22 -42 -30 -114q-2 -14 -16 -14h-488z" glyph-name="Egrave" horiz-adv-x="584" unicode="È"/><glyph d="M271 737q-16 -19 -6 -31q10 -13 32 0l120 71q29 18 38 39.5t-8 41.5q-35 37 -80 -13zM30 0v28q34 6 50 18.5t16 38.5v451q0 27 -15.5 39t-50.5 18v28h473q14 0 15 -11q6 -60 20 -118h-21q-22 47 -51 68t-76 21h-113q-33 0 -47.5 -11t-14.5 -39v-147q0 -27 15 -38t47 -11 h78q49 0 66 16t24 55h18v-182h-18q-7 38 -24.5 54.5t-65.5 16.5h-78q-32 0 -47 -11t-15 -38v-157q0 -27 17.5 -38.5t61.5 -10.5l112 1q48 1 72 13.5t40 36.5l24 37h22q-22 -42 -30 -114q-2 -14 -16 -14h-488z" glyph-name="Eacute" horiz-adv-x="584" unicode="É"/><glyph d="M299 880l135 -153l-17 -18l-118 81l-119 -81l-17 18zM30 0v28q34 6 50 18.5t16 38.5v451q0 27 -15.5 39t-50.5 18v28h473q14 0 15 -11q6 -60 20 -118h-21q-22 47 -51 68t-76 21h-113q-33 0 -47.5 -11t-14.5 -39v-147q0 -27 15 -38t47 -11h78q49 0 66 16t24 55h18v-182 h-18q-7 38 -24.5 54.5t-65.5 16.5h-78q-32 0 -47 -11t-15 -38v-157q0 -27 17.5 -38.5t61.5 -10.5l112 1q48 1 72 13.5t40 36.5l24 37h22q-22 -42 -30 -114q-2 -14 -16 -14h-488z" glyph-name="Ecircumflex" horiz-adv-x="584" unicode="Ê"/><glyph d="M197 713q-26 0 -44.5 18.5t-18.5 44.5t18.5 44.5t44.5 18.5t44.5 -18.5t18.5 -44.5t-18.5 -44.5t-44.5 -18.5zM400 713q-26 0 -44.5 18.5t-18.5 44.5t18.5 44.5t44.5 18.5t44.5 -18.5t18.5 -44.5t-18.5 -44.5t-44.5 -18.5zM30 0v28q34 6 50 18.5t16 38.5v451 q0 27 -15.5 39t-50.5 18v28h473q14 0 15 -11q6 -60 20 -118h-21q-22 47 -51 68t-76 21h-113q-33 0 -47.5 -11t-14.5 -39v-147q0 -27 15 -38t47 -11h78q49 0 66 16t24 55h18v-182h-18q-7 38 -24.5 54.5t-65.5 16.5h-78q-32 0 -47 -11t-15 -38v-157q0 -27 17.5 -38.5 t61.5 -10.5l112 1q48 1 72 13.5t40 36.5l24 37h22q-22 -42 -30 -114q-2 -14 -16 -14h-488z" glyph-name="Edieresis" horiz-adv-x="584" unicode="Ë"/><glyph d="M198 737l-96 108q-45 50 -79 13q-17 -20 -8.5 -41.5t37.5 -39.5l120 -71q22 -13 32 0t-6 31zM30 0v28q34 6 50 18.5t16 38.5v451q0 27 -15.5 39t-50.5 18v28h251v-28q-35 -6 -50.5 -18t-15.5 -39v-451q0 -27 15.5 -39t50.5 -18v-28h-251z" glyph-name="Igrave" horiz-adv-x="311" unicode="Ì"/><glyph d="M128 737q-16 -19 -6 -31q10 -13 32 0l120 71q29 18 38 39.5t-8 41.5q-35 37 -80 -13zM30 0v28q34 6 50 18.5t16 38.5v451q0 27 -15.5 39t-50.5 18v28h251v-28q-35 -6 -50.5 -18t-15.5 -39v-451q0 -27 15.5 -39t50.5 -18v-28h-251z" glyph-name="Iacute" horiz-adv-x="311" unicode="Í"/><glyph d="M155 880l135 -153l-17 -18l-118 81l-119 -81l-17 18zM30 0v28q34 6 50 18.5t16 38.5v451q0 27 -15.5 39t-50.5 18v28h251v-28q-35 -6 -50.5 -18t-15.5 -39v-451q0 -27 15.5 -39t50.5 -18v-28h-251z" glyph-name="Icircumflex" horiz-adv-x="311" unicode="Î"/><glyph d="M53 713q-26 0 -44.5 18.5t-18.5 44.5t18.5 44.5t44.5 18.5t44.5 -18.5t18.5 -44.5t-18.5 -44.5t-44.5 -18.5zM256 713q-26 0 -44.5 18.5t-18.5 44.5t18.5 44.5t44.5 18.5t44.5 -18.5t18.5 -44.5t-18.5 -44.5t-44.5 -18.5zM30 0v28q34 6 50 18.5t16 38.5v451 q0 27 -15.5 39t-50.5 18v28h251v-28q-35 -6 -50.5 -18t-15.5 -39v-451q0 -27 15.5 -39t50.5 -18v-28h-251z" glyph-name="Idieresis" horiz-adv-x="311" unicode="Ï"/><glyph d="M290 621q159 0 252 -73t93 -232q0 -88 -30.5 -152t-81 -98t-104 -49t-111.5 -15q-19 0 -77 3t-84 3q-48 0 -117 -8v28q34 6 50 18.5t16 38.5v210h-65v31h65v210q0 27 -15.5 39t-50.5 18v28h260zM293 37q110 0 162 77.5t52 201.5q0 126 -53.5 198t-159.5 72h-17 q-33 0 -47.5 -11t-14.5 -39v-210h112v-31h-112v-210q0 -48 78 -48z" glyph-name="Eth" horiz-adv-x="675" unicode="Ð"/><glyph d="M229 777q-19 0 -32 -12t-13 -34h-28q0 54 29 84t76 30q44 0 108.5 -33.5t85.5 -33.5q19 0 32 11.5t13 34.5h28q0 -54 -28.5 -83.5t-76.5 -29.5q-44 0 -108.5 33t-85.5 33zM473 621h181v-28q-34 -6 -49.5 -18t-15.5 -39v-536h-47l-396 487v-402q0 -27 15.5 -39t49.5 -18 v-28h-181v28q34 6 50 18.5t16 38.5v451q0 27 -15.5 39t-50.5 18v28h152l356 -438v353q0 27 -15.5 39t-49.5 18v28z" glyph-name="Ntilde" horiz-adv-x="684" unicode="Ñ"/><glyph d="M389 737l-96 108q-45 50 -79 13q-17 -20 -8.5 -41.5t37.5 -39.5l120 -71q22 -13 32 0t-6 31zM349 -10q-133 0 -226 88.5t-93 229.5q0 144 96.5 236.5t235.5 92.5q133 0 226 -88.5t93 -227.5q0 -146 -96.5 -238.5t-235.5 -92.5zM377 31q71 0 122 60t51 184 q0 139 -62.5 230t-153.5 91q-71 0 -122 -59.5t-51 -182.5q0 -140 62.5 -231.5t153.5 -91.5z" glyph-name="Ograve" horiz-adv-x="711" unicode="Ò"/><glyph d="M319 737q-16 -19 -6 -31q10 -13 32 0l120 71q29 18 38 39.5t-8 41.5q-35 37 -80 -13zM349 -10q-133 0 -226 88.5t-93 229.5q0 144 96.5 236.5t235.5 92.5q133 0 226 -88.5t93 -227.5q0 -146 -96.5 -238.5t-235.5 -92.5zM377 31q71 0 122 60t51 184q0 139 -62.5 230 t-153.5 91q-71 0 -122 -59.5t-51 -182.5q0 -140 62.5 -231.5t153.5 -91.5z" glyph-name="Oacute" horiz-adv-x="711" unicode="Ó"/><glyph d="M346 880l135 -153l-17 -18l-118 81l-119 -81l-17 18zM349 -10q-133 0 -226 88.5t-93 229.5q0 144 96.5 236.5t235.5 92.5q133 0 226 -88.5t93 -227.5q0 -146 -96.5 -238.5t-235.5 -92.5zM377 31q71 0 122 60t51 184q0 139 -62.5 230t-153.5 91q-71 0 -122 -59.5 t-51 -182.5q0 -140 62.5 -231.5t153.5 -91.5z" glyph-name="Ocircumflex" horiz-adv-x="711" unicode="Ô"/><glyph d="M427 711q-44 0 -108.5 33t-85.5 33q-19 0 -32 -12t-13 -34h-28q0 54 29 84t76 30q44 0 108.5 -33.5t85.5 -33.5q19 0 32 11.5t13 34.5h28q0 -54 -28.5 -83.5t-76.5 -29.5zM349 -10q-133 0 -226 88.5t-93 229.5q0 144 96.5 236.5t235.5 92.5q133 0 226 -88.5t93 -227.5 q0 -146 -96.5 -238.5t-235.5 -92.5zM377 31q71 0 122 60t51 184q0 139 -62.5 230t-153.5 91q-71 0 -122 -59.5t-51 -182.5q0 -140 62.5 -231.5t153.5 -91.5z" glyph-name="Otilde" horiz-adv-x="711" unicode="Õ"/><glyph d="M244 713q-26 0 -44.5 18.5t-18.5 44.5t18.5 44.5t44.5 18.5t44.5 -18.5t18.5 -44.5t-18.5 -44.5t-44.5 -18.5zM447 713q-26 0 -44.5 18.5t-18.5 44.5t18.5 44.5t44.5 18.5t44.5 -18.5t18.5 -44.5t-18.5 -44.5t-44.5 -18.5zM349 -10q-133 0 -226 88.5t-93 229.5 q0 144 96.5 236.5t235.5 92.5q133 0 226 -88.5t93 -227.5q0 -146 -96.5 -238.5t-235.5 -92.5zM377 31q71 0 122 60t51 184q0 139 -62.5 230t-153.5 91q-71 0 -122 -59.5t-51 -182.5q0 -140 62.5 -231.5t153.5 -91.5z" glyph-name="Odieresis" horiz-adv-x="711" unicode="Ö"/><glyph d="M337 371l-119 -119l118 -119l-24 -25l-119 119l-118 -118l-24 24l118 118l-119 119l24 25l120 -119l119 119z" glyph-name="multiply" horiz-adv-x="387" unicode="×"/><glyph d="M576 559q105 -90 105 -238q0 -146 -96.5 -238.5t-235.5 -92.5q-109 0 -193 61l-40 -49l-17 14l40 48q-109 92 -109 244q0 144 96.5 236.5t235.5 92.5q111 0 197 -64l36 44l17 -14zM161 354q0 -117 47 -206l286 347q-64 101 -160 101q-71 0 -122 -59.5t-51 -182.5zM377 31 q71 0 122 60t51 184q0 113 -44 199l-286 -346q62 -97 157 -97z" glyph-name="Oslash" horiz-adv-x="711" unicode="Ø"/><glyph d="M403 737l-96 108q-45 50 -79 13q-17 -20 -8.5 -41.5t37.5 -39.5l120 -71q22 -13 32 0t-6 31zM348 -10q-117 0 -187 67.5t-70 201.5v277q0 27 -15.5 39t-50.5 18v28h251v-28q-35 -6 -50.5 -18t-15.5 -39v-261q0 -116 43 -172t121 -56q76 0 124.5 53.5t48.5 168.5v267 q0 27 -17 39t-53 18v28h187v-28q-35 -6 -52 -18t-17 -39v-281q0 -126 -63.5 -195.5t-183.5 -69.5z" glyph-name="Ugrave" horiz-adv-x="689" unicode="Ù"/><glyph d="M334 737q-16 -19 -6 -31q10 -13 32 0l120 71q29 18 38 39.5t-8 41.5q-35 37 -80 -13zM348 -10q-117 0 -187 67.5t-70 201.5v277q0 27 -15.5 39t-50.5 18v28h251v-28q-35 -6 -50.5 -18t-15.5 -39v-261q0 -116 43 -172t121 -56q76 0 124.5 53.5t48.5 168.5v267q0 27 -17 39 t-53 18v28h187v-28q-35 -6 -52 -18t-17 -39v-281q0 -126 -63.5 -195.5t-183.5 -69.5z" glyph-name="Uacute" horiz-adv-x="689" unicode="Ú"/><glyph d="M361 880l135 -153l-17 -18l-118 81l-119 -81l-17 18zM348 -10q-117 0 -187 67.5t-70 201.5v277q0 27 -15.5 39t-50.5 18v28h251v-28q-35 -6 -50.5 -18t-15.5 -39v-261q0 -116 43 -172t121 -56q76 0 124.5 53.5t48.5 168.5v267q0 27 -17 39t-53 18v28h187v-28 q-35 -6 -52 -18t-17 -39v-281q0 -126 -63.5 -195.5t-183.5 -69.5z" glyph-name="Ucircumflex" horiz-adv-x="689" unicode="Û"/><glyph d="M259 713q-26 0 -44.5 18.5t-18.5 44.5t18.5 44.5t44.5 18.5t44.5 -18.5t18.5 -44.5t-18.5 -44.5t-44.5 -18.5zM462 713q-26 0 -44.5 18.5t-18.5 44.5t18.5 44.5t44.5 18.5t44.5 -18.5t18.5 -44.5t-18.5 -44.5t-44.5 -18.5zM348 -10q-117 0 -187 67.5t-70 201.5v277 q0 27 -15.5 39t-50.5 18v28h251v-28q-35 -6 -50.5 -18t-15.5 -39v-261q0 -116 43 -172t121 -56q76 0 124.5 53.5t48.5 168.5v267q0 27 -17 39t-53 18v28h187v-28q-35 -6 -52 -18t-17 -39v-281q0 -126 -63.5 -195.5t-183.5 -69.5z" glyph-name="Udieresis" horiz-adv-x="689" unicode="Ü"/><glyph d="M303 737q-16 -19 -6 -31q10 -13 32 0l120 71q29 18 38 39.5t-8 41.5q-35 37 -80 -13zM185 0v28q48 5 66.5 17.5t18.5 39.5v148q0 35 -21 67l-124 194q-33 51 -56 72t-54 27v28h254v-28q-37 -6 -44 -23t15 -53l118 -185q7 -12 14 0l116 184q21 35 9.5 54t-50.5 23v28h196 v-28q-33 -4 -56.5 -24t-51.5 -62l-129 -203q-16 -26 -16 -71v-148q0 -27 18.5 -39.5t66.5 -17.5v-28h-290z" glyph-name="Yacute" horiz-adv-x="658" unicode="Ý"/><glyph d="M319 500q128 0 195 -50.5t67 -138.5t-67 -138.5t-195 -50.5h-49q-28 0 -40.5 -10t-14.5 -34q2 -23 17.5 -33.5t48.5 -16.5v-28h-251v28q34 6 50 18.5t16 38.5v451q0 27 -15.5 39t-50.5 18v28h251v-28q-33 -6 -48.5 -16t-17.5 -33q2 -23 14.5 -33.5t40.5 -10.5h49z M319 165q141 0 141 146t-141 146h-49q-30 0 -42.5 -12.5t-12.5 -40.5v-186q0 -28 12.5 -40.5t42.5 -12.5h49z" glyph-name="Thorn" horiz-adv-x="606" unicode="Þ"/><glyph d="M389 343q64 -11 109 -52t45 -110q0 -86 -75 -134t-197 -48v34q159 6 159 150q0 136 -159 136v33q48 0 83 33.5t35 96.5q0 50 -25 86t-84 36q-52 0 -72 -37t-20 -111v-379q0 -82 -80 -82q-47 0 -88 26v28q34 -8 48.5 0t14.5 34v372q0 84 61 133t153 49q91 0 142 -44.5 t51 -110.5q0 -95 -101 -139z" glyph-name="germandbls" horiz-adv-x="578" unicode="ß"/><glyph d="M292 567l-96 108q-45 50 -79 13q-17 -20 -8.5 -41.5t37.5 -39.5l120 -71q22 -13 32 0t-6 31zM161 -6q-56 0 -93.5 27.5t-37.5 82.5q0 63 61 101t210 58q18 2 25 9.5t7 24.5v16q0 114 -95 114q-70 0 -70 -73q0 -28 -15.5 -42.5t-40.5 -14.5q-24 0 -37.5 14.5t-13.5 36.5 q0 51 65 81.5t149 30.5q87 0 125 -40t38 -135v-203q0 -49 50 -38v-28q-27 -21 -75 -21q-36 0 -56.5 18.5t-22.5 50.5q0 5 -3 7.5t-6.5 1t-7.5 -6.5q-59 -72 -156 -72zM217 53q48 0 82 31t34 75v41q0 19 -8.5 26.5t-31.5 5.5q-85 -9 -119.5 -38t-34.5 -65q0 -32 20 -54 t58 -22z" glyph-name="agrave" horiz-adv-x="508" unicode="à"/><glyph d="M223 567q-16 -19 -6 -31q10 -13 32 0l120 71q29 18 38 39.5t-8 41.5q-35 37 -80 -13zM161 -6q-56 0 -93.5 27.5t-37.5 82.5q0 63 61 101t210 58q18 2 25 9.5t7 24.5v16q0 114 -95 114q-70 0 -70 -73q0 -28 -15.5 -42.5t-40.5 -14.5q-24 0 -37.5 14.5t-13.5 36.5 q0 51 65 81.5t149 30.5q87 0 125 -40t38 -135v-203q0 -49 50 -38v-28q-27 -21 -75 -21q-36 0 -56.5 18.5t-22.5 50.5q0 5 -3 7.5t-6.5 1t-7.5 -6.5q-59 -72 -156 -72zM217 53q48 0 82 31t34 75v41q0 19 -8.5 26.5t-31.5 5.5q-85 -9 -119.5 -38t-34.5 -65q0 -32 20 -54 t58 -22z" glyph-name="aacute" horiz-adv-x="508" unicode="á"/><glyph d="M250 710l135 -153l-17 -18l-118 81l-119 -81l-17 18zM161 -6q-56 0 -93.5 27.5t-37.5 82.5q0 63 61 101t210 58q18 2 25 9.5t7 24.5v16q0 114 -95 114q-70 0 -70 -73q0 -28 -15.5 -42.5t-40.5 -14.5q-24 0 -37.5 14.5t-13.5 36.5q0 51 65 81.5t149 30.5q87 0 125 -40 t38 -135v-203q0 -49 50 -38v-28q-27 -21 -75 -21q-36 0 -56.5 18.5t-22.5 50.5q0 5 -3 7.5t-6.5 1t-7.5 -6.5q-59 -72 -156 -72zM217 53q48 0 82 31t34 75v41q0 19 -8.5 26.5t-31.5 5.5q-85 -9 -119.5 -38t-34.5 -65q0 -32 20 -54t58 -22z" glyph-name="acircumflex" horiz-adv-x="508" unicode="â"/><glyph d="M331 541q-44 0 -108.5 33t-85.5 33q-19 0 -32 -12t-13 -34h-28q0 54 29 84t76 30q44 0 108.5 -33.5t85.5 -33.5q19 0 32 11.5t13 34.5h28q0 -54 -28.5 -83.5t-76.5 -29.5zM161 -6q-56 0 -93.5 27.5t-37.5 82.5q0 63 61 101t210 58q18 2 25 9.5t7 24.5v16q0 114 -95 114 q-70 0 -70 -73q0 -28 -15.5 -42.5t-40.5 -14.5q-24 0 -37.5 14.5t-13.5 36.5q0 51 65 81.5t149 30.5q87 0 125 -40t38 -135v-203q0 -49 50 -38v-28q-27 -21 -75 -21q-36 0 -56.5 18.5t-22.5 50.5q0 5 -3 7.5t-6.5 1t-7.5 -6.5q-59 -72 -156 -72zM217 53q48 0 82 31t34 75v41 q0 19 -8.5 26.5t-31.5 5.5q-85 -9 -119.5 -38t-34.5 -65q0 -32 20 -54t58 -22z" glyph-name="atilde" horiz-adv-x="508" unicode="ã"/><glyph d="M148 543q-26 0 -44.5 18.5t-18.5 44.5t18.5 44.5t44.5 18.5t44.5 -18.5t18.5 -44.5t-18.5 -44.5t-44.5 -18.5zM351 543q-26 0 -44.5 18.5t-18.5 44.5t18.5 44.5t44.5 18.5t44.5 -18.5t18.5 -44.5t-18.5 -44.5t-44.5 -18.5zM161 -6q-56 0 -93.5 27.5t-37.5 82.5 q0 63 61 101t210 58q18 2 25 9.5t7 24.5v16q0 114 -95 114q-70 0 -70 -73q0 -28 -15.5 -42.5t-40.5 -14.5q-24 0 -37.5 14.5t-13.5 36.5q0 51 65 81.5t149 30.5q87 0 125 -40t38 -135v-203q0 -49 50 -38v-28q-27 -21 -75 -21q-36 0 -56.5 18.5t-22.5 50.5q0 5 -3 7.5t-6.5 1 t-7.5 -6.5q-59 -72 -156 -72zM217 53q48 0 82 31t34 75v41q0 19 -8.5 26.5t-31.5 5.5q-85 -9 -119.5 -38t-34.5 -65q0 -32 20 -54t58 -22z" glyph-name="adieresis" horiz-adv-x="508" unicode="ä"/><glyph d="M250 544q-41 0 -69 27.5t-28 66.5t28 66.5t69 27.5t69 -27.5t28 -66.5t-28 -66.5t-69 -27.5zM250 591q20 0 33 13t13 34q0 20 -13 34t-33 14t-33 -14t-13 -34q0 -21 13 -34t33 -13zM161 -6q-56 0 -93.5 27.5t-37.5 82.5q0 63 61 101t210 58q18 2 25 9.5t7 24.5v16 q0 114 -95 114q-70 0 -70 -73q0 -28 -15.5 -42.5t-40.5 -14.5q-24 0 -37.5 14.5t-13.5 36.5q0 51 65 81.5t149 30.5q87 0 125 -40t38 -135v-203q0 -49 50 -38v-28q-27 -21 -75 -21q-36 0 -56.5 18.5t-22.5 50.5q0 5 -3 7.5t-6.5 1t-7.5 -6.5q-59 -72 -156 -72zM217 53 q48 0 82 31t34 75v41q0 19 -8.5 26.5t-31.5 5.5q-85 -9 -119.5 -38t-34.5 -65q0 -32 20 -54t58 -22z" glyph-name="aring" horiz-adv-x="508" unicode="å"/><glyph d="M623 58q72 0 115 53l21 -18q-19 -36 -68 -67.5t-121 -31.5q-114 0 -181 76q-37 32 -64 0t-71 -54t-93 -22q-56 0 -93.5 27.5t-37.5 82.5q0 63 61 102t210 58q18 2 25 9t7 24v16q0 114 -95 114q-70 0 -70 -73q0 -28 -15.5 -42.5t-40.5 -14.5q-24 0 -37.5 14.5t-13.5 36.5 q0 51 65 81.5t149 30.5q103 0 134 -59q68 59 167 59q81 0 133.5 -41.5t52.5 -105.5q0 -51 -41 -69t-135 -21l-113 -3q-26 -1 -18 -39q19 -58 63.5 -90.5t104.5 -32.5zM561 427q-54 0 -83.5 -37.5t-33.5 -101.5q0 -21 7.5 -29.5t25.5 -8.5l67 1q64 0 90.5 18t26.5 54 q0 45 -27 74.5t-73 29.5zM333 159v41q0 19 -8.5 26.5t-31.5 4.5q-85 -9 -119 -37t-34 -62q0 -31 21.5 -52t56.5 -21q51 0 83 29t32 71z" glyph-name="ae" horiz-adv-x="797" unicode="æ"/><glyph d="M461 93q-16 -31 -55.5 -60t-96.5 -37l-20 -42q41 5 73.5 -18t32.5 -62q0 -44 -38 -70t-89 -26q-52 0 -83 21t-31 50q0 28 24 38t47 -12q0 -25 10 -46t35 -21t39 20.5t14 47.5q0 50 -42 50q-9 0 -23.5 -4t-21.5 -4q-15 0 -20 9t2 23l22 46q-89 11 -149.5 72t-60.5 157 q0 109 75 172t176 63q76 0 125.5 -38t49.5 -85q0 -24 -13 -40.5t-39 -16.5q-25 0 -40.5 15.5t-15.5 37.5q0 39 -19 66.5t-66 27.5q-57 0 -89.5 -44.5t-32.5 -116.5q0 -95 52.5 -151.5t133.5 -56.5q69 0 112 53z" glyph-name="ccedilla" horiz-adv-x="496" unicode="ç"/><glyph d="M143 607q-29 18 -37.5 39.5t8.5 41.5q34 37 79 -13l96 -108q16 -18 6 -31t-32 0zM320 58q72 0 115 53l22 -18q-19 -36 -68.5 -67.5t-121.5 -31.5q-99 0 -168 62t-69 169q0 110 72 172.5t171 62.5q81 0 133.5 -41.5t52.5 -105.5q0 -51 -41 -69t-135 -21l-112 -3 q-27 -1 -19 -39q19 -58 63.5 -90.5t104.5 -32.5zM258 427q-52 0 -81.5 -34.5t-35.5 -96.5l1 1q-2 -26 6 -36.5t27 -10.5l66 1q65 0 91 18t26 54q0 45 -26.5 74.5t-73.5 29.5z" glyph-name="egrave" horiz-adv-x="494" unicode="è"/><glyph d="M246 536q-22 -13 -32 0q-10 12 6 31l96 108q45 50 80 13q17 -20 8 -41.5t-38 -39.5zM320 58q72 0 115 53l22 -18q-19 -36 -68.5 -67.5t-121.5 -31.5q-99 0 -168 62t-69 169q0 110 72 172.5t171 62.5q81 0 133.5 -41.5t52.5 -105.5q0 -51 -41 -69t-135 -21l-112 -3 q-27 -1 -19 -39q19 -58 63.5 -90.5t104.5 -32.5zM258 427q-52 0 -81.5 -34.5t-35.5 -96.5l1 1q-2 -26 6 -36.5t27 -10.5l66 1q65 0 91 18t26 54q0 45 -26.5 74.5t-73.5 29.5z" glyph-name="eacute" horiz-adv-x="494" unicode="é"/><glyph d="M247 620l-119 -81l-17 18l136 153l135 -153l-17 -18zM320 58q72 0 115 53l22 -18q-19 -36 -68.5 -67.5t-121.5 -31.5q-99 0 -168 62t-69 169q0 110 72 172.5t171 62.5q81 0 133.5 -41.5t52.5 -105.5q0 -51 -41 -69t-135 -21l-112 -3q-27 -1 -19 -39q19 -58 63.5 -90.5 t104.5 -32.5zM258 427q-52 0 -81.5 -34.5t-35.5 -96.5l1 1q-2 -26 6 -36.5t27 -10.5l66 1q65 0 91 18t26 54q0 45 -26.5 74.5t-73.5 29.5z" glyph-name="ecircumflex" horiz-adv-x="494" unicode="ê"/><glyph d="M145 543q-26 0 -44.5 18.5t-18.5 44.5t18.5 44.5t44.5 18.5t44.5 -18.5t18.5 -44.5t-18.5 -44.5t-44.5 -18.5zM348 543q-26 0 -44.5 18.5t-18.5 44.5t18.5 44.5t44.5 18.5t44.5 -18.5t18.5 -44.5t-18.5 -44.5t-44.5 -18.5zM320 58q72 0 115 53l22 -18 q-19 -36 -68.5 -67.5t-121.5 -31.5q-99 0 -168 62t-69 169q0 110 72 172.5t171 62.5q81 0 133.5 -41.5t52.5 -105.5q0 -51 -41 -69t-135 -21l-112 -3q-27 -1 -19 -39q19 -58 63.5 -90.5t104.5 -32.5zM258 427q-52 0 -81.5 -34.5t-35.5 -96.5l1 1q-2 -26 6 -36.5t27 -10.5 l66 1q65 0 91 18t26 54q0 45 -26.5 74.5t-73.5 29.5z" glyph-name="edieresis" horiz-adv-x="494" unicode="ë"/><glyph d="M174 567l-96 108q-45 50 -79 13q-17 -20 -8.5 -41.5t37.5 -39.5l120 -71q22 -13 32 0t-6 31zM25 0v29q36 3 50 15.5t14 42.5v262q0 34 -14 46.5t-50 8.5v28l129 26q40 8 40 -33v-338q0 -30 14 -42.5t50 -15.5v-29h-233z" glyph-name="igrave" horiz-adv-x="283" unicode="ì"/><glyph d="M105 567q-16 -19 -6 -31q10 -13 32 0l120 71q29 18 38 39.5t-8 41.5q-35 37 -80 -13zM25 0v29q36 3 50 15.5t14 42.5v262q0 34 -14 46.5t-50 8.5v28l129 26q40 8 40 -33v-338q0 -30 14 -42.5t50 -15.5v-29h-233z" glyph-name="iacute" horiz-adv-x="283" unicode="í"/><glyph d="M132 710l135 -153l-17 -18l-118 81l-119 -81l-17 18zM25 0v29q36 3 50 15.5t14 42.5v262q0 34 -14 46.5t-50 8.5v28l129 26q40 8 40 -33v-338q0 -30 14 -42.5t50 -15.5v-29h-233z" glyph-name="icircumflex" horiz-adv-x="283" unicode="î"/><glyph d="M30 543q-26 0 -44.5 18.5t-18.5 44.5t18.5 44.5t44.5 18.5t44.5 -18.5t18.5 -44.5t-18.5 -44.5t-44.5 -18.5zM233 543q-26 0 -44.5 18.5t-18.5 44.5t18.5 44.5t44.5 18.5t44.5 -18.5t18.5 -44.5t-18.5 -44.5t-44.5 -18.5zM25 0v29q36 3 50 15.5t14 42.5v262 q0 34 -14 46.5t-50 8.5v28l129 26q40 8 40 -33v-338q0 -30 14 -42.5t50 -15.5v-29h-233z" glyph-name="idieresis" horiz-adv-x="283" unicode="ï"/><glyph d="M490 83q0 -26 14.5 -34t49.5 0v-28q-41 -26 -88 -26q-78 0 -81 75q-60 -76 -156 -76q-84 0 -141.5 61t-57.5 164q0 111 65 176t154 65q27 0 52.5 -6.5t39 -12.5t25 -8.5t15.5 4.5t4 28v31q0 18 -3 33l-98 -27l-6 23l98 27q-28 72 -127 69v30q32 0 46 -0.5t43.5 -4t47 -11 t38 -23t33.5 -37.5l78 22l6 -23l-73 -21q22 -50 22 -134v-336zM282 58q41 0 72 25.5t31 81.5v107q0 73 -41.5 112t-92.5 39q-53 0 -82 -44t-29 -116q0 -86 39.5 -145.5t102.5 -59.5z" glyph-name="eth" horiz-adv-x="569" unicode="ð"/><glyph d="M373 541q-44 0 -108.5 33t-85.5 33q-19 0 -32 -12t-13 -34h-28q0 54 29 84t76 30q44 0 108.5 -33.5t85.5 -33.5q19 0 32 11.5t13 34.5h28q0 -54 -28.5 -83.5t-76.5 -29.5zM483 -5q-79 0 -79 77v194q0 58 -26 93t-74 35q-50 0 -80 -36t-30 -92v-179q0 -30 14 -42.5 t50 -15.5v-29h-233v29q36 3 50 15.5t14 42.5v262q0 34 -14 46.5t-50 8.5v28l129 26q40 8 40 -31t16 -39q6 1 11 7q63 66 143 66q62 0 103.5 -40t41.5 -131v-208q0 -48 51 -38v-28q-31 -21 -77 -21z" glyph-name="ntilde" horiz-adv-x="580" unicode="ñ"/><glyph d="M311 567l-96 108q-45 50 -79 13q-17 -20 -8.5 -41.5t37.5 -39.5l120 -71q22 -13 32 0t-6 31zM268 -6q-98 0 -168 62.5t-70 170.5t70 170.5t168 62.5t168 -62.5t70 -170.5t-70 -170.5t-168 -62.5zM289 28q48 0 76.5 41.5t28.5 121.5q0 97 -42 166t-105 69 q-48 0 -76.5 -41.5t-28.5 -121.5q0 -97 42 -166t105 -69z" glyph-name="ograve" horiz-adv-x="536" unicode="ò"/><glyph d="M241 567q-16 -19 -6 -31q10 -13 32 0l120 71q29 18 38 39.5t-8 41.5q-35 37 -80 -13zM268 -6q-98 0 -168 62.5t-70 170.5t70 170.5t168 62.5t168 -62.5t70 -170.5t-70 -170.5t-168 -62.5zM289 28q48 0 76.5 41.5t28.5 121.5q0 97 -42 166t-105 69q-48 0 -76.5 -41.5 t-28.5 -121.5q0 -97 42 -166t105 -69z" glyph-name="oacute" horiz-adv-x="536" unicode="ó"/><glyph d="M269 710l135 -153l-17 -18l-118 81l-119 -81l-17 18zM268 -6q-98 0 -168 62.5t-70 170.5t70 170.5t168 62.5t168 -62.5t70 -170.5t-70 -170.5t-168 -62.5zM289 28q48 0 76.5 41.5t28.5 121.5q0 97 -42 166t-105 69q-48 0 -76.5 -41.5t-28.5 -121.5q0 -97 42 -166t105 -69 z" glyph-name="ocircumflex" horiz-adv-x="536" unicode="ô"/><glyph d="M350 541q-44 0 -108.5 33t-85.5 33q-19 0 -32 -12t-13 -34h-28q0 54 29 84t76 30q44 0 108.5 -33.5t85.5 -33.5q19 0 32 11.5t13 34.5h28q0 -54 -28.5 -83.5t-76.5 -29.5zM268 -6q-98 0 -168 62.5t-70 170.5t70 170.5t168 62.5t168 -62.5t70 -170.5t-70 -170.5 t-168 -62.5zM289 28q48 0 76.5 41.5t28.5 121.5q0 97 -42 166t-105 69q-48 0 -76.5 -41.5t-28.5 -121.5q0 -97 42 -166t105 -69z" glyph-name="otilde" horiz-adv-x="536" unicode="õ"/><glyph d="M167 543q-26 0 -44.5 18.5t-18.5 44.5t18.5 44.5t44.5 18.5t44.5 -18.5t18.5 -44.5t-18.5 -44.5t-44.5 -18.5zM370 543q-26 0 -44.5 18.5t-18.5 44.5t18.5 44.5t44.5 18.5t44.5 -18.5t18.5 -44.5t-18.5 -44.5t-44.5 -18.5zM268 -6q-98 0 -168 62.5t-70 170.5t70 170.5 t168 62.5t168 -62.5t70 -170.5t-70 -170.5t-168 -62.5zM289 28q48 0 76.5 41.5t28.5 121.5q0 97 -42 166t-105 69q-48 0 -76.5 -41.5t-28.5 -121.5q0 -97 42 -166t105 -69z" glyph-name="odieresis" horiz-adv-x="536" unicode="ö"/><glyph d="M236 353q-22 0 -37 15t-15 37q0 21 15 36t37 15q20 0 35.5 -15t15.5 -36t-15.5 -36.5t-35.5 -15.5zM50 269h370v-35h-370v35zM236 47q-22 0 -37 15t-15 37q0 21 15 36t37 15q20 0 35.5 -15t15.5 -36t-15.5 -36.5t-35.5 -15.5z" glyph-name="divide" horiz-adv-x="470" unicode="÷"/><glyph d="M429 404q77 -67 77 -177q0 -108 -70 -170.5t-168 -62.5q-79 0 -143 42l-28 -34l-17 14l28 34q-78 65 -78 177q0 108 70 170.5t168 62.5q80 0 143 -43l28 34l17 -14zM142 263q0 -75 27 -139l187 226q-42 76 -109 76q-48 0 -76.5 -41.5t-28.5 -121.5zM289 28 q48 0 76.5 41.5t28.5 121.5q0 76 -27 138l-187 -226q42 -75 109 -75z" glyph-name="oslash" horiz-adv-x="536" unicode="ø"/><glyph d="M352 567l-96 108q-44 49 -79 13q-17 -20 -8.5 -41.5t38.5 -39.5l119 -71q22 -13 33 0q9 13 -7 31zM235 -6q-63 0 -104.5 40t-41.5 131v184q0 34 -14 46.5t-50 8.5v28l129 26q40 8 40 -33v-236q0 -58 26 -93t74 -35q50 0 80 36t30 92v160q0 34 -14 46.5t-50 8.5v28l128 26 q41 8 41 -33v-343q0 -48 51 -38v-28q-27 -21 -76 -21q-65 0 -78 61q-2 16 -11 16q-4 0 -13 -9q-57 -69 -147 -69z" glyph-name="ugrave" horiz-adv-x="585" unicode="ù"/><glyph d="M255 567q-16 -18 -6 -31t32 0l119 71q30 18 38.5 39.5t-8.5 41.5q-34 37 -79 -13zM235 -6q-63 0 -104.5 40t-41.5 131v184q0 34 -14 46.5t-50 8.5v28l129 26q40 8 40 -33v-236q0 -58 26 -93t74 -35q50 0 80 36t30 92v160q0 34 -14 46.5t-50 8.5v28l128 26q41 8 41 -33 v-343q0 -48 51 -38v-28q-27 -21 -76 -21q-65 0 -78 61q-2 16 -11 16q-4 0 -13 -9q-57 -69 -147 -69z" glyph-name="uacute" horiz-adv-x="585" unicode="ú"/><glyph d="M277 710l136 -153l-17 -18l-119 81l-118 -81l-17 18zM235 -6q-63 0 -104.5 40t-41.5 131v184q0 34 -14 46.5t-50 8.5v28l129 26q40 8 40 -33v-236q0 -58 26 -93t74 -35q50 0 80 36t30 92v160q0 34 -14 46.5t-50 8.5v28l128 26q41 8 41 -33v-343q0 -48 51 -38v-28 q-27 -21 -76 -21q-65 0 -78 61q-2 16 -11 16q-4 0 -13 -9q-57 -69 -147 -69z" glyph-name="ucircumflex" horiz-adv-x="585" unicode="û"/><glyph d="M156 543q-26 0 -44.5 18.5t-18.5 44.5t18.5 44.5t44.5 18.5t44.5 -18.5t18.5 -44.5t-18.5 -44.5t-44.5 -18.5zM360 543q-26 0 -44.5 18.5t-18.5 44.5t18.5 44.5t44.5 18.5t44 -18.5t18 -44.5t-18 -44.5t-44 -18.5zM235 -6q-63 0 -104.5 40t-41.5 131v184q0 34 -14 46.5 t-50 8.5v28l129 26q40 8 40 -33v-236q0 -58 26 -93t74 -35q50 0 80 36t30 92v160q0 34 -14 46.5t-50 8.5v28l128 26q41 8 41 -33v-343q0 -48 51 -38v-28q-27 -21 -76 -21q-65 0 -78 61q-2 16 -11 16q-4 0 -13 -9q-57 -69 -147 -69z" glyph-name="udieresis" horiz-adv-x="585" unicode="ü"/><glyph d="M245 567q-16 -19 -6 -31q10 -13 32 0l120 71q29 18 38 39.5t-8 41.5q-35 37 -80 -13zM134 -198q-43 0 -69.5 19.5t-26.5 50.5q0 23 15.5 39t40.5 16q23 0 34 -13.5t12.5 -29.5t8 -29.5t21.5 -13.5q29 0 50 58q22 54 -6 123l-123 312q-17 43 -32.5 60t-48.5 28v29h222v-29 q-40 -11 -45.5 -27.5t13.5 -60.5l89 -218q3 -9 8 -12t9.5 0t7.5 12l46 119q30 77 35 115t-6.5 51t-45.5 21v29h188v-29q-43 -11 -61 -27.5t-36 -60.5l-158 -400q-28 -71 -58.5 -101.5t-83.5 -30.5z" glyph-name="yacute" horiz-adv-x="541" unicode="ý"/><glyph d="M10 -190v29q36 3 50 15.5t14 42.5v649q0 34 -13.5 46t-50.5 9v28l129 25q40 8 40 -32v-206q0 -9 6.5 -11.5t14.5 6.5q18 18 54.5 33.5t81.5 15.5q84 0 141.5 -61.5t57.5 -164.5q0 -111 -64.5 -175.5t-152.5 -64.5q-26 0 -51 6t-39.5 12.5t-26.5 10t-17 -1t-5 -20.5v-104 q0 -30 14 -42.5t50 -15.5v-29h-233zM314 31q53 0 82.5 43.5t29.5 116.5q0 87 -38.5 146t-100.5 59q-44 0 -76 -28.5t-32 -94.5v-102q0 -69 42 -104.5t93 -35.5z" glyph-name="thorn" horiz-adv-x="565" unicode="þ"/><glyph d="M170 543q-26 0 -44.5 18.5t-18.5 44.5t18.5 44.5t44.5 18.5t44.5 -18.5t18.5 -44.5t-18.5 -44.5t-44.5 -18.5zM373 543q-26 0 -44.5 18.5t-18.5 44.5t18.5 44.5t44.5 18.5t44.5 -18.5t18.5 -44.5t-18.5 -44.5t-44.5 -18.5zM134 -198q-43 0 -69.5 19.5t-26.5 50.5 q0 23 15.5 39t40.5 16q23 0 34 -13.5t12.5 -29.5t8 -29.5t21.5 -13.5q29 0 50 58q22 54 -6 123l-123 312q-17 43 -32.5 60t-48.5 28v29h222v-29q-40 -11 -45.5 -27.5t13.5 -60.5l89 -218q3 -9 8 -12t9.5 0t7.5 12l46 119q30 77 35 115t-6.5 51t-45.5 21v29h188v-29 q-43 -11 -61 -27.5t-36 -60.5l-158 -400q-28 -71 -58.5 -101.5t-83.5 -30.5z" glyph-name="ydieresis" horiz-adv-x="541" unicode="ÿ"/><glyph d="M218 754q-19 0 -19 16v24q0 16 19 16h285q19 0 19 -16v-24q0 -16 -19 -16h-285zM605 138q16 -36 22 -48t18 -29.5t24 -23.5t31 -9v-28h-251v28q43 7 51 26t-8 49l-21 48q-17 29 -56 29h-176q-41 0 -58 -31l-17 -40q-29 -67 66 -81v-28h-210v28q38 8 58.5 27t37.5 59 l181 416q23 55 23 91l68 7zM415 219q10 0 14 6t0 19l27 -60l-121 275q-11 23 -20 -1l-96 -223l3 8q-5 -11 0 -17.5t14 -6.5h179z" glyph-name="Amacron" unicode="Ā"/><glyph d="M99 624q0 16 19 16h285q19 0 19 -16v-24q0 -16 -19 -16h-285q-19 0 -19 16v24zM161 -6q-56 0 -93.5 27.5t-37.5 82.5q0 63 61 101t210 58q18 2 25 9.5t7 24.5v16q0 114 -95 114q-70 0 -70 -73q0 -28 -15.5 -42.5t-40.5 -14.5q-24 0 -37.5 14.5t-13.5 36.5q0 51 65 81.5 t149 30.5q87 0 125 -40t38 -135v-203q0 -49 50 -38v-28q-27 -21 -75 -21q-36 0 -56.5 18.5t-22.5 50.5q0 5 -3 7.5t-6.5 1t-7.5 -6.5q-59 -72 -156 -72zM217 53q48 0 82 31t34 75v41q0 19 -8.5 26.5t-31.5 5.5q-85 -9 -119.5 -38t-34.5 -65q0 -32 20 -54t58 -22z" glyph-name="amacron" horiz-adv-x="508" unicode="ā"/><glyph d="M349 722q-62 0 -101 35t-39 93q0 11 9 11h20q9 0 10 -10q7 -26 32.5 -43t68.5 -17t68.5 17t31.5 43q3 10 10 10h21q9 0 9 -11q0 -58 -39 -93t-101 -35zM605 138q16 -36 22 -48t18 -29.5t24 -23.5t31 -9v-28h-251v28q43 7 51 26t-8 49l-21 48q-17 29 -56 29h-176 q-41 0 -58 -31l-17 -40q-29 -67 66 -81v-28h-210v28q38 8 58.5 27t37.5 59l181 416q23 55 23 91l68 7zM415 219q10 0 14 6t0 19l27 -60l-121 275q-11 23 -20 -1l-96 -223l3 8q-5 -11 0 -17.5t14 -6.5h179z" glyph-name="Abreve" unicode="Ă"/><glyph d="M250 552q-62 0 -101 35t-39 93q0 11 9 11h20q9 0 10 -10q7 -26 32.5 -43t68.5 -17t68.5 17t31.5 43q3 10 10 10h21q9 0 9 -11q0 -58 -39 -93t-101 -35zM161 -6q-56 0 -93.5 27.5t-37.5 82.5q0 63 61 101t210 58q18 2 25 9.5t7 24.5v16q0 114 -95 114q-70 0 -70 -73 q0 -28 -15.5 -42.5t-40.5 -14.5q-24 0 -37.5 14.5t-13.5 36.5q0 51 65 81.5t149 30.5q87 0 125 -40t38 -135v-203q0 -49 50 -38v-28q-27 -21 -75 -21q-36 0 -56.5 18.5t-22.5 50.5q0 5 -3 7.5t-6.5 1t-7.5 -6.5q-59 -72 -156 -72zM217 53q48 0 82 31t34 75v41 q0 19 -8.5 26.5t-31.5 5.5q-85 -9 -119.5 -38t-34.5 -65q0 -32 20 -54t58 -22z" glyph-name="abreve" horiz-adv-x="508" unicode="ă"/><glyph d="M601 0q-83 -56 -83 -113q0 -24 16 -40t40 -16q53 0 74 55h35q-4 -16 -12.5 -31.5t-24.5 -34.5t-44.5 -30.5t-65.5 -11.5q-47 0 -82 23.5t-35 69.5q0 47 39.5 80.5t88.5 48.5h-98v28q43 7 51 26t-8 49l-21 48q-17 29 -56 29h-176q-41 0 -58 -31l-17 -40q-29 -67 66 -81 v-28h-210v28q38 8 58.5 27t37.5 59l181 416q23 55 23 91l68 7l217 -490q16 -36 22 -48t18 -29.5t24 -23.5t31 -9v-28h-99zM415 219q10 0 14 6t0 19l27 -60l-121 275q-11 23 -20 -1l-96 -223l3 8q-5 -11 0 -17.5t14 -6.5h179z" glyph-name="Aogonek" unicode="Ą"/><glyph d="M436 -3q-102 -29 -102 -97q0 -27 14 -41.5t38 -14.5q44 0 68 58h28q-4 -16 -12 -32t-23.5 -35.5t-43 -31.5t-62.5 -12q-44 0 -75 20.5t-31 66.5q0 90 133 128q-31 16 -34 58q0 5 -3 7.5t-6.5 1t-7.5 -6.5q-59 -72 -156 -72q-56 0 -93.5 27.5t-37.5 82.5q0 63 61 101 t210 58q18 2 25 9.5t7 24.5v16q0 114 -95 114q-70 0 -70 -73q0 -28 -15.5 -42.5t-40.5 -14.5q-24 0 -37.5 14.5t-13.5 36.5q0 51 65 81.5t149 30.5q87 0 125 -40t38 -135v-203q0 -49 50 -38v-28q-18 -14 -52 -19zM333 159v41q0 19 -8.5 26.5t-31.5 5.5q-85 -9 -119.5 -38 t-34.5 -65q0 -32 20 -54t58 -22q48 0 82 31t34 75z" glyph-name="aogonek" horiz-adv-x="508" unicode="ą"/><glyph d="M317 737q-16 -19 -6 -31q10 -13 32 0l120 71q29 18 38 39.5t-8 41.5q-35 37 -80 -13zM361 -10q-136 0 -233.5 87.5t-97.5 232.5q0 149 101.5 238t241.5 89q109 0 175 -50.5t66 -112.5q0 -31 -18 -52.5t-52 -21.5q-31 0 -49 20t-18 52q0 50 -33 90t-99 40 q-83 0 -136 -65.5t-53 -176.5q0 -135 79 -216.5t192 -81.5q97 0 170 81l20 -16q-27 -49 -92.5 -93t-163.5 -44z" glyph-name="Cacute" horiz-adv-x="652" unicode="Ć"/><glyph d="M247 567q-16 -19 -6 -31q10 -13 32 0l120 71q29 18 38 39.5t-8 41.5q-35 37 -80 -13zM275 -6q-100 0 -172.5 62.5t-72.5 168.5q0 109 75 172t176 63q76 0 125.5 -38t49.5 -85q0 -24 -13 -40.5t-39 -16.5q-25 0 -40.5 15.5t-15.5 37.5q0 39 -19 66.5t-66 27.5 q-57 0 -89.5 -44.5t-32.5 -116.5q0 -95 52.5 -151.5t133.5 -56.5q69 0 112 53l22 -18q-19 -36 -67 -67.5t-119 -31.5z" glyph-name="cacute" horiz-adv-x="496" unicode="ć"/><glyph d="M344 713q-26 0 -44.5 18.5t-18.5 44.5t18.5 44.5t44.5 18.5t44.5 -18.5t18.5 -44.5t-18.5 -44.5t-44.5 -18.5zM361 -10q-136 0 -233.5 87.5t-97.5 232.5q0 149 101.5 238t241.5 89q109 0 175 -50.5t66 -112.5q0 -31 -18 -52.5t-52 -21.5q-31 0 -49 20t-18 52q0 50 -33 90 t-99 40q-83 0 -136 -65.5t-53 -176.5q0 -135 79 -216.5t192 -81.5q97 0 170 81l20 -16q-27 -49 -92.5 -93t-163.5 -44z" glyph-name="Cdotaccent" horiz-adv-x="652" unicode="Ċ"/><glyph d="M274 543q-26 0 -44.5 18.5t-18.5 44.5t18.5 44.5t44.5 18.5t44.5 -18.5t18.5 -44.5t-18.5 -44.5t-44.5 -18.5zM275 -6q-100 0 -172.5 62.5t-72.5 168.5q0 109 75 172t176 63q76 0 125.5 -38t49.5 -85q0 -24 -13 -40.5t-39 -16.5q-25 0 -40.5 15.5t-15.5 37.5 q0 39 -19 66.5t-66 27.5q-57 0 -89.5 -44.5t-32.5 -116.5q0 -95 52.5 -151.5t133.5 -56.5q69 0 112 53l22 -18q-19 -36 -67 -67.5t-119 -31.5z" glyph-name="cdotaccent" horiz-adv-x="496" unicode="ċ"/><glyph d="M344 693l-136 153l17 18l119 -81l118 81l17 -18zM361 -10q-136 0 -233.5 87.5t-97.5 232.5q0 149 101.5 238t241.5 89q109 0 175 -50.5t66 -112.5q0 -31 -18 -52.5t-52 -21.5q-31 0 -49 20t-18 52q0 50 -33 90t-99 40q-83 0 -136 -65.5t-53 -176.5q0 -135 79 -216.5 t192 -81.5q97 0 170 81l20 -16q-27 -49 -92.5 -93t-163.5 -44z" glyph-name="Ccaron" horiz-adv-x="652" unicode="Č"/><glyph d="M274 523l-136 153l17 18l119 -81l118 81l17 -18zM275 -6q-100 0 -172.5 62.5t-72.5 168.5q0 109 75 172t176 63q76 0 125.5 -38t49.5 -85q0 -24 -13 -40.5t-39 -16.5q-25 0 -40.5 15.5t-15.5 37.5q0 39 -19 66.5t-66 27.5q-57 0 -89.5 -44.5t-32.5 -116.5 q0 -95 52.5 -151.5t133.5 -56.5q69 0 112 53l22 -18q-19 -36 -67 -67.5t-119 -31.5z" glyph-name="ccaron" horiz-adv-x="496" unicode="č"/><glyph d="M322 693l-136 153l17 18l119 -81l118 81l17 -18zM30 0v28q34 6 50 18.5t16 38.5v451q0 27 -15.5 39t-50.5 18v28h260q159 0 252 -73t93 -232q0 -88 -30.5 -152t-81 -98t-104 -49t-111.5 -15q-19 0 -77 3t-84 3q-48 0 -117 -8zM293 37q110 0 162 77.5t52 201.5 q0 126 -53.5 198t-159.5 72h-17q-33 0 -47.5 -11t-14.5 -39v-451q0 -48 78 -48z" glyph-name="Dcaron" horiz-adv-x="675" unicode="Ď"/><glyph d="M575 660q25 0 36 -16.5t2 -45.5l-30 -93q-9 -25 -30 -25q-24 0 -24 26l1 103q2 51 45 51zM490 83q0 -26 14.5 -34t49.5 0v-28q-41 -26 -88 -26q-78 0 -81 75q-60 -76 -156 -76q-84 0 -141.5 61t-57.5 164q0 111 65 176t154 65q27 0 52.5 -6.5t39 -12.5t25 -8.5t15.5 4.5 t4 28v81q0 34 -13.5 46t-50.5 9v28l129 25q40 8 40 -32v-539zM282 58q41 0 72 25.5t31 81.5v107q0 73 -41.5 112t-92.5 39q-53 0 -82 -44t-29 -116q0 -86 39.5 -145.5t102.5 -59.5z" glyph-name="dcaron" horiz-adv-x="604" unicode="ď"/><glyph d="M290 621q159 0 252 -73t93 -232q0 -88 -30.5 -152t-81 -98t-104 -49t-111.5 -15q-19 0 -77 3t-84 3q-48 0 -117 -8v28q34 6 50 18.5t16 38.5v210h-65v31h65v210q0 27 -15.5 39t-50.5 18v28h260zM293 37q110 0 162 77.5t52 201.5q0 126 -53.5 198t-159.5 72h-17 q-33 0 -47.5 -11t-14.5 -39v-210h112v-31h-112v-210q0 -48 78 -48z" glyph-name="Dcroat" horiz-adv-x="675" unicode="Đ"/><glyph d="M554 505h-64v-422q0 -26 14.5 -34t49.5 0v-28q-41 -26 -88 -26q-78 0 -81 75q-60 -76 -156 -76q-84 0 -141.5 61t-57.5 164q0 111 65 176t154 65q27 0 52.5 -6.5t39 -12.5t25 -8.5t15.5 4.5t4 28v40h-127v31h127v10q0 34 -13.5 46t-50.5 9v28l129 25q40 8 40 -32v-86h64 v-31zM282 58q41 0 72 25.5t31 81.5v107q0 73 -41.5 112t-92.5 39q-53 0 -82 -44t-29 -116q0 -86 39.5 -145.5t102.5 -59.5z" glyph-name="dcroat" horiz-adv-x="569" unicode="đ"/><glyph d="M148 794q0 16 19 16h285q19 0 19 -16v-24q0 -16 -19 -16h-285q-19 0 -19 16v24zM30 0v28q34 6 50 18.5t16 38.5v451q0 27 -15.5 39t-50.5 18v28h473q14 0 15 -11q6 -60 20 -118h-21q-22 47 -51 68t-76 21h-113q-33 0 -47.5 -11t-14.5 -39v-147q0 -27 15 -38t47 -11h78 q49 0 66 16t24 55h18v-182h-18q-7 38 -24.5 54.5t-65.5 16.5h-78q-32 0 -47 -11t-15 -38v-157q0 -27 17.5 -38.5t61.5 -10.5l112 1q48 1 72 13.5t40 36.5l24 37h22q-22 -42 -30 -114q-2 -14 -16 -14h-488z" glyph-name="Emacron" horiz-adv-x="584" unicode="Ē"/><glyph d="M115 584q-19 0 -19 16v24q0 16 19 16h285q19 0 19 -16v-24q0 -16 -19 -16h-285zM320 58q72 0 115 53l22 -18q-19 -36 -68.5 -67.5t-121.5 -31.5q-99 0 -168 62t-69 169q0 110 72 172.5t171 62.5q81 0 133.5 -41.5t52.5 -105.5q0 -51 -41 -69t-135 -21l-112 -3 q-27 -1 -19 -39q19 -58 63.5 -90.5t104.5 -32.5zM258 427q-52 0 -81.5 -34.5t-35.5 -96.5l1 1q-2 -26 6 -36.5t27 -10.5l66 1q65 0 91 18t26 54q0 45 -26.5 74.5t-73.5 29.5z" glyph-name="emacron" horiz-adv-x="494" unicode="ē"/><glyph d="M298 713q-26 0 -44.5 18.5t-18.5 44.5t18.5 44.5t44.5 18.5t44.5 -18.5t18.5 -44.5t-18.5 -44.5t-44.5 -18.5zM30 0v28q34 6 50 18.5t16 38.5v451q0 27 -15.5 39t-50.5 18v28h473q14 0 15 -11q6 -60 20 -118h-21q-22 47 -51 68t-76 21h-113q-33 0 -47.5 -11t-14.5 -39 v-147q0 -27 15 -38t47 -11h78q49 0 66 16t24 55h18v-182h-18q-7 38 -24.5 54.5t-65.5 16.5h-78q-32 0 -47 -11t-15 -38v-157q0 -27 17.5 -38.5t61.5 -10.5l112 1q48 1 72 13.5t40 36.5l24 37h22q-22 -42 -30 -114q-2 -14 -16 -14h-488z" glyph-name="Edotaccent" horiz-adv-x="584" unicode="Ė"/><glyph d="M246 543q-26 0 -44.5 18.5t-18.5 44.5t18.5 44.5t44.5 18.5t44.5 -18.5t18.5 -44.5t-18.5 -44.5t-44.5 -18.5zM320 58q72 0 115 53l22 -18q-19 -36 -68.5 -67.5t-121.5 -31.5q-99 0 -168 62t-69 169q0 110 72 172.5t171 62.5q81 0 133.5 -41.5t52.5 -105.5q0 -51 -41 -69 t-135 -21l-112 -3q-27 -1 -19 -39q19 -58 63.5 -90.5t104.5 -32.5zM258 427q-52 0 -81.5 -34.5t-35.5 -96.5l1 1q-2 -26 6 -36.5t27 -10.5l66 1q65 0 91 18t26 54q0 45 -26.5 74.5t-73.5 29.5z" glyph-name="edotaccent" horiz-adv-x="494" unicode="ė"/><glyph d="M542 128h22q-22 -42 -30 -114q-2 -14 -16 -14h-85q-83 -56 -83 -113q0 -24 16 -40t40 -16q53 0 74 55h35q-4 -16 -12.5 -31.5t-24.5 -34.5t-44.5 -30.5t-65.5 -11.5q-47 0 -82 23.5t-35 69.5q0 47 39.5 80.5t88.5 48.5h-349v28q34 6 50 18.5t16 38.5v451q0 27 -15.5 39 t-50.5 18v28h473q14 0 15 -11q6 -60 20 -118h-21q-22 47 -51 68t-76 21h-113q-33 0 -47.5 -11t-14.5 -39v-147q0 -27 15 -38t47 -11h78q49 0 66 16t24 55h18v-182h-18q-7 38 -24.5 54.5t-65.5 16.5h-78q-32 0 -47 -11t-15 -38v-157q0 -27 17.5 -38.5t61.5 -10.5l112 1 q48 1 72 13.5t40 36.5z" glyph-name="Eogonek" horiz-adv-x="584" unicode="Ę"/><glyph d="M320 58q72 0 115 53l22 -18q-11 -22 -37.5 -45.5t-63.5 -37.5q-49 -23 -74 -46.5t-25 -60.5q0 -27 14.5 -42.5t38.5 -15.5q43 0 64 58h36q-5 -16 -13.5 -32t-24.5 -35.5t-44 -31.5t-64 -12q-43 0 -74.5 22.5t-31.5 68.5q0 69 85 112q-91 8 -152 69t-61 161 q0 110 72 172.5t171 62.5q81 0 133.5 -41.5t52.5 -105.5q0 -51 -41 -69t-135 -21l-112 -3q-27 -1 -19 -39q19 -58 63.5 -90.5t104.5 -32.5zM258 427q-52 0 -81.5 -34.5t-35.5 -96.5l1 1q-2 -26 6 -36.5t27 -10.5l66 1q65 0 91 18t26 54q0 45 -26.5 74.5t-73.5 29.5z" glyph-name="eogonek" horiz-adv-x="494" unicode="ę"/><glyph d="M299 693l-136 153l17 18l119 -81l118 81l17 -18zM30 0v28q34 6 50 18.5t16 38.5v451q0 27 -15.5 39t-50.5 18v28h473q14 0 15 -11q6 -60 20 -118h-21q-22 47 -51 68t-76 21h-113q-33 0 -47.5 -11t-14.5 -39v-147q0 -27 15 -38t47 -11h78q49 0 66 16t24 55h18v-182h-18 q-7 38 -24.5 54.5t-65.5 16.5h-78q-32 0 -47 -11t-15 -38v-157q0 -27 17.5 -38.5t61.5 -10.5l112 1q48 1 72 13.5t40 36.5l24 37h22q-22 -42 -30 -114q-2 -14 -16 -14h-488z" glyph-name="Ecaron" horiz-adv-x="584" unicode="Ě"/><glyph d="M382 676l-135 -153l-136 153l17 18l119 -81l118 81zM320 58q72 0 115 53l22 -18q-19 -36 -68.5 -67.5t-121.5 -31.5q-99 0 -168 62t-69 169q0 110 72 172.5t171 62.5q81 0 133.5 -41.5t52.5 -105.5q0 -51 -41 -69t-135 -21l-112 -3q-27 -1 -19 -39q19 -58 63.5 -90.5 t104.5 -32.5zM258 427q-52 0 -81.5 -34.5t-35.5 -96.5l1 1q-2 -26 6 -36.5t27 -10.5l66 1q65 0 91 18t26 54q0 45 -26.5 74.5t-73.5 29.5z" glyph-name="ecaron" horiz-adv-x="494" unicode="ě"/><glyph d="M340 722q-62 0 -101 35t-39 93q0 11 9 11h20q9 0 10 -10q7 -26 32.5 -43t68.5 -17t68.5 17t31.5 43q3 10 10 10h21q9 0 9 -11q0 -58 -39 -93t-101 -35zM357 -10q-85 0 -159 37t-121 111.5t-47 171.5q0 149 102 238t243 89q110 0 175.5 -49.5t65.5 -109.5q0 -30 -18 -50 t-51 -20q-30 0 -48.5 18t-18.5 44q0 52 -33 92t-102 40q-83 0 -136 -65t-53 -175q0 -138 80.5 -232t188.5 -94q70 0 70 53v116q0 33 -16 43.5t-71 15.5v21l257 1v-22q-40 -5 -51.5 -15.5t-11.5 -43.5v-205q-24 17 -52 19t-51.5 -5t-63.5 -15.5t-78 -8.5z" glyph-name="Gbreve" horiz-adv-x="680" unicode="Ğ"/><glyph d="M254 552q-62 0 -101 35t-39 93q0 11 9 11h20q9 0 10 -10q7 -26 32.5 -43t68.5 -17t68.5 17t31.5 43q3 10 10 10h21q9 0 9 -11q0 -58 -39 -93t-101 -35zM169 151q-39 0 -39 -27q0 -23 53 -33l140 -25q80 -13 120 -35.5t40 -65.5q0 -69 -83 -115.5t-189 -46.5 q-85 0 -140.5 32t-55.5 88q0 11 2.5 21t5.5 17t10.5 15t10 11.5t13.5 9.5t12 7t13 6.5t11 4.5q7 2 9.5 3.5t4 3t-1.5 3t-10 3.5q-28 7 -43 26t-15 43q0 59 87 74q-78 41 -78 130q0 71 50 115t140 44q113 0 165 -67q4 65 59 65q22 0 36.5 -11.5t14.5 -32.5q0 -22 -16 -32.5 t-36 -4.5q-18 4 -23.5 -10.5t-5.5 -63.5q0 -71 -48 -114.5t-133 -43.5q-19 0 -44 3t-36 3zM222 429q-73 0 -73 -106q0 -61 28 -104t77 -43q73 0 73 105q0 61 -28 104.5t-77 43.5zM217 1q-49 8 -76 -13.5t-27 -56.5q0 -42 38.5 -70t101.5 -28q57 0 94 25.5t37 69.5 q0 27 -21 39.5t-72 21.5z" glyph-name="gbreve" horiz-adv-x="526" unicode="ğ"/><glyph d="M340 713q-26 0 -44.5 18.5t-18.5 44.5t18.5 44.5t44.5 18.5t44.5 -18.5t18.5 -44.5t-18.5 -44.5t-44.5 -18.5zM357 -10q-85 0 -159 37t-121 111.5t-47 171.5q0 149 102 238t243 89q110 0 175.5 -49.5t65.5 -109.5q0 -30 -18 -50t-51 -20q-30 0 -48.5 18t-18.5 44 q0 52 -33 92t-102 40q-83 0 -136 -65t-53 -175q0 -138 80.5 -232t188.5 -94q70 0 70 53v116q0 33 -16 43.5t-71 15.5v21l257 1v-22q-40 -5 -51.5 -15.5t-11.5 -43.5v-205q-24 17 -52 19t-51.5 -5t-63.5 -15.5t-78 -8.5z" glyph-name="Gdotaccent" horiz-adv-x="680" unicode="Ġ"/><glyph d="M254 543q-26 0 -44.5 18.5t-18.5 44.5t18.5 44.5t44.5 18.5t44.5 -18.5t18.5 -44.5t-18.5 -44.5t-44.5 -18.5zM169 151q-39 0 -39 -27q0 -23 53 -33l140 -25q80 -13 120 -35.5t40 -65.5q0 -69 -83 -115.5t-189 -46.5q-85 0 -140.5 32t-55.5 88q0 11 2.5 21t5.5 17 t10.5 15t10 11.5t13.5 9.5t12 7t13 6.5t11 4.5q7 2 9.5 3.5t4 3t-1.5 3t-10 3.5q-28 7 -43 26t-15 43q0 59 87 74q-78 41 -78 130q0 71 50 115t140 44q113 0 165 -67q4 65 59 65q22 0 36.5 -11.5t14.5 -32.5q0 -22 -16 -32.5t-36 -4.5q-18 4 -23.5 -10.5t-5.5 -63.5 q0 -71 -48 -114.5t-133 -43.5q-19 0 -44 3t-36 3zM222 429q-73 0 -73 -106q0 -61 28 -104t77 -43q73 0 73 105q0 61 -28 104.5t-77 43.5zM217 1q-49 8 -76 -13.5t-27 -56.5q0 -42 38.5 -70t101.5 -28q57 0 94 25.5t37 69.5q0 27 -21 39.5t-72 21.5z" glyph-name="gdotaccent" horiz-adv-x="526" unicode="ġ"/><glyph d="M357 -10q-85 0 -159 37t-121 111.5t-47 171.5q0 149 102 238t243 89q110 0 175.5 -49.5t65.5 -109.5q0 -30 -18 -50t-51 -20q-30 0 -48.5 18t-18.5 44q0 52 -33 92t-102 40q-83 0 -136 -65t-53 -175q0 -138 80.5 -232t188.5 -94q70 0 70 53v116q0 33 -16 43.5t-71 15.5 v21l257 1v-22q-40 -5 -51.5 -15.5t-11.5 -43.5v-205q-24 17 -52 19t-51.5 -5t-63.5 -15.5t-78 -8.5zM325 -303l-17 19q43 38 43 69q0 17 -17 17q-26 0 -43 17.5t-17 43.5q0 29 19 47t47 18q34 0 52 -24t18 -61q0 -44 -24 -83t-61 -63z" glyph-name="Gcommaaccent" horiz-adv-x="680" unicode="Ģ"/><glyph d="M267 525q-34 0 -52 24t-18 61q0 43 24.5 82t61.5 64l17 -20q-43 -35 -43 -69q0 -16 16 -16q27 0 44 -17.5t17 -44.5q0 -28 -19 -46t-48 -18zM169 151q-39 0 -39 -27q0 -23 53 -33l140 -25q80 -13 120 -35.5t40 -65.5q0 -69 -83 -115.5t-189 -46.5q-85 0 -140.5 32 t-55.5 88q0 11 2.5 21t5.5 17t10.5 15t10 11.5t13.5 9.5t12 7t13 6.5t11 4.5q7 2 9.5 3.5t4 3t-1.5 3t-10 3.5q-28 7 -43 26t-15 43q0 59 87 74q-78 41 -78 130q0 71 50 115t140 44q113 0 165 -67q4 65 59 65q22 0 36.5 -11.5t14.5 -32.5q0 -22 -16 -32.5t-36 -4.5 q-18 4 -23.5 -10.5t-5.5 -63.5q0 -71 -48 -114.5t-133 -43.5q-19 0 -44 3t-36 3zM222 429q-73 0 -73 -106q0 -61 28 -104t77 -43q73 0 73 105q0 61 -28 104.5t-77 43.5zM217 1q-49 8 -76 -13.5t-27 -56.5q0 -42 38.5 -70t101.5 -28q57 0 94 25.5t37 69.5q0 27 -21 39.5 t-72 21.5z" glyph-name="gcommaaccent" horiz-adv-x="526" unicode="ģ"/><glyph d="M690 593q-35 -6 -50.5 -18t-15.5 -39v-451q0 -26 16 -38.5t50 -18.5v-28h-251v28q34 6 50 18.5t16 38.5v167q0 33 -39 33h-212q-39 0 -39 -33v-167q0 -27 15.5 -39t50.5 -18v-28h-251v28q34 6 50 18.5t16 38.5v451q0 27 -15.5 39t-50.5 18v28h251v-28q-35 -6 -50.5 -18 t-15.5 -39v-44q0 -33 40 -33h210q40 0 40 33v44q0 27 -15.5 39t-50.5 18v28h251v-28zM505 362v21q0 33 -39 33h-212q-39 0 -39 -33v-21q0 -34 40 -34h210q40 0 40 34z" glyph-name="Hbar" unicode="Ħ"/><glyph d="M499 82q0 -48 51 -38v-28q-31 -21 -77 -21q-79 0 -79 77v194q0 57 -26.5 91.5t-73.5 34.5q-50 0 -80 -35t-30 -91v-179q0 -30 14 -42.5t50 -15.5v-29h-233v29q36 3 50 15.5t14 42.5v419h-64v34h64v6q0 34 -13.5 46t-50.5 9v28l129 25q40 8 40 -32v-82h169v-34h-169v-79 q0 -39 16 -39q6 1 11 7q63 66 143 66q62 0 103.5 -40t41.5 -131v-208z" glyph-name="hbar" horiz-adv-x="570" unicode="ħ"/><glyph d="M5 794q0 16 19 16h285q19 0 19 -16v-24q0 -16 -19 -16h-285q-19 0 -19 16v24zM30 0v28q34 6 50 18.5t16 38.5v451q0 27 -15.5 39t-50.5 18v28h251v-28q-35 -6 -50.5 -18t-15.5 -39v-451q0 -27 15.5 -39t50.5 -18v-28h-251z" glyph-name="Imacron" horiz-adv-x="311" unicode="Ī"/><glyph d="M-19 624q0 16 19 16h285q19 0 19 -16v-24q0 -16 -19 -16h-285q-19 0 -19 16v24zM25 0v29q36 3 50 15.5t14 42.5v262q0 34 -14 46.5t-50 8.5v28l129 26q40 8 40 -33v-338q0 -30 14 -42.5t50 -15.5v-29h-233z" glyph-name="imacron" horiz-adv-x="283" unicode="ī"/><glyph d="M281 593q-35 -6 -50.5 -18t-15.5 -39v-451q0 -27 15.5 -39t50.5 -18v-28h-88q-83 -56 -83 -113q0 -24 16 -40t40 -16q53 0 74 55h35q-4 -16 -12.5 -31.5t-24.5 -34.5t-44.5 -30.5t-65.5 -11.5q-47 0 -82 23.5t-35 69.5q0 47 39.5 80.5t88.5 48.5h-109v28q34 6 50 18.5 t16 38.5v451q0 27 -15.5 39t-50.5 18v28h251v-28z" glyph-name="Iogonek" horiz-adv-x="311" unicode="Į"/><glyph d="M131 543q-26 0 -44.5 18.5t-18.5 44.5t18.5 44.5t44.5 18.5t44.5 -18.5t18.5 -44.5t-18.5 -44.5t-44.5 -18.5zM165 0q-83 -56 -83 -113q0 -24 16 -40t40 -16q53 0 74 55h35q-4 -16 -12.5 -31.5t-24.5 -34.5t-44.5 -30.5t-65.5 -11.5q-47 0 -82 23.5t-35 69.5 q0 47 39.5 80.5t88.5 48.5h-86v29q36 3 50 15.5t14 42.5v262q0 34 -14 46.5t-50 8.5v28l129 26q40 8 40 -33v-338q0 -30 14 -42.5t50 -15.5v-29h-93z" glyph-name="iogonek" horiz-adv-x="283" unicode="į"/><glyph d="M155 713q-26 0 -44.5 18.5t-18.5 44.5t18.5 44.5t44.5 18.5t44.5 -18.5t18.5 -44.5t-18.5 -44.5t-44.5 -18.5zM30 0v28q34 6 50 18.5t16 38.5v451q0 27 -15.5 39t-50.5 18v28h251v-28q-35 -6 -50.5 -18t-15.5 -39v-451q0 -27 15.5 -39t50.5 -18v-28h-251z" glyph-name="Idotaccent" horiz-adv-x="311" unicode="İ"/><glyph d="M25 0v29q36 3 50 15.5t14 42.5v262q0 34 -14 46.5t-50 8.5v28l129 26q40 8 40 -33v-338q0 -30 14 -42.5t50 -15.5v-29h-233z" glyph-name="dotlessi" horiz-adv-x="283" unicode="ı"/><glyph d="M30 0v28q34 6 50 18.5t16 38.5v451q0 27 -15.5 39t-50.5 18v28h251v-28q-35 -6 -50.5 -18t-15.5 -39v-451q0 -27 15.5 -39t50.5 -18v-28h-251zM457 -10q-64 0 -102.5 26.5t-38.5 69.5q0 29 16.5 46t43.5 17q52 0 52 -60q0 -29 11 -48t31 -19q38 0 38 66v448 q0 27 -17 39.5t-59 17.5v28h260v-28q-34 -6 -49.5 -18t-15.5 -39v-391q0 -80 -49 -117.5t-121 -37.5z" glyph-name="IJ" horiz-adv-x="722" unicode="Ĳ"/><glyph d="M131 543q-26 0 -44.5 18.5t-18.5 44.5t18.5 44.5t44.5 18.5t44.5 -18.5t18.5 -44.5t-18.5 -44.5t-44.5 -18.5zM416 543q-26 0 -44.5 18.5t-18.5 44.5t18.5 44.5t44.5 18.5t44 -18.5t18 -44.5t-18 -44.5t-44 -18.5zM25 0v29q36 3 50 15.5t14 42.5v262q0 34 -14 46.5 t-50 8.5v28l129 26q40 8 40 -33v-338q0 -30 14 -42.5t50 -15.5v-29h-233zM328 -201q-45 0 -77.5 18t-32.5 54q0 23 12.5 36.5t34.5 13.5q21 0 35 -13t19 -28.5t12.5 -28.5t17.5 -13q12 0 18.5 15t6.5 37v459q0 34 -14 46.5t-51 8.5v28l129 26q41 8 41 -33v-478 q0 -70 -42.5 -109t-108.5 -39z" glyph-name="ij" horiz-adv-x="544" unicode="ĳ"/><glyph d="M540 119q37 -48 65.5 -66t63.5 -25v-28h-270v28q65 11 26 62l-119 151q-35 45 -61 16l-13 -13q-16 -17 -17 -39v-120q0 -27 15.5 -39t50.5 -18v-28h-251v28q34 6 50 18.5t16 38.5v451q0 27 -15.5 39t-50.5 18v28h251v-28q-35 -6 -50.5 -18t-15.5 -39v-258l246 252 q24 28 12 44t-44 19v28h212v-28q-73 -6 -134 -67l-133 -136q-26 -27 4 -64zM349 -72q34 0 52 -24t18 -61q0 -44 -24 -83t-61 -63l-17 19q43 38 43 69q0 17 -17 17q-26 0 -43 17.5t-17 43.5q0 29 19 47t47 18z" glyph-name="Kcommaaccent" horiz-adv-x="689" unicode="Ķ"/><glyph d="M458 78q19 -27 36 -36.5t50 -12.5v-29h-224v29q47 5 19 44l-91 133q-14 20 -29 7q-13 -11 -19 -17.5t-11 -18t-5 -25.5v-65q0 -30 14 -42.5t50 -15.5v-29h-233v29q36 3 50 15.5t14 42.5v459q0 34 -13.5 46t-50.5 9v28l129 25q40 8 40 -32v-347q0 -18 10 -24t21 4l136 120 q10 10 10.5 19.5t-12.5 17.5t-36 10v29h190v-29q-23 -2 -41.5 -9.5t-28 -14.5t-32.5 -27l-92 -80zM284 -72q34 0 52 -24t18 -61q0 -44 -24 -83t-61 -63l-17 19q43 38 43 69q0 17 -17 17q-26 0 -43 17.5t-17 43.5q0 29 19 47t47 18z" glyph-name="kcommaaccent" horiz-adv-x="544" unicode="ķ"/><glyph d="M133 737q-16 -19 -6 -31q10 -13 32 0l120 71q29 18 38 39.5t-8 41.5q-35 37 -80 -13zM30 0v28q34 6 50 18.5t16 38.5v451q0 27 -15.5 39t-50.5 18v28h251v-28q-35 -6 -50.5 -18t-15.5 -39v-451q0 -56 67 -52l125 6q45 2 71 17.5t45 46.5l19 33h28l-18 -62 q-13 -43 -10 -74h-512z" glyph-name="Lacute" horiz-adv-x="590" unicode="Ĺ"/><glyph d="M94 737q-16 -19 -6 -31q10 -13 32 0l120 71q29 18 38 39.5t-8 41.5q-35 37 -80 -13zM155 -5q-81 0 -81 82v469q0 34 -13.5 46t-50.5 9v28l129 25q40 8 40 -32v-539q0 -26 14.5 -34t49.5 0v-28q-41 -26 -88 -26z" glyph-name="lacute" horiz-adv-x="258" unicode="ĺ"/><glyph d="M30 0v28q34 6 50 18.5t16 38.5v451q0 27 -15.5 39t-50.5 18v28h251v-28q-35 -6 -50.5 -18t-15.5 -39v-451q0 -56 67 -52l125 6q45 2 71 17.5t45 46.5l19 33h28l-18 -62q-13 -43 -10 -74h-512zM292 -303l-17 19q43 38 43 69q0 17 -17 17q-26 0 -43 17.5t-17 43.5 q0 29 19 47t47 18q34 0 52 -24t18 -61q0 -44 -24 -83t-61 -63z" glyph-name="Lcommaaccent" horiz-adv-x="590" unicode="Ļ"/><glyph d="M155 -5q-81 0 -81 82v469q0 34 -13.5 46t-50.5 9v28l129 25q40 8 40 -32v-539q0 -26 14.5 -34t49.5 0v-28q-41 -26 -88 -26zM139 -303l-17 19q43 38 43 69q0 17 -17 17q-26 0 -43 17.5t-17 43.5q0 29 19 47t47 18q34 0 52 -24t18 -61q0 -44 -24 -83t-61 -63z" glyph-name="lcommaaccent" horiz-adv-x="258" unicode="ļ"/><glyph d="M385 398l-17 19q43 38 43 69q0 17 -17 17q-26 0 -43 17.5t-17 43.5q0 29 19 46.5t47 17.5q34 0 52 -24t18 -61q0 -44 -24 -82.5t-61 -62.5zM30 0v28q34 6 50 18.5t16 38.5v451q0 27 -15.5 39t-50.5 18v28h251v-28q-35 -6 -50.5 -18t-15.5 -39v-451q0 -56 67 -52l125 6 q45 2 71 17.5t45 46.5l19 33h28l-18 -62q-13 -43 -10 -74h-512z" glyph-name="Lcaron" horiz-adv-x="590" unicode="Ľ"/><glyph d="M243 480q-25 0 -25 26v103q0 51 47 51q24 0 35 -16.5t2 -45.5l-30 -93q-8 -25 -29 -25zM155 -5q-81 0 -81 82v469q0 34 -13.5 46t-50.5 9v28l129 25q40 8 40 -32v-539q0 -26 14.5 -34t49.5 0v-28q-41 -26 -88 -26z" glyph-name="lcaron" horiz-adv-x="294" unicode="ľ"/><glyph d="M30 0v28q34 6 50 18.5t16 38.5v451q0 27 -15.5 39t-50.5 18v28h251v-28q-35 -6 -50.5 -18t-15.5 -39v-451q0 -56 67 -52l125 6q45 2 71 17.5t45 46.5l19 33h28l-18 -62q-13 -43 -10 -74h-512zM377 276q-26 0 -44.5 18.5t-18.5 45.5q0 26 18.5 44t44.5 18q25 0 43.5 -18 t18.5 -44q0 -27 -18 -45.5t-44 -18.5z" glyph-name="Ldot" horiz-adv-x="590" unicode="Ŀ"/><glyph d="M155 -5q-81 0 -81 82v469q0 34 -13.5 46t-50.5 9v28l129 25q40 8 40 -32v-539q0 -26 14.5 -34t49.5 0v-28q-41 -26 -88 -26zM299 290q-26 0 -44.5 18.5t-18.5 45.5q0 25 18.5 43.5t44.5 18.5t44.5 -18.5t18.5 -43.5q0 -27 -18.5 -45.5t-44.5 -18.5z" glyph-name="ldot" horiz-adv-x="332" unicode="ŀ"/><glyph d="M572 136l-18 -62q-13 -43 -10 -74h-512v28q34 6 50 18.5t16 38.5v180l-68 -37v35l68 37v236q0 27 -15.5 39t-50.5 18v28h251v-28q-35 -6 -50.5 -18t-15.5 -39v-171l86 47v-35l-86 -47v-245q0 -56 68 -52l124 6q45 2 71 17.5t45 46.5l20 33h27z" glyph-name="Lslash" horiz-adv-x="592" unicode="Ł"/><glyph d="M243 367l-63 -38v-246q0 -26 14 -34t49 0v-28q-41 -26 -87 -26q-81 0 -81 82v190l-65 -39v35l65 39v244q0 34 -13.5 46t-50.5 9v28l128 25q41 8 41 -32v-258l63 38v-35z" glyph-name="lslash" horiz-adv-x="258" unicode="ł"/><glyph d="M341 706q-22 -13 -32 0q-10 12 6 31l96 108q45 50 80 13q17 -20 8 -41.5t-38 -39.5zM473 621h181v-28q-34 -6 -49.5 -18t-15.5 -39v-536h-47l-396 487v-402q0 -27 15.5 -39t49.5 -18v-28h-181v28q34 6 50 18.5t16 38.5v451q0 27 -15.5 39t-50.5 18v28h152l356 -438v353 q0 27 -15.5 39t-49.5 18v28z" glyph-name="Nacute" horiz-adv-x="684" unicode="Ń"/><glyph d="M264 567q-16 -19 -6 -31q10 -13 32 0l120 71q29 18 38 39.5t-8 41.5q-35 37 -80 -13zM483 -5q-79 0 -79 77v194q0 58 -26 93t-74 35q-50 0 -80 -36t-30 -92v-179q0 -30 14 -42.5t50 -15.5v-29h-233v29q36 3 50 15.5t14 42.5v262q0 34 -14 46.5t-50 8.5v28l129 26 q40 8 40 -31t16 -39q6 1 11 7q63 66 143 66q62 0 103.5 -40t41.5 -131v-208q0 -48 51 -38v-28q-31 -21 -77 -21z" glyph-name="nacute" horiz-adv-x="580" unicode="ń"/><glyph d="M473 621h181v-28q-34 -6 -49.5 -18t-15.5 -39v-536h-47l-396 487v-402q0 -27 15.5 -39t49.5 -18v-28h-181v28q34 6 50 18.5t16 38.5v451q0 27 -15.5 39t-50.5 18v28h152l356 -438v353q0 27 -15.5 39t-49.5 18v28zM342 -72q34 0 52 -24t18 -61q0 -44 -24 -83t-61 -63 l-17 19q43 38 43 69q0 17 -17 17q-26 0 -43 17.5t-17 43.5q0 29 19 47t47 18z" glyph-name="Ncommaaccent" horiz-adv-x="684" unicode="Ņ"/><glyph d="M483 -5q-79 0 -79 77v194q0 58 -26 93t-74 35q-50 0 -80 -36t-30 -92v-179q0 -30 14 -42.5t50 -15.5v-29h-233v29q36 3 50 15.5t14 42.5v262q0 34 -14 46.5t-50 8.5v28l129 26q40 8 40 -31t16 -39q6 1 11 7q63 66 143 66q62 0 103.5 -40t41.5 -131v-208q0 -48 51 -38v-28 q-31 -21 -77 -21zM276 -303l-17 19q43 38 43 69q0 17 -17 17q-26 0 -43 17.5t-17 43.5q0 29 19 47t47 18q34 0 52 -24t18 -61q0 -44 -24 -83t-61 -63z" glyph-name="ncommaaccent" horiz-adv-x="580" unicode="ņ"/><glyph d="M477 846l-135 -153l-136 153l17 18l119 -81l118 81zM473 621h181v-28q-34 -6 -49.5 -18t-15.5 -39v-536h-47l-396 487v-402q0 -27 15.5 -39t49.5 -18v-28h-181v28q34 6 50 18.5t16 38.5v451q0 27 -15.5 39t-50.5 18v28h152l356 -438v353q0 27 -15.5 39t-49.5 18v28z" glyph-name="Ncaron" horiz-adv-x="684" unicode="Ň"/><glyph d="M291 523l-136 153l17 18l119 -81l118 81l17 -18zM483 -5q-79 0 -79 77v194q0 58 -26 93t-74 35q-50 0 -80 -36t-30 -92v-179q0 -30 14 -42.5t50 -15.5v-29h-233v29q36 3 50 15.5t14 42.5v262q0 34 -14 46.5t-50 8.5v28l129 26q40 8 40 -31t16 -39q6 1 11 7q63 66 143 66 q62 0 103.5 -40t41.5 -131v-208q0 -48 51 -38v-28q-31 -21 -77 -21z" glyph-name="ncaron" horiz-adv-x="580" unicode="ň"/><glyph d="M473 621h181v-28q-34 -6 -49.5 -18t-15.5 -39v-560q0 -86 -40 -123t-117 -37q-59 0 -95 27.5t-36 67.5q0 61 58 61q48 0 48 -52q0 -54 32 -54t32 53v168l-325 400v-402q0 -27 15.5 -39t49.5 -18v-28h-181v28q34 6 50 18.5t16 38.5v451q0 27 -15.5 39t-50.5 18v28h152 l356 -438v353q0 27 -15.5 39t-49.5 18v28z" glyph-name="Eng" horiz-adv-x="684" unicode="Ŋ"/><glyph d="M358 -198q-45 0 -77.5 18t-32.5 54q0 22 13 36t34 14q28 0 42 -20.5t22 -41.5t20 -21t18.5 15t6.5 37v373q0 58 -26 93t-74 35q-50 0 -80 -36t-30 -92v-179q0 -30 14 -42.5t50 -15.5v-29h-233v29q36 3 50 15.5t14 42.5v262q0 34 -14 46.5t-50 8.5v28l129 26q40 8 40 -31 t16 -39q6 1 11 7q63 66 143 66q62 0 103.5 -40t41.5 -131v-340q0 -70 -42.5 -109t-108.5 -39z" glyph-name="eng" horiz-adv-x="574" unicode="ŋ"/><glyph d="M196 794q0 16 19 16h285q19 0 19 -16v-24q0 -16 -19 -16h-285q-19 0 -19 16v24zM349 -10q-133 0 -226 88.5t-93 229.5q0 144 96.5 236.5t235.5 92.5q133 0 226 -88.5t93 -227.5q0 -146 -96.5 -238.5t-235.5 -92.5zM377 31q71 0 122 60t51 184q0 139 -62.5 230t-153.5 91 q-71 0 -122 -59.5t-51 -182.5q0 -140 62.5 -231.5t153.5 -91.5z" glyph-name="Omacron" horiz-adv-x="711" unicode="Ō"/><glyph d="M118 624q0 16 19 16h285q19 0 19 -16v-24q0 -16 -19 -16h-285q-19 0 -19 16v24zM268 -6q-98 0 -168 62.5t-70 170.5t70 170.5t168 62.5t168 -62.5t70 -170.5t-70 -170.5t-168 -62.5zM289 28q48 0 76.5 41.5t28.5 121.5q0 97 -42 166t-105 69q-48 0 -76.5 -41.5 t-28.5 -121.5q0 -97 42 -166t105 -69z" glyph-name="omacron" horiz-adv-x="536" unicode="ō"/><glyph d="M233 737q-16 -18 -6 -31t32 0l119 71q30 18 38.5 39.5t-8.5 41.5q-34 37 -79 -13zM427 737q-16 -18 -6 -31t32 0l119 71q30 18 38.5 39.5t-8.5 41.5q-34 37 -79 -13zM349 -10q-133 0 -226 88.5t-93 229.5q0 144 96.5 236.5t235.5 92.5q133 0 226 -88.5t93 -227.5 q0 -146 -96.5 -238.5t-235.5 -92.5zM377 31q71 0 122 60t51 184q0 139 -62.5 230t-153.5 91q-71 0 -122 -59.5t-51 -182.5q0 -140 62.5 -231.5t153.5 -91.5z" glyph-name="Ohungarumlaut" horiz-adv-x="711" unicode="Ő"/><glyph d="M155 567q-16 -18 -6 -31t32 0l119 71q30 18 38.5 39.5t-8.5 41.5q-34 37 -79 -13zM349 567q-16 -18 -6 -31t32 0l119 71q30 18 38.5 39.5t-8.5 41.5q-34 37 -79 -13zM268 -6q-98 0 -168 62.5t-70 170.5t70 170.5t168 62.5t168 -62.5t70 -170.5t-70 -170.5t-168 -62.5z M289 28q48 0 76.5 41.5t28.5 121.5q0 97 -42 166t-105 69q-48 0 -76.5 -41.5t-28.5 -121.5q0 -97 42 -166t105 -69z" glyph-name="ohungarumlaut" horiz-adv-x="536" unicode="ő"/><glyph d="M944 128h22q-22 -42 -30 -114q-2 -14 -16 -14h-487q-39 -10 -84 -10q-133 0 -226 88.5t-93 229.5q0 144 96.5 236.5t235.5 92.5q56 0 104 -16h439q14 0 15 -11q6 -60 20 -118h-21q-22 47 -51 68t-76 21h-112q-33 0 -48 -11t-15 -39v-147q0 -27 15 -38t48 -11h77 q49 0 66 16t24 55h18v-182h-18q-7 38 -24.5 54.5t-65.5 16.5h-77q-33 0 -48 -11t-15 -38v-157q0 -27 17.5 -38.5t61.5 -10.5l112 1q48 1 72 13.5t40 36.5zM161 354q0 -140 62.5 -231.5t153.5 -91.5q76 0 121 65v383q-29 55 -72 86t-92 31q-71 0 -122 -59.5t-51 -182.5z" glyph-name="OE" horiz-adv-x="986" unicode="Œ"/><glyph d="M684 59q72 0 115 53l21 -18q-19 -36 -68.5 -67.5t-120.5 -31.5q-114 0 -181 76q-69 -77 -182 -77q-98 0 -168 62.5t-70 170.5t70 170.5t168 62.5q114 0 182 -77q72 78 187 78q81 0 133.5 -41.5t52.5 -105.5q0 -51 -41 -69t-135 -21l-113 -3q-26 -1 -18 -39 q19 -58 63.5 -90.5t104.5 -32.5zM622 428q-54 0 -83.5 -37.5t-33.5 -101.5q0 -21 7.5 -29.5t25.5 -8.5l67 1q64 0 90.5 18t26.5 54q0 45 -27 74.5t-73 29.5zM289 28q48 0 76.5 41.5t28.5 121.5q0 97 -42 166t-105 69q-48 0 -76.5 -41.5t-28.5 -121.5q0 -97 42 -166t105 -69z " glyph-name="oe" horiz-adv-x="858" unicode="œ"/><glyph d="M296 737q-16 -19 -6 -31q10 -13 32 0l120 71q29 18 38 39.5t-8 41.5q-35 37 -80 -13zM30 0v28q34 6 50 18.5t16 38.5v451q0 27 -15.5 39t-50.5 18v28h306q114 0 177.5 -44t63.5 -125q0 -126 -148 -154q-3 0 -4.5 -2.5t0 -5t4.5 -3.5q45 -12 71.5 -41.5t43.5 -82.5 q24 -74 41.5 -104.5t48.5 -30.5v-28h-44q-78 0 -115 37.5t-68 128.5q-21 60 -49.5 84t-78.5 24q-36 0 -50 -12t-14 -41v-136q0 -27 17 -39.5t59 -17.5v-28h-261zM270 317h54q69 0 100 37.5t31 96.5q0 57 -29.5 92t-94.5 35h-74q-42 0 -42 -45v-163q0 -28 12.5 -40.5 t42.5 -12.5z" glyph-name="Racute" horiz-adv-x="654" unicode="Ŕ"/><glyph d="M197 567q-16 -19 -6 -31q10 -13 32 0l120 71q29 18 38 39.5t-8 41.5q-35 37 -80 -13zM25 0v29q36 3 50 15.5t14 42.5v262q0 34 -14 46.5t-50 8.5v28l129 26q40 8 40 -31q0 -38 14 -36q5 1 11 7q54 63 128 63q49 0 74.5 -26.5t25.5 -60.5q0 -29 -16 -45.5t-42 -16.5 q-23 0 -37.5 12.5t-14.5 32.5q0 21 -12.5 34t-33.5 13q-41 0 -69 -41t-28 -111v-165q0 -30 14.5 -42.5t53.5 -15.5v-29h-237z" glyph-name="racute" horiz-adv-x="462" unicode="ŕ"/><glyph d="M30 0v28q34 6 50 18.5t16 38.5v451q0 27 -15.5 39t-50.5 18v28h306q114 0 177.5 -44t63.5 -125q0 -126 -148 -154q-3 0 -4.5 -2.5t0 -5t4.5 -3.5q45 -12 71.5 -41.5t43.5 -82.5q24 -74 41.5 -104.5t48.5 -30.5v-28h-44q-78 0 -115 37.5t-68 128.5q-21 60 -49.5 84 t-78.5 24q-36 0 -50 -12t-14 -41v-136q0 -27 17 -39.5t59 -17.5v-28h-261zM270 317h54q69 0 100 37.5t31 96.5q0 57 -29.5 92t-94.5 35h-74q-42 0 -42 -45v-163q0 -28 12.5 -40.5t42.5 -12.5zM331 -303l-17 19q43 38 43 69q0 17 -17 17q-26 0 -43 17.5t-17 43.5q0 29 19 47 t47 18q34 0 52 -24t18 -61q0 -44 -24 -83t-61 -63z" glyph-name="Rcommaaccent" horiz-adv-x="654" unicode="Ŗ"/><glyph d="M25 0v29q36 3 50 15.5t14 42.5v262q0 34 -14 46.5t-50 8.5v28l129 26q40 8 40 -31q0 -38 14 -36q5 1 11 7q54 63 128 63q49 0 74.5 -26.5t25.5 -60.5q0 -29 -16 -45.5t-42 -16.5q-23 0 -37.5 12.5t-14.5 32.5q0 21 -12.5 34t-33.5 13q-41 0 -69 -41t-28 -111v-165 q0 -30 14.5 -42.5t53.5 -15.5v-29h-237zM141 -303l-18 19q43 37 43 69q0 17 -16 17q-27 0 -44 17.5t-17 43.5q0 29 19 47t48 18q34 0 52 -24t18 -61q0 -44 -24.5 -83t-60.5 -63z" glyph-name="rcommaaccent" horiz-adv-x="462" unicode="ŗ"/><glyph d="M323 693l-136 153l17 18l119 -81l118 81l17 -18zM30 0v28q34 6 50 18.5t16 38.5v451q0 27 -15.5 39t-50.5 18v28h306q114 0 177.5 -44t63.5 -125q0 -126 -148 -154q-3 0 -4.5 -2.5t0 -5t4.5 -3.5q45 -12 71.5 -41.5t43.5 -82.5q24 -74 41.5 -104.5t48.5 -30.5v-28h-44 q-78 0 -115 37.5t-68 128.5q-21 60 -49.5 84t-78.5 24q-36 0 -50 -12t-14 -41v-136q0 -27 17 -39.5t59 -17.5v-28h-261zM270 317h54q69 0 100 37.5t31 96.5q0 57 -29.5 92t-94.5 35h-74q-42 0 -42 -45v-163q0 -28 12.5 -40.5t42.5 -12.5z" glyph-name="Rcaron" horiz-adv-x="654" unicode="Ř"/><glyph d="M220 523l-136 153l17 18l119 -81l118 81l17 -18zM25 0v29q36 3 50 15.5t14 42.5v262q0 34 -14 46.5t-50 8.5v28l129 26q40 8 40 -31q0 -38 14 -36q5 1 11 7q54 63 128 63q49 0 74.5 -26.5t25.5 -60.5q0 -29 -16 -45.5t-42 -16.5q-23 0 -37.5 12.5t-14.5 32.5 q0 21 -12.5 34t-33.5 13q-41 0 -69 -41t-28 -111v-165q0 -30 14.5 -42.5t53.5 -15.5v-29h-237z" glyph-name="rcaron" horiz-adv-x="462" unicode="ř"/><glyph d="M230 737q-16 -19 -6 -31q10 -13 32 0l120 71q29 18 38 39.5t-8 41.5q-35 37 -80 -13zM261 -10q-122 0 -204 52q-22 52 -20.5 103.5t30.5 51.5q14 0 20 -18q25 -72 79 -110t122 -38q54 1 83 26t29 71q0 17 -5.5 31.5t-11.5 25t-21.5 21t-25 16t-33 14.5t-33 12t-37.5 12 q-198 64 -198 201q0 80 63.5 128t166.5 48q117 0 195 -49q23 -52 21 -103.5t-31 -51.5q-14 0 -20 18q-24 70 -74.5 107.5t-111.5 37.5q-54 0 -79.5 -28t-25.5 -66q0 -52 35.5 -80t108.5 -51q31 -10 44.5 -14.5t43 -16.5t45 -21.5t37 -26t32.5 -33.5t19.5 -41t8.5 -51 q0 -47 -22 -83t-59.5 -55.5t-80 -29t-90.5 -9.5z" glyph-name="Sacute" horiz-adv-x="548" unicode="Ś"/><glyph d="M187 567q-16 -19 -6 -31q10 -13 32 0l120 71q29 18 38 39.5t-8 41.5q-35 37 -80 -13zM207 -6q-75 0 -128.5 30.5t-53.5 85.5q0 51 45 51q22 0 34.5 -12t12.5 -28q0 -46 32.5 -70t75.5 -24q41 0 61.5 20.5t20.5 51.5q0 18 -7.5 31.5t-26 24t-33.5 16t-45 14.5 q-158 46 -158 145q0 59 51 94.5t129 35.5q70 0 121 -27t51 -76q0 -47 -48 -47q-40 0 -40 35q0 36 -27 59t-68 23q-34 0 -52.5 -16.5t-18.5 -45.5q0 -35 24 -53t72 -32q88 -28 117 -46q60 -38 60 -100q0 -65 -57.5 -102.5t-143.5 -37.5z" glyph-name="sacute" horiz-adv-x="433" unicode="ś"/><glyph d="M513 167q0 -81 -59.5 -124t-150.5 -51l-18 -38q41 5 73.5 -18t32.5 -62q0 -44 -38 -70t-89 -26q-52 0 -83 21t-31 50q0 28 24 38t47 -12q0 -25 10 -46t35 -21t39 20.5t14 47.5q0 50 -42 50q-9 0 -23.5 -4t-21.5 -4q-15 0 -20 9t2 23l20 41q-106 6 -177 51 q-22 52 -20.5 103.5t30.5 51.5q14 0 20 -18q25 -72 79 -110t122 -38q54 1 83 26t29 71q0 17 -5.5 31.5t-11.5 25t-21.5 21t-25 16t-33 14.5t-33 12t-37.5 12q-198 64 -198 201q0 80 63.5 128t166.5 48q117 0 195 -49q23 -52 21 -103.5t-31 -51.5q-14 0 -20 18 q-24 70 -74.5 107.5t-111.5 37.5q-54 0 -79.5 -28t-25.5 -66q0 -52 35.5 -80t108.5 -51q31 -10 44.5 -14.5t43 -16.5t45 -21.5t37 -26t32.5 -33.5t19.5 -41t8.5 -51z" glyph-name="Scedilla" horiz-adv-x="548" unicode="Ş"/><glyph d="M408 134q0 -57 -44.5 -92.5t-114.5 -44.5l-20 -43q41 5 73.5 -18t32.5 -62q0 -44 -38 -70t-89 -26q-52 0 -83 21t-31 50q0 28 24 38t47 -12q0 -25 10 -46t35 -21t39 20.5t14 47.5q0 50 -42 50q-9 0 -23.5 -4t-21.5 -4q-15 0 -20 9t2 23l22 45q-66 6 -110.5 36t-44.5 79 q0 51 45 51q22 0 34.5 -12t12.5 -28q0 -46 32.5 -70t75.5 -24q41 0 61.5 20.5t20.5 51.5q0 18 -7.5 31.5t-26 24t-33.5 16t-45 14.5q-158 46 -158 145q0 59 51 94.5t129 35.5q70 0 121 -27t51 -76q0 -47 -48 -47q-40 0 -40 35q0 36 -27 59t-68 23q-34 0 -52.5 -16.5 t-18.5 -45.5q0 -35 24 -53t72 -32q88 -28 117 -46q60 -38 60 -100z" glyph-name="scedilla" horiz-adv-x="433" unicode="ş"/><glyph d="M257 693l-136 153l17 18l119 -81l118 81l17 -18zM261 -10q-122 0 -204 52q-22 52 -20.5 103.5t30.5 51.5q14 0 20 -18q25 -72 79 -110t122 -38q54 1 83 26t29 71q0 17 -5.5 31.5t-11.5 25t-21.5 21t-25 16t-33 14.5t-33 12t-37.5 12q-198 64 -198 201q0 80 63.5 128 t166.5 48q117 0 195 -49q23 -52 21 -103.5t-31 -51.5q-14 0 -20 18q-24 70 -74.5 107.5t-111.5 37.5q-54 0 -79.5 -28t-25.5 -66q0 -52 35.5 -80t108.5 -51q31 -10 44.5 -14.5t43 -16.5t45 -21.5t37 -26t32.5 -33.5t19.5 -41t8.5 -51q0 -47 -22 -83t-59.5 -55.5t-80 -29 t-90.5 -9.5z" glyph-name="Scaron" horiz-adv-x="548" unicode="Š"/><glyph d="M214 523l-136 153l17 18l119 -81l118 81l17 -18zM207 -6q-75 0 -128.5 30.5t-53.5 85.5q0 51 45 51q22 0 34.5 -12t12.5 -28q0 -46 32.5 -70t75.5 -24q41 0 61.5 20.5t20.5 51.5q0 18 -7.5 31.5t-26 24t-33.5 16t-45 14.5q-158 46 -158 145q0 59 51 94.5t129 35.5 q70 0 121 -27t51 -76q0 -47 -48 -47q-40 0 -40 35q0 36 -27 59t-68 23q-34 0 -52.5 -16.5t-18.5 -45.5q0 -35 24 -53t72 -32q88 -28 117 -46q60 -38 60 -100q0 -65 -57.5 -102.5t-143.5 -37.5z" glyph-name="scaron" horiz-adv-x="433" unicode="š"/><glyph d="M580 624l18 -146h-30q-21 61 -45.5 82t-75.5 21q-49 0 -62.5 -10.5t-13.5 -44.5v-441q0 -27 19 -39.5t67 -17.5v-28h-108l-22 -46q41 5 73.5 -18t32.5 -62q0 -44 -38 -70t-89 -26q-52 0 -83 21t-31 50q0 28 24 38t47 -12q0 -25 10 -46t35 -21t39 20.5t14 47.5 q0 50 -42 50q-9 0 -23.5 -4t-21.5 -4q-15 0 -20 9t2 23l24 50h-114v28q48 5 67 17.5t19 39.5v441q0 34 -13.5 44.5t-62.5 10.5q-51 0 -75.5 -21t-45.5 -82h-30l19 146l57 -3h422z" glyph-name="Tcommaaccent" horiz-adv-x="623" unicode="Ţ"/><glyph d="M206 -46q41 5 73.5 -18t32.5 -62q0 -44 -38 -70t-89 -26q-52 0 -83 21t-31 50q0 28 24.5 38t46.5 -12q0 -25 10 -46t35 -21t39 20.5t14 47.5q0 50 -42 50q-9 0 -23.5 -4t-21.5 -4q-15 0 -20 9t2 23l24 50h7q-84 22 -84 141v250q0 14 -6 19t-20 5h-41v25q59 9 89.5 36.5 t42.5 81.5h40v-80q0 -27 24 -27h89v-36h-89q-24 0 -24 -24v-268q0 -86 53 -86q33 0 51 15l15 -26q-31 -26 -80 -30z" glyph-name="tcommaaccent" horiz-adv-x="326" unicode="ţ"/><glyph d="M312 693l-136 153l17 18l119 -81l118 81l17 -18zM166 0v28q48 5 67 17.5t19 39.5v441q0 34 -13.5 44.5t-62.5 10.5q-51 0 -75.5 -21t-45.5 -82h-30l19 146l57 -3h422l57 3l18 -146h-30q-21 61 -45.5 82t-75.5 21q-49 0 -62.5 -10.5t-13.5 -44.5v-441q0 -27 19 -39.5 t67 -17.5v-28h-291z" glyph-name="Tcaron" horiz-adv-x="623" unicode="Ť"/><glyph d="M251 490q-25 0 -25 26l3 103q2 51 46 51q26 0 38.5 -16.5t1.5 -45.5l-35 -93q-9 -25 -29 -25zM210 -5q-128 0 -128 146v250q0 14 -6 19t-20 5h-41v25q59 9 89.5 36.5t42.5 81.5h40v-80q0 -27 24 -27h89v-36h-89q-24 0 -24 -24v-268q0 -86 53 -86q33 0 51 15l15 -26 q-35 -31 -96 -31z" glyph-name="tcaron" horiz-adv-x="333" unicode="ť"/><glyph d="M580 624l18 -146h-30q-21 61 -45.5 82t-75.5 21q-49 0 -62.5 -10.5t-13.5 -44.5v-118h110l1 -43h-111v-280q0 -27 19 -39.5t67 -17.5v-28h-291v28q48 5 67 17.5t19 39.5v280h-110l1 43h109v118q0 34 -13.5 44.5t-62.5 10.5q-51 0 -75.5 -21t-45.5 -82h-30l19 146l57 -3 h422z" glyph-name="Tbar" horiz-adv-x="623" unicode="Ŧ"/><glyph d="M291 52l15 -26q-35 -31 -96 -31q-128 0 -128 146v168h-67v36h67v46q0 14 -6 19t-20 5h-41v25q59 9 89.5 36.5t42.5 81.5h40v-80q0 -27 24 -27h89v-36h-89q-24 0 -24 -24v-46h113v-36h-113v-186q0 -86 53 -86q33 0 51 15z" glyph-name="tbar" horiz-adv-x="326" unicode="ŧ"/><glyph d="M210 794q0 16 19 16h285q19 0 19 -16v-24q0 -16 -19 -16h-285q-19 0 -19 16v24zM348 -10q-117 0 -187 67.5t-70 201.5v277q0 27 -15.5 39t-50.5 18v28h251v-28q-35 -6 -50.5 -18t-15.5 -39v-261q0 -116 43 -172t121 -56q76 0 124.5 53.5t48.5 168.5v267q0 27 -17 39 t-53 18v28h187v-28q-35 -6 -52 -18t-17 -39v-281q0 -126 -63.5 -195.5t-183.5 -69.5z" glyph-name="Umacron" horiz-adv-x="689" unicode="Ū"/><glyph d="M130 624q0 16 18 16h286q19 0 19 -16v-24q0 -16 -19 -16h-286q-18 0 -18 16v24zM235 -6q-63 0 -104.5 40t-41.5 131v184q0 34 -14 46.5t-50 8.5v28l129 26q40 8 40 -33v-236q0 -58 26 -93t74 -35q50 0 80 36t30 92v160q0 34 -14 46.5t-50 8.5v28l128 26q41 8 41 -33v-343 q0 -48 51 -38v-28q-27 -21 -76 -21q-65 0 -78 61q-2 16 -11 16q-4 0 -13 -9q-57 -69 -147 -69z" glyph-name="umacron" horiz-adv-x="585" unicode="ū"/><glyph d="M284 552q-61 0 -100 35t-39 93q0 11 8 11h21q9 0 10 -10q7 -26 32 -43t68 -17q44 0 69 17t32 43q1 10 10 10h21q8 0 8 -11q0 -58 -39 -93t-101 -35zM235 -6q-63 0 -104.5 40t-41.5 131v184q0 34 -14 46.5t-50 8.5v28l129 26q40 8 40 -33v-236q0 -58 26 -93t74 -35 q50 0 80 36t30 92v160q0 34 -14 46.5t-50 8.5v28l128 26q41 8 41 -33v-343q0 -48 51 -38v-28q-27 -21 -76 -21q-65 0 -78 61q-2 16 -11 16q-4 0 -13 -9q-57 -69 -147 -69z" glyph-name="ubreve" horiz-adv-x="585" unicode="ŭ"/><glyph d="M360 714q-41 0 -69 27.5t-28 66.5t28 66.5t69 27.5t69 -27.5t28 -66.5t-28 -66.5t-69 -27.5zM360 761q20 0 33 13t13 34q0 20 -13 34t-33 14t-33 -14t-13 -34q0 -21 13 -34t33 -13zM348 -10q-117 0 -187 67.5t-70 201.5v277q0 27 -15.5 39t-50.5 18v28h251v-28 q-35 -6 -50.5 -18t-15.5 -39v-261q0 -116 43 -172t121 -56q76 0 124.5 53.5t48.5 168.5v267q0 27 -17 39t-53 18v28h187v-28q-35 -6 -52 -18t-17 -39v-281q0 -126 -63.5 -195.5t-183.5 -69.5z" glyph-name="Uring" horiz-adv-x="689" unicode="Ů"/><glyph d="M241 544q-41 0 -68.5 27.5t-27.5 66.5t27.5 66.5t68.5 27.5q42 0 69.5 -27.5t27.5 -66.5t-28 -66.5t-69 -27.5zM241 591q20 0 33 13t13 34q0 20 -13 34t-33 14t-32.5 -13.5t-12.5 -34.5t12.5 -34t32.5 -13zM235 -6q-63 0 -104.5 40t-41.5 131v184q0 34 -14 46.5t-50 8.5 v28l129 26q40 8 40 -33v-236q0 -58 26 -93t74 -35q50 0 80 36t30 92v160q0 34 -14 46.5t-50 8.5v28l128 26q41 8 41 -33v-343q0 -48 51 -38v-28q-27 -21 -76 -21q-65 0 -78 61q-2 16 -11 16q-4 0 -13 -9q-57 -69 -147 -69z" glyph-name="uring" horiz-adv-x="585" unicode="ů"/><glyph d="M247 737q-16 -18 -6 -31t32 0l119 71q30 18 38.5 39.5t-8.5 41.5q-34 37 -79 -13zM441 737q-16 -18 -6 -31t32 0l119 71q30 18 38.5 39.5t-8.5 41.5q-34 37 -79 -13zM348 -10q-117 0 -187 67.5t-70 201.5v277q0 27 -15.5 39t-50.5 18v28h251v-28q-35 -6 -50.5 -18 t-15.5 -39v-261q0 -116 43 -172t121 -56q76 0 124.5 53.5t48.5 168.5v267q0 27 -17 39t-53 18v28h187v-28q-35 -6 -52 -18t-17 -39v-281q0 -126 -63.5 -195.5t-183.5 -69.5z" glyph-name="Uhungarumlaut" horiz-adv-x="689" unicode="Ű"/><glyph d="M125 567q-16 -19 -6 -31q10 -13 32 0l120 71q29 18 37.5 39.5t-8.5 41.5q-34 37 -79 -13zM319 567q-16 -18 -6 -31t32 0l120 71q29 18 37.5 39.5t-8.5 41.5q-34 37 -79 -13zM235 -6q-63 0 -104.5 40t-41.5 131v184q0 34 -14 46.5t-50 8.5v28l129 26q40 8 40 -33v-236 q0 -58 26 -93t74 -35q50 0 80 36t30 92v160q0 34 -14 46.5t-50 8.5v28l128 26q41 8 41 -33v-343q0 -48 51 -38v-28q-27 -21 -76 -21q-65 0 -78 61q-2 16 -11 16q-4 0 -13 -9q-57 -69 -147 -69z" glyph-name="uhungarumlaut" horiz-adv-x="585" unicode="ű"/><glyph d="M477 621h187v-28q-35 -6 -52 -18t-17 -39v-281q0 -102 -42 -167.5t-122 -87.5q-84 -54 -84 -113q0 -24 16 -40t40 -16q53 0 74 55h35q-4 -16 -12.5 -31.5t-24.5 -34.5t-44.5 -30.5t-65.5 -11.5q-47 0 -82 23.5t-35 69.5q0 40 29.5 70.5t71.5 48.5h-1q-117 0 -187 67.5 t-70 201.5v277q0 27 -15.5 39t-50.5 18v28h251v-28q-35 -6 -50.5 -18t-15.5 -39v-261q0 -116 43 -172t121 -56q76 0 124.5 53.5t48.5 168.5v267q0 27 -17 39t-53 18v28z" glyph-name="Uogonek" horiz-adv-x="689" unicode="Ų"/><glyph d="M501 -4q-62 -13 -91.5 -34.5t-29.5 -58.5q0 -28 14.5 -43.5t38.5 -15.5q42 0 64 58h35q-4 -16 -12 -31.5t-23.5 -35.5t-44 -32t-64.5 -12q-45 0 -76.5 23t-31.5 70q0 51 43.5 82t109.5 43q-20 16 -27 47q-2 16 -11 16q-4 0 -13 -9q-57 -69 -147 -69q-63 0 -104.5 40 t-41.5 131v184q0 34 -14 46.5t-50 8.5v28l129 26q40 8 40 -33v-236q0 -58 26 -93t74 -35q50 0 80 36t30 92v160q0 34 -14 46.5t-50 8.5v28l128 26q41 8 41 -33v-343q0 -48 51 -38v-28q-21 -17 -59 -20z" glyph-name="uogonek" horiz-adv-x="585" unicode="ų"/><glyph d="M515 880l135 -153l-17 -18l-118 81l-119 -81l-17 18zM308 0l-194 483q-24 61 -41 82.5t-53 27.5v28h246v-28q-43 -7 -51 -26t8 -49l137 -349q10 -24 20 0l77 200q28 74 6 130q-21 50 -37.5 69t-50.5 25v28h246v-28q-43 -7 -51 -26t8 -49l137 -349q10 -24 20 0l131 343 q13 36 -3 55t-62 26v28h210v-28q-39 -8 -60 -27.5t-36 -58.5l-162 -416q-23 -62 -23 -91h-67l-153 381l-112 -290q-24 -61 -24 -91h-66z" glyph-name="Wcircumflex" horiz-adv-x="1031" unicode="Ŵ"/><glyph d="M341 710l135 -153l-17 -18l-118 81l-119 -81l-17 18zM215 0l-124 334q-16 43 -32 60t-49 28v29h220v-29q-39 -11 -44 -27.5t12 -60.5l79 -217q3 -9 8 -12.5t10 0t8 12.5l36 108q26 74 6 129q-10 28 -25 43t-43 25v29h220v-29q-39 -11 -44 -27.5t12 -60.5l79 -217 q3 -9 8.5 -12.5t10.5 0t8 12.5l39 118q27 80 31.5 117t-6.5 49.5t-45 20.5v29h189v-29q-44 -11 -62.5 -28t-35.5 -60l-124 -334h-75l-96 260l-96 -260h-75z" glyph-name="wcircumflex" horiz-adv-x="789" unicode="ŵ"/><glyph d="M330 880l135 -153l-17 -18l-118 81l-119 -81l-17 18zM185 0v28q48 5 66.5 17.5t18.5 39.5v148q0 35 -21 67l-124 194q-33 51 -56 72t-54 27v28h254v-28q-37 -6 -44 -23t15 -53l118 -185q7 -12 14 0l116 184q21 35 9.5 54t-50.5 23v28h196v-28q-33 -4 -56.5 -24t-51.5 -62 l-129 -203q-16 -26 -16 -71v-148q0 -27 18.5 -39.5t66.5 -17.5v-28h-290z" glyph-name="Ycircumflex" horiz-adv-x="658" unicode="Ŷ"/><glyph d="M272 710l135 -153l-17 -18l-118 81l-119 -81l-17 18zM134 -198q-43 0 -69.5 19.5t-26.5 50.5q0 23 15.5 39t40.5 16q23 0 34 -13.5t12.5 -29.5t8 -29.5t21.5 -13.5q29 0 50 58q22 54 -6 123l-123 312q-17 43 -32.5 60t-48.5 28v29h222v-29q-40 -11 -45.5 -27.5 t13.5 -60.5l89 -218q3 -9 8 -12t9.5 0t7.5 12l46 119q30 77 35 115t-6.5 51t-45.5 21v29h188v-29q-43 -11 -61 -27.5t-36 -60.5l-158 -400q-28 -71 -58.5 -101.5t-83.5 -30.5z" glyph-name="ycircumflex" horiz-adv-x="541" unicode="ŷ"/><glyph d="M228 713q-26 0 -44.5 18.5t-18.5 44.5t18.5 44.5t44.5 18.5t44.5 -18.5t18.5 -44.5t-18.5 -44.5t-44.5 -18.5zM431 713q-26 0 -44.5 18.5t-18.5 44.5t18.5 44.5t44.5 18.5t44.5 -18.5t18.5 -44.5t-18.5 -44.5t-44.5 -18.5zM185 0v28q48 5 66.5 17.5t18.5 39.5v148 q0 35 -21 67l-124 194q-33 51 -56 72t-54 27v28h254v-28q-37 -6 -44 -23t15 -53l118 -185q7 -12 14 0l116 184q21 35 9.5 54t-50.5 23v28h196v-28q-33 -4 -56.5 -24t-51.5 -62l-129 -203q-16 -26 -16 -71v-148q0 -27 18.5 -39.5t66.5 -17.5v-28h-290z" glyph-name="Ydieresis" horiz-adv-x="658" unicode="Ÿ"/><glyph d="M281 737q-16 -19 -6 -31q10 -13 32 0l120 71q29 18 38 39.5t-8 41.5q-35 37 -80 -13zM15 0l403 586l-198 -1q-63 0 -92.5 -24t-54.5 -77h-30l28 137h505l-403 -586l224 2q63 0 90.5 22.5t58.5 82.5h30l-33 -142h-528z" glyph-name="Zacute" horiz-adv-x="596" unicode="Ź"/><glyph d="M200 567q-16 -19 -6 -31q10 -13 32 0l120 71q29 18 38 39.5t-8 41.5q-35 37 -80 -13zM15 0l280 413h-143q-36 0 -56 -20.5t-31 -60.5h-29l18 119h384l-280 -413h149q36 0 56 20t32 61h29l-18 -119h-391z" glyph-name="zacute" horiz-adv-x="453" unicode="ź"/><glyph d="M308 713q-26 0 -44.5 18.5t-18.5 44.5t18.5 44.5t44.5 18.5t44.5 -18.5t18.5 -44.5t-18.5 -44.5t-44.5 -18.5zM15 0l403 586l-198 -1q-63 0 -92.5 -24t-54.5 -77h-30l28 137h505l-403 -586l224 2q63 0 90.5 22.5t58.5 82.5h30l-33 -142h-528z" glyph-name="Zdotaccent" horiz-adv-x="596" unicode="Ż"/><glyph d="M227 543q-26 0 -44.5 18.5t-18.5 44.5t18.5 44.5t44.5 18.5t44.5 -18.5t18.5 -44.5t-18.5 -44.5t-44.5 -18.5zM15 0l280 413h-143q-36 0 -56 -20.5t-31 -60.5h-29l18 119h384l-280 -413h149q36 0 56 20t32 61h29l-18 -119h-391z" glyph-name="zdotaccent" horiz-adv-x="453" unicode="ż"/><glyph d="M308 693l-136 153l17 18l119 -81l118 81l17 -18zM15 0l403 586l-198 -1q-63 0 -92.5 -24t-54.5 -77h-30l28 137h505l-403 -586l224 2q63 0 90.5 22.5t58.5 82.5h30l-33 -142h-528z" glyph-name="Zcaron" horiz-adv-x="596" unicode="Ž"/><glyph d="M227 523l-136 153l17 18l119 -81l118 81l17 -18zM15 0l280 413h-143q-36 0 -56 -20.5t-31 -60.5h-29l18 119h384l-280 -413h149q36 0 56 20t32 61h29l-18 -119h-391z" glyph-name="zcaron" horiz-adv-x="453" unicode="ž"/><glyph d="M311 672q62 0 102.5 -28t40.5 -68q0 -23 -15 -36.5t-38 -13.5q-26 0 -38.5 18t-14.5 39t-14.5 39t-37.5 18q-36 0 -48.5 -31.5t-12.5 -94.5v-36q0 -27 24 -27h103v-36h-103q-24 0 -24 -24v-419q0 -89 -51.5 -138.5t-130.5 -49.5q-61 0 -102 28t-41 68q0 24 15 37t38 13 q26 0 38.5 -18t14.5 -39t14.5 -39t37.5 -18q36 0 49 31.5t13 94.5v449q0 24 -25 24h-42v25q35 3 51 10.5t16 27.5v7q0 89 51 138t130 49z" glyph-name="florin" horiz-adv-x="434" unicode="ƒ"/><glyph d="M261 -10q-122 0 -204 52q-22 52 -20.5 103.5t30.5 51.5q14 0 20 -18q25 -72 79 -110t122 -38q54 1 83 26t29 71q0 17 -5.5 31.5t-11.5 25t-21.5 21t-25 16t-33 14.5t-33 12t-37.5 12q-198 64 -198 201q0 80 63.5 128t166.5 48q117 0 195 -49q23 -52 21 -103.5t-31 -51.5 q-14 0 -20 18q-24 70 -74.5 107.5t-111.5 37.5q-54 0 -79.5 -28t-25.5 -66q0 -52 35.5 -80t108.5 -51q31 -10 44.5 -14.5t43 -16.5t45 -21.5t37 -26t32.5 -33.5t19.5 -41t8.5 -51q0 -47 -22 -83t-59.5 -55.5t-80 -29t-90.5 -9.5zM254 -303l-17 19q43 38 43 69q0 17 -17 17 q-26 0 -43 17.5t-17 43.5q0 29 19 47t47 18q34 0 52 -24t18 -61q0 -44 -24 -83t-61 -63z" glyph-name="Scommaaccent" horiz-adv-x="548" unicode="Ș"/><glyph d="M207 -6q-75 0 -128.5 30.5t-53.5 85.5q0 51 45 51q22 0 34.5 -12t12.5 -28q0 -46 32.5 -70t75.5 -24q41 0 61.5 20.5t20.5 51.5q0 18 -7.5 31.5t-26 24t-33.5 16t-45 14.5q-158 46 -158 145q0 59 51 94.5t129 35.5q70 0 121 -27t51 -76q0 -47 -48 -47q-40 0 -40 35 q0 36 -27 59t-68 23q-34 0 -52.5 -16.5t-18.5 -45.5q0 -35 24 -53t72 -32q88 -28 117 -46q60 -38 60 -100q0 -65 -57.5 -102.5t-143.5 -37.5zM199 -303l-17 19q43 38 43 69q0 17 -17 17q-26 0 -43 17.5t-17 43.5q0 29 19 47t47 18q34 0 52 -24t18 -61q0 -44 -24 -83t-61 -63 z" glyph-name="scommaaccent" horiz-adv-x="433" unicode="ș"/><glyph d="M166 0v28q48 5 67 17.5t19 39.5v441q0 34 -13.5 44.5t-62.5 10.5q-51 0 -75.5 -21t-45.5 -82h-30l19 146l57 -3h422l57 3l18 -146h-30q-21 61 -45.5 82t-75.5 21q-49 0 -62.5 -10.5t-13.5 -44.5v-441q0 -27 19 -39.5t67 -17.5v-28h-291zM296 -303l-17 19q43 38 43 69 q0 17 -17 17q-26 0 -43 17.5t-17 43.5q0 29 19 47t47 18q34 0 52 -24t18 -61q0 -44 -24 -83t-61 -63z" glyph-name="uni021A" horiz-adv-x="623" unicode="Ț"/><glyph d="M210 -5q-128 0 -128 146v250q0 14 -6 19t-20 5h-41v25q59 9 89.5 36.5t42.5 81.5h40v-80q0 -27 24 -27h89v-36h-89q-24 0 -24 -24v-268q0 -86 53 -86q33 0 51 15l15 -26q-35 -31 -96 -31zM176 -303l-17 19q43 38 43 69q0 17 -17 17q-26 0 -43 17.5t-17 43.5q0 29 19 47 t47 18q34 0 52 -24t18 -61q0 -44 -24 -83t-61 -63z" glyph-name="uni021B" horiz-adv-x="326" unicode="ț"/><glyph d="M45 -198q-45 0 -77.5 18t-32.5 54q0 22 13 36t34 14t35 -13t19 -28.5t12.5 -28.5t17.5 -13q12 0 18.5 15t6.5 37v456q0 34 -14 46.5t-51 8.5v28l129 26q41 8 41 -33v-475q0 -70 -42.5 -109t-108.5 -39z" glyph-name="uni0237" horiz-adv-x="261" unicode="ȷ"/><glyph d="M151 710l135 -153l-17 -18l-118 81l-119 -81l-17 18z" glyph-name="circumflex" horiz-adv-x="301" unicode="ˆ"/><glyph d="M151 523l-136 153l17 18l119 -81l118 81l17 -18z" glyph-name="caron" horiz-adv-x="301" unicode="ˇ"/><glyph d="M190 552q-62 0 -101 35t-39 93q0 11 9 11h20q9 0 10 -10q7 -26 32.5 -43t68.5 -17t68.5 17t31.5 43q3 10 10 10h21q9 0 9 -11q0 -58 -39 -93t-101 -35z" glyph-name="breve" horiz-adv-x="380" unicode="˘"/><glyph d="M113 543q-26 0 -44.5 18.5t-18.5 44.5t18.5 44.5t44.5 18.5t44.5 -18.5t18.5 -44.5t-18.5 -44.5t-44.5 -18.5z" glyph-name="dotaccent" horiz-adv-x="226" unicode="˙"/><glyph d="M147 544q-41 0 -69 27.5t-28 66.5t28 66.5t69 27.5t69 -27.5t28 -66.5t-28 -66.5t-69 -27.5zM147 591q20 0 33 13t13 34q0 20 -13 34t-33 14t-33 -14t-13 -34q0 -21 13 -34t33 -13z" glyph-name="ring" horiz-adv-x="294" unicode="˚"/><glyph d="M301 -95q-4 -16 -12.5 -31.5t-24.5 -34.5t-44.5 -30.5t-65.5 -11.5q-47 0 -82 23.5t-35 69.5q0 48 41 82t91 48h52q-85 -55 -85 -114q0 -24 16 -40t40 -16q53 0 74 55h35z" glyph-name="ogonek" horiz-adv-x="341" unicode="˛"/><glyph d="M317 541q-44 0 -108.5 33t-85.5 33q-19 0 -32 -12t-13 -34h-28q0 54 29 84t76 30q44 0 108.5 -33.5t85.5 -33.5q19 0 32 11.5t13 34.5h28q0 -54 -28.5 -83.5t-76.5 -29.5z" glyph-name="tilde" horiz-adv-x="472" unicode="˜"/><glyph d="M58 567q-16 -18 -6 -31t32 0l119 71q30 18 38.5 39.5t-8.5 41.5q-34 37 -79 -13zM252 567q-16 -18 -6 -31t32 0l119 71q30 18 38.5 39.5t-8.5 41.5q-34 37 -79 -13z" glyph-name="hungarumlaut" horiz-adv-x="493" unicode="˝"/><glyph d="M-237 567q-16 -19 -6 -31q10 -13 32 0l120 71q29 18 38 39.5t-8 41.5q-35 37 -80 -13z" glyph-name="acutecomb" horiz-adv-x="0" unicode="́"/><glyph d="M-135 -303l-17 19q43 38 43 69q0 17 -17 17q-26 0 -43 17.5t-17 43.5q0 29 19 47t47 18q34 0 52 -24t18 -61q0 -44 -24 -83t-61 -63z" glyph-name="uni0326" horiz-adv-x="0" unicode="̦"/><glyph d="M20 0l287 634l298 -634h-585zM107 88h352l-176 386z" glyph-name="Delta" horiz-adv-x="625" unicode="Δ"/><glyph d="M636 122h50l-29 -99q-8 -23 -30 -23h-195v141q55 5 87 61t32 151q0 107 -50.5 167t-137.5 60t-137.5 -60t-50.5 -167q0 -95 32 -151t88 -61v-141h-196q-22 0 -30 23l-29 99h50l17 -27q11 -19 26 -24.5t43 -7.5l59 -3q15 -2 15 19q-86 24 -142 97t-56 167q0 117 89 205.5 t222 88.5t222 -88.5t89 -205.5q0 -89 -57 -164t-141 -99q0 -22 15 -20l54 3q32 2 47.5 7.5t26.5 24.5z" glyph-name="Omega" horiz-adv-x="726" unicode="Ω"/><glyph d="M509 82q0 -48 51 -38v-28q-27 -21 -76 -21q-65 0 -78 61q-2 16 -11 16q-4 0 -13 -9q-57 -69 -147 -69q-53 0 -89 27q3 -41 14 -70.5t22 -42t18.5 -23t6.5 -18.5q-6 -43 -46 -61q-38 -18 -60 8q-12 15 -12 41v494q0 34 -14 46.5t-50 8.5v28l129 26q40 8 40 -33v-236 q0 -58 26 -93t74 -35q50 0 80 36t30 92v160q0 34 -14 46.5t-50 8.5v28l128 26q41 8 41 -33v-343z" glyph-name="mu" horiz-adv-x="585" unicode="μ"/><glyph d="M638 111q37 -16 22 -70q-10 -35 -57.5 -47t-96.5 8q-79 31 -79 128v243h-122v-257q0 -55 -35.5 -88.5t-77.5 -33.5q-46 0 -74 10l-13 47q40 -9 71.5 14t31.5 69v239h-49q-29 0 -42.5 -21.5t-3.5 -59.5l-36 24q-12 33 -12 58q0 34 23.5 55.5t63.5 21.5h472v-78h-73 q-15 0 -21.5 -7t-6.5 -24v-244q0 -42 24 -52q8 -3 14.5 6t13 25t8.5 20q20 30 55 14z" glyph-name="pi" horiz-adv-x="728" unicode="π"/><glyph d="M341 737l-96 108q-45 50 -79 13q-17 -20 -8.5 -41.5t37.5 -39.5l120 -71q22 -13 32 0t-6 31zM30 0v28q34 6 50 18.5t16 38.5v451q0 27 -15.5 39t-50.5 18v28h473q14 0 15 -11q6 -60 20 -118h-21q-22 47 -51 68t-76 21h-113q-33 0 -47.5 -11t-14.5 -39v-147q0 -27 15 -38 t47 -11h78q49 0 66 16t24 55h18v-182h-18q-7 38 -24.5 54.5t-65.5 16.5h-78q-32 0 -47 -11t-15 -38v-157q0 -27 17.5 -38.5t61.5 -10.5l112 1q48 1 72 13.5t40 36.5l24 37h22q-22 -42 -30 -114q-2 -14 -16 -14h-488z" glyph-name="uni0400" horiz-adv-x="584" unicode="Ѐ"/><glyph d="M197 713q-26 0 -44.5 18.5t-18.5 44.5t18.5 44.5t44.5 18.5t44.5 -18.5t18.5 -44.5t-18.5 -44.5t-44.5 -18.5zM400 713q-26 0 -44.5 18.5t-18.5 44.5t18.5 44.5t44.5 18.5t44.5 -18.5t18.5 -44.5t-18.5 -44.5t-44.5 -18.5zM30 0v28q34 6 50 18.5t16 38.5v451 q0 27 -15.5 39t-50.5 18v28h473q14 0 15 -11q6 -60 20 -118h-21q-22 47 -51 68t-76 21h-113q-33 0 -47.5 -11t-14.5 -39v-147q0 -27 15 -38t47 -11h78q49 0 66 16t24 55h18v-182h-18q-7 38 -24.5 54.5t-65.5 16.5h-78q-32 0 -47 -11t-15 -38v-157q0 -27 17.5 -38.5 t61.5 -10.5l112 1q48 1 72 13.5t40 36.5l24 37h22q-22 -42 -30 -114q-2 -14 -16 -14h-488z" glyph-name="afii10023" horiz-adv-x="584" unicode="Ё"/><glyph d="M253 737q-16 -19 -6 -31q10 -13 32 0l120 71q29 18 38 39.5t-8 41.5q-35 37 -80 -13zM30 0v28q34 6 50 18.5t16 38.5v451q0 27 -15.5 39t-50.5 18v28h469l31 -128h-30q-27 54 -48 73.5t-54 19.5h-117q-35 0 -50.5 -10.5t-15.5 -39.5v-451q0 -27 17 -39.5t59 -17.5v-28 h-261z" glyph-name="afii10052" horiz-adv-x="555" unicode="Ѓ"/><glyph d="M597 143l20 -16q-27 -49 -92.5 -93t-163.5 -44q-136 0 -233.5 87.5t-97.5 232.5q0 149 101.5 238t241.5 89q109 0 175 -50.5t66 -112.5q0 -31 -18 -52.5t-52 -21.5q-31 0 -49 20t-18 52q0 50 -33 90t-99 40q-81 0 -133.5 -62t-55.5 -167q3 -45 37 -45h206v-43h-199 q-35 0 -26 -39q29 -86 98 -135t155 -49q97 0 170 81z" glyph-name="afii10053" horiz-adv-x="652" unicode="Є"/><glyph d="M261 -10q-122 0 -204 52q-22 52 -20.5 103.5t30.5 51.5q14 0 20 -18q25 -72 79 -110t122 -38q54 1 83 26t29 71q0 17 -5.5 31.5t-11.5 25t-21.5 21t-25 16t-33 14.5t-33 12t-37.5 12q-198 64 -198 201q0 80 63.5 128t166.5 48q117 0 195 -49q23 -52 21 -103.5t-31 -51.5 q-14 0 -20 18q-24 70 -74.5 107.5t-111.5 37.5q-54 0 -79.5 -28t-25.5 -66q0 -52 35.5 -80t108.5 -51q31 -10 44.5 -14.5t43 -16.5t45 -21.5t37 -26t32.5 -33.5t19.5 -41t8.5 -51q0 -47 -22 -83t-59.5 -55.5t-80 -29t-90.5 -9.5z" glyph-name="afii10054" horiz-adv-x="548" unicode="Ѕ"/><glyph d="M30 0v28q34 6 50 18.5t16 38.5v451q0 27 -15.5 39t-50.5 18v28h251v-28q-35 -6 -50.5 -18t-15.5 -39v-451q0 -27 15.5 -39t50.5 -18v-28h-251z" glyph-name="afii10055" horiz-adv-x="311" unicode="І"/><glyph d="M53 713q-26 0 -44.5 18.5t-18.5 44.5t18.5 44.5t44.5 18.5t44.5 -18.5t18.5 -44.5t-18.5 -44.5t-44.5 -18.5zM256 713q-26 0 -44.5 18.5t-18.5 44.5t18.5 44.5t44.5 18.5t44.5 -18.5t18.5 -44.5t-18.5 -44.5t-44.5 -18.5zM30 0v28q34 6 50 18.5t16 38.5v451 q0 27 -15.5 39t-50.5 18v28h251v-28q-35 -6 -50.5 -18t-15.5 -39v-451q0 -27 15.5 -39t50.5 -18v-28h-251z" glyph-name="afii10056" horiz-adv-x="311" unicode="Ї"/><glyph d="M121 -10q-64 0 -102.5 26.5t-38.5 69.5q0 29 16.5 46t43.5 17q52 0 52 -60q0 -29 11 -48t31 -19q38 0 38 66v448q0 27 -17 39.5t-59 17.5v28h260v-28q-34 -6 -49.5 -18t-15.5 -39v-391q0 -80 -49 -117.5t-121 -37.5z" glyph-name="afii10057" horiz-adv-x="386" unicode="Ј"/><glyph d="M255 777q-29 18 -37.5 39.5t8.5 41.5q34 37 79 -13l96 -108q16 -18 6 -31t-32 0zM677 593q-35 -6 -50.5 -18t-15.5 -39v-451q0 -27 15.5 -39t50.5 -18v-28h-251v28q34 6 50 18.5t16 38.5v359l-277 -328v-31q0 -27 15.5 -39t50.5 -18v-28h-251v28q34 6 50 18.5t16 38.5 v451q0 27 -15.5 39t-50.5 18v28h251v-28q-35 -6 -50.5 -18t-15.5 -39v-364l277 328v36q0 27 -15.5 39t-50.5 18v28h251v-28z" glyph-name="uni040D" horiz-adv-x="707" unicode="Ѝ"/><glyph d="M348 722q-62 0 -101 35t-39 93q0 11 9 11h20q9 0 10 -10q7 -26 32.5 -43t68.5 -17t68.5 17t31.5 43q3 10 10 10h21q9 0 9 -11q0 -58 -39 -93t-101 -35zM448 621h195v-28q-31 -4 -48.5 -22t-34.5 -52l-180 -355q-51 -99 -94 -139t-103 -40q-50 0 -82 23t-32 59q0 25 16 40 t42 15q22 0 33.5 -13.5t13 -29t9.5 -29t26 -13.5q46 0 97 87l-196 370q-3 6 -10.5 20t-10 18.5t-8.5 14.5t-8.5 13t-8 10t-10 9t-11 6t-13.5 5.5t-15 2.5v28h250v-28q-72 -8 -32 -84l137 -262l137 272q14 29 -4 49.5t-55 24.5v28z" glyph-name="afii10062" horiz-adv-x="658" unicode="Ў"/><glyph d="M605 138q16 -36 22 -48t18 -29.5t24 -23.5t31 -9v-28h-251v28q43 7 51 26t-8 49l-21 48q-17 29 -56 29h-176q-41 0 -58 -31l-17 -40q-29 -67 66 -81v-28h-210v28q38 8 58.5 27t37.5 59l181 416q23 55 23 91l68 7zM415 219q10 0 14 6t0 19l27 -60l-121 275q-11 23 -20 -1 l-96 -223l3 8q-5 -11 0 -17.5t14 -6.5h179z" glyph-name="afii10017" unicode="А"/><glyph d="M319 392q129 0 199 -53t70 -146q0 -92 -69.5 -142.5t-199.5 -50.5h-289v28q34 6 50 18.5t16 38.5v451q0 27 -15.5 39t-50.5 18v28h469l31 -128h-30q-27 54 -48 73.5t-54 19.5h-117q-35 0 -50.5 -10.5t-15.5 -39.5v-91q0 -28 12.5 -40.5t42.5 -12.5h49zM319 43 q148 0 148 152q0 154 -148 154h-49q-30 0 -42.5 -12.5t-12.5 -40.5v-208q0 -45 42 -45h62z" glyph-name="afii10018" horiz-adv-x="623" unicode="Б"/><glyph d="M30 0v28q34 6 50 18.5t16 38.5v451q0 27 -15.5 39t-50.5 18v28h297q250 0 250 -146q0 -112 -147 -141q89 -13 135 -54.5t46 -107.5q0 -78 -60.5 -125t-158.5 -47q-16 0 -90.5 4t-147 4t-124.5 -8zM277 352h57q62 0 91 32t29 85q0 117 -125 117h-52q-33 0 -47.5 -11 t-14.5 -39v-135q0 -27 15 -38t47 -11zM254 39h92q142 0 142 131q0 75 -50 111t-166 36q-29 0 -43 -11t-14 -38v-188q0 -41 39 -41z" glyph-name="afii10019" horiz-adv-x="646" unicode="В"/><glyph d="M30 0v28q34 6 50 18.5t16 38.5v451q0 27 -15.5 39t-50.5 18v28h469l31 -128h-30q-27 54 -48 73.5t-54 19.5h-117q-35 0 -50.5 -10.5t-15.5 -39.5v-451q0 -27 17 -39.5t59 -17.5v-28h-261z" glyph-name="afii10020" horiz-adv-x="555" unicode="Г"/><glyph d="M25 -115v144q0 10 10 11q83 12 114.5 139.5t31.5 356.5q0 30 -17 42t-62 15v28h576v-28q-40 -3 -59.5 -15.5t-19.5 -41.5v-448q0 -48 69 -48q16 0 13 -18l-23 -137h-28q0 76 -35.5 95.5t-169.5 19.5h-160q-129 0 -170.5 -23.5t-41.5 -91.5h-28zM109 40h313q58 0 58 49 v446q0 29 -13.5 37.5t-44.5 8.5h-152q-51 0 -51 -44q0 -437 -110 -497z" glyph-name="afii10021" horiz-adv-x="712" unicode="Д"/><glyph d="M30 0v28q34 6 50 18.5t16 38.5v451q0 27 -15.5 39t-50.5 18v28h473q14 0 15 -11q6 -60 20 -118h-21q-22 47 -51 68t-76 21h-113q-33 0 -47.5 -11t-14.5 -39v-147q0 -27 15 -38t47 -11h78q49 0 66 16t24 55h18v-182h-18q-7 38 -24.5 54.5t-65.5 16.5h-78q-32 0 -47 -11 t-15 -38v-157q0 -27 17.5 -38.5t61.5 -10.5l112 1q48 1 72 13.5t40 36.5l24 37h22q-22 -42 -30 -114q-2 -14 -16 -14h-488z" glyph-name="afii10022" horiz-adv-x="584" unicode="Е"/><glyph d="M884 119q36 -48 65 -66t65 -25v-28h-271v28q65 11 26 62l-117 155q-36 48 -70 48h-6v-208q0 -26 16 -38.5t50 -18.5v-28h-250v28q34 6 49.5 18t15.5 39v208h-5q-34 0 -70 -48l-117 -155q-39 -51 26 -62v-28h-271v28q36 7 64.5 25t65.5 66l153 202q14 20 15.5 34t-13.5 37 l-120 146q-10 15 -22.5 12.5t-20.5 -12t-23.5 -20t-33.5 -10.5q-25 0 -42 17t-17 42q0 27 21 44t56 17q13 0 23.5 -2t21 -7.5t17 -9.5t16 -14.5t14 -15t15 -17.5t13.5 -17l129 -156q46 -55 100 -55h5v202q0 27 -15.5 39t-49.5 18v28h250v-28q-35 -6 -50.5 -18t-15.5 -39 v-202h6q54 0 100 55l129 156q3 4 13.5 17t15 17.5t14 15t16 14.5t17 9.5t21 7.5t23.5 2q35 0 56 -17t21 -44q0 -25 -17 -42t-42 -17q-18 0 -33.5 10.5t-23.5 20t-20.5 12t-22.5 -12.5l-120 -146q-15 -23 -14 -37t16 -34z" glyph-name="afii10024" horiz-adv-x="1034" unicode="Ж"/><glyph d="M275 -12q-100 0 -170 48t-70 126q0 68 58 68q28 0 37.5 -12t14.5 -44.5t12 -51.5q37 -100 125 -100q63 0 101 50.5t38 121.5q0 63 -31.5 97t-80.5 34q-35 0 -74 -19l-13 32q93 31 132.5 61.5t39.5 88.5q0 49 -25.5 78.5t-80.5 29.5q-60 0 -111 -37.5t-75 -107.5 q-6 -18 -19 -18q-29 0 -31 51.5t20 103.5q79 49 201 49q101 0 162.5 -40.5t61.5 -103.5q0 -52 -39.5 -83t-90.5 -45q58 4 113.5 -39.5t55.5 -124.5q0 -93 -75.5 -153t-185.5 -60z" glyph-name="afii10025" horiz-adv-x="576" unicode="З"/><glyph d="M677 593q-35 -6 -50.5 -18t-15.5 -39v-451q0 -27 15.5 -39t50.5 -18v-28h-251v28q34 6 50 18.5t16 38.5v359l-277 -328v-31q0 -27 15.5 -39t50.5 -18v-28h-251v28q34 6 50 18.5t16 38.5v451q0 27 -15.5 39t-50.5 18v28h251v-28q-35 -6 -50.5 -18t-15.5 -39v-364l277 328 v36q0 27 -15.5 39t-50.5 18v28h251v-28z" glyph-name="afii10026" horiz-adv-x="707" unicode="И"/><glyph d="M358 722q-62 0 -101 35t-39 93q0 11 9 11h20q9 0 10 -10q7 -26 32.5 -43t68.5 -17t68.5 17t31.5 43q3 10 10 10h21q9 0 9 -11q0 -58 -39 -93t-101 -35zM677 593q-35 -6 -50.5 -18t-15.5 -39v-451q0 -27 15.5 -39t50.5 -18v-28h-251v28q34 6 50 18.5t16 38.5v359 l-277 -328v-31q0 -27 15.5 -39t50.5 -18v-28h-251v28q34 6 50 18.5t16 38.5v451q0 27 -15.5 39t-50.5 18v28h251v-28q-35 -6 -50.5 -18t-15.5 -39v-364l277 328v36q0 27 -15.5 39t-50.5 18v28h251v-28z" glyph-name="afii10027" horiz-adv-x="707" unicode="Й"/><glyph d="M522 119q37 -48 65.5 -66t64.5 -25v-28h-271v28q65 11 26 62l-116 155q-36 48 -71 48h-5v-208q0 -27 15.5 -39t50.5 -18v-28h-251v28q34 6 50 18.5t16 38.5v451q0 27 -15.5 39t-50.5 18v28h251v-28q-35 -6 -50.5 -18t-15.5 -39v-202h5q55 0 101 55l128 156q3 4 13.5 17 t15 17.5t14 15t16 14.5t17 9.5t21 7.5t23.5 2q35 0 56.5 -17t21.5 -44q0 -25 -17.5 -42t-41.5 -17q-18 0 -34 10.5t-24 20t-20 12t-22 -12.5l-120 -146q-16 -23 -14.5 -37t15.5 -34z" glyph-name="afii10028" horiz-adv-x="672" unicode="К"/><glyph d="M117 -11q-46 0 -74 20.5t-28 55.5q0 25 14.5 39.5t38.5 14.5q22 0 30.5 -13.5t8 -30t5.5 -30t24 -13.5q36 0 47 45t11 144v315q0 28 -17.5 40t-61.5 17v28h589v-28q-35 -6 -50.5 -18t-15.5 -39v-451q0 -27 15.5 -39t50.5 -18v-28h-251v28q34 6 50 18.5t16 38.5v451 q0 27 -15.5 36t-50.5 9h-147q-32 0 -46.5 -9t-14.5 -36v-293v-20v-47t-2.5 -44.5t-7 -45t-13.5 -37.5t-22.5 -32.5t-34.5 -19.5t-48 -8z" glyph-name="afii10029" horiz-adv-x="734" unicode="Л"/><glyph d="M821 593q-34 -6 -49.5 -18t-15.5 -39v-451q0 -27 15.5 -39t49.5 -18v-28h-250v28q34 6 49.5 18t15.5 39v434l-222 -459h-36l-232 458v-433q0 -26 16 -38.5t50 -18.5v-28h-182v28q34 6 50 18.5t16 38.5v451q0 27 -15.5 39t-50.5 18v28h186l216 -426l204 426h185v-28z" glyph-name="afii10030" horiz-adv-x="851" unicode="М"/><glyph d="M690 593q-35 -6 -50.5 -18t-15.5 -39v-451q0 -26 16 -38.5t50 -18.5v-28h-251v28q34 6 50 18.5t16 38.5v167q0 33 -39 33h-212q-39 0 -39 -33v-167q0 -27 15.5 -39t50.5 -18v-28h-251v28q34 6 50 18.5t16 38.5v451q0 27 -15.5 39t-50.5 18v28h251v-28q-35 -6 -50.5 -18 t-15.5 -39v-174q0 -34 40 -34h210q40 0 40 34v174q0 27 -15.5 39t-50.5 18v28h251v-28z" glyph-name="afii10031" unicode="Н"/><glyph d="M349 -10q-133 0 -226 88.5t-93 229.5q0 144 96.5 236.5t235.5 92.5q133 0 226 -88.5t93 -227.5q0 -146 -96.5 -238.5t-235.5 -92.5zM377 31q71 0 122 60t51 184q0 139 -62.5 230t-153.5 91q-71 0 -122 -59.5t-51 -182.5q0 -140 62.5 -231.5t153.5 -91.5z" glyph-name="afii10032" horiz-adv-x="711" unicode="О"/><glyph d="M690 593q-35 -6 -50.5 -18t-15.5 -39v-451q0 -26 16 -38.5t50 -18.5v-28h-251v28q34 6 50 18.5t16 38.5v451q0 22 -10 33q-11 9 -29 9h-212q-20 0 -30 -9q-9 -12 -9 -33v-451q0 -27 15.5 -39t50.5 -18v-28h-251v28q34 6 50 18.5t16 38.5v451q0 27 -15.5 39t-50.5 18v28 h660v-28z" glyph-name="afii10033" unicode="П"/><glyph d="M30 0v28q34 6 50 18.5t16 38.5v451q0 27 -15.5 39t-50.5 18v28h289q130 0 199.5 -50.5t69.5 -142.5q0 -93 -70 -146t-199 -53h-49q-30 0 -42.5 -12.5t-12.5 -40.5v-91q0 -27 17 -39.5t59 -17.5v-28h-261zM270 272h49q148 0 148 154q0 152 -148 152h-62q-42 0 -42 -45 v-208q0 -28 12.5 -40.5t42.5 -12.5z" glyph-name="afii10034" horiz-adv-x="613" unicode="Р"/><glyph d="M361 -10q-136 0 -233.5 87.5t-97.5 232.5q0 149 101.5 238t241.5 89q109 0 175 -50.5t66 -112.5q0 -31 -18 -52.5t-52 -21.5q-31 0 -49 20t-18 52q0 50 -33 90t-99 40q-83 0 -136 -65.5t-53 -176.5q0 -135 79 -216.5t192 -81.5q97 0 170 81l20 -16q-27 -49 -92.5 -93 t-163.5 -44z" glyph-name="afii10035" horiz-adv-x="652" unicode="С"/><glyph d="M166 0v28q48 5 67 17.5t19 39.5v441q0 34 -13.5 44.5t-62.5 10.5q-51 0 -75.5 -21t-45.5 -82h-30l19 146l57 -3h422l57 3l18 -146h-30q-21 61 -45.5 82t-75.5 21q-49 0 -62.5 -10.5t-13.5 -44.5v-441q0 -27 19 -39.5t67 -17.5v-28h-291z" glyph-name="afii10036" horiz-adv-x="623" unicode="Т"/><glyph d="M448 621h195v-28q-31 -4 -48.5 -22t-34.5 -52l-180 -355q-51 -99 -94 -139t-103 -40q-50 0 -82 23t-32 59q0 25 16 40t42 15q22 0 33.5 -13.5t13 -29t9.5 -29t26 -13.5q46 0 97 87l-196 370q-3 6 -10.5 20t-10 18.5t-8.5 14.5t-8.5 13t-8 10t-10 9t-11 6t-13.5 5.5 t-15 2.5v28h250v-28q-72 -8 -32 -84l137 -262l137 272q14 29 -4 49.5t-55 24.5v28z" glyph-name="afii10037" horiz-adv-x="658" unicode="У"/><glyph d="M260 0v28q34 6 50 17t16 36q0 26 -13 37t-42 11h-20q-104 0 -162.5 47.5t-58.5 134.5t58.5 134.5t162.5 47.5h20q29 0 42 11t13 36t-16 36t-50 17v28h251v-28q-34 -6 -50 -17t-16 -36t13 -36t42 -11h20q104 0 162.5 -47.5t58.5 -134.5t-58.5 -134.5t-162.5 -47.5h-20 q-29 0 -42 -11t-13 -37q0 -25 16 -36t50 -17v-28h-251zM251 172h20q30 0 42.5 12.5t12.5 40.5v172q0 28 -12.5 40.5t-42.5 12.5h-20q-54 0 -81.5 -38t-27.5 -101t27.5 -101t81.5 -38zM500 172h20q54 0 81.5 37.5t27.5 101.5t-27.5 101.5t-81.5 37.5h-20q-30 0 -42.5 -12.5 t-12.5 -40.5v-172q0 -28 12.5 -40.5t42.5 -12.5z" glyph-name="afii10038" horiz-adv-x="771" unicode="Ф"/><glyph d="M550 126q36 -49 62.5 -72t59.5 -26v-28h-262v28q72 8 31 64l-120 165q-142 -171 -127 -211q6 -16 34 -18v-28h-208v28q40 3 92.5 46.5t148.5 166.5l37 47l-149 206q-37 50 -63.5 73t-59.5 26v28h261v-28q-72 -8 -31 -63l117 -161q142 170 122 208q-7 14 -33 16v28h207 v-28q-39 -3 -91 -46.5t-149 -166.5l-33 -42z" glyph-name="afii10039" horiz-adv-x="692" unicode="Х"/><glyph d="M693 40q16 0 13 -18l-23 -137h-28q0 41 -6.5 62t-31.5 34t-62 16t-110 3h-415v28q34 6 50 18.5t16 38.5v451q0 27 -15.5 39t-50.5 18v28h251v-28q-35 -6 -50.5 -18t-15.5 -39v-448q0 -48 60 -48h172q58 0 58 48v448q0 27 -15.5 39t-50.5 18v28h251v-28q-35 -6 -50.5 -18 t-15.5 -39v-448q0 -48 69 -48z" glyph-name="afii10040" horiz-adv-x="731" unicode="Ц"/><glyph d="M426 0v28q34 6 50 18.5t16 38.5v109q0 37 -17 37q-6 0 -12 -7q-20 -24 -70 -46t-111 -22q-76 0 -130.5 44t-54.5 139v197q0 27 -16 39t-51 18v28h254v-28q-36 -6 -52 -18t-16 -39v-173q0 -61 36.5 -98t109.5 -37q60 0 95 37t35 94v177q0 27 -15.5 39t-50.5 18v28h251v-28 q-35 -6 -50.5 -18t-15.5 -39v-451q0 -27 15.5 -39t50.5 -18v-28h-251z" glyph-name="afii10041" horiz-adv-x="707" unicode="Ч"/><glyph d="M908 593q-35 -6 -50.5 -18t-15.5 -39v-451q0 -26 16 -38.5t50 -18.5v-28h-878v28q34 6 50 18.5t16 38.5v451q0 27 -15.5 39t-50.5 18v28h251v-28q-35 -6 -50.5 -18t-15.5 -39v-448q0 -48 65 -48h70q59 0 59 48v448q0 27 -15.5 39t-49.5 18v28h250v-28q-35 -6 -50.5 -18 t-15.5 -39v-448q0 -48 66 -48h70q59 0 59 48v448q0 27 -15.5 39t-50.5 18v28h251v-28z" glyph-name="afii10042" horiz-adv-x="938" unicode="Ш"/><glyph d="M908 40q16 0 13 -18l-23 -137h-28q0 41 -6.5 62t-31.5 34t-62 16t-110 3h-633v28q34 6 50 18.5t16 38.5v451q0 27 -15.5 39t-50.5 18v28h251v-28q-35 -6 -50.5 -18t-15.5 -39v-448q0 -48 66 -48h70q59 0 59 48v448q0 27 -15.5 39t-50.5 18v28h251v-28q-35 -6 -50.5 -18 t-15.5 -39v-448q0 -48 65 -48h70q58 0 59 46v2v448q0 27 -15.5 39t-49.5 18v28h250v-28q-35 -6 -50.5 -18t-15.5 -39v-448q0 -48 69 -48z" glyph-name="afii10043" horiz-adv-x="947" unicode="Щ"/><glyph d="M422 392q129 0 198.5 -53t69.5 -146q0 -92 -69 -142.5t-199 -50.5h-290v28q34 6 50 18.5t16 38.5v451q0 24 -15.5 37t-39.5 13q-31 0 -51.5 -19.5t-46.5 -73.5h-30l31 128h337v-28q-35 -6 -50.5 -18t-15.5 -39v-91q0 -28 12.5 -40.5t42.5 -12.5h50zM422 43q147 0 147 152 q0 154 -147 154h-50q-30 0 -42.5 -12.5t-12.5 -40.5v-208q0 -45 42 -45h63z" glyph-name="afii10044" horiz-adv-x="715" unicode="Ъ"/><glyph d="M319 392q129 0 199 -53t70 -146q0 -92 -69.5 -142.5t-199.5 -50.5h-289v28q34 6 50 18.5t16 38.5v451q0 27 -15.5 39t-50.5 18v28h251v-28q-35 -6 -50.5 -18t-15.5 -39v-91q0 -28 12.5 -40.5t42.5 -12.5h49zM854 593q-34 -6 -49.5 -18t-15.5 -39v-451q0 -27 15.5 -39 t49.5 -18v-28h-250v28q34 6 50 18.5t16 38.5v451q0 27 -15.5 39t-50.5 18v28h250v-28zM319 43q148 0 148 152q0 154 -148 154h-49q-30 0 -42.5 -12.5t-12.5 -40.5v-208q0 -45 42 -45h62z" glyph-name="afii10045" horiz-adv-x="884" unicode="Ы"/><glyph d="M319 392q129 0 199 -53t70 -146q0 -92 -69.5 -142.5t-199.5 -50.5h-289v28q34 6 50 18.5t16 38.5v451q0 27 -15.5 39t-50.5 18v28h251v-28q-35 -6 -50.5 -18t-15.5 -39v-91q0 -28 12.5 -40.5t42.5 -12.5h49zM319 43q148 0 148 152q0 154 -148 154h-49q-30 0 -42.5 -12.5 t-12.5 -40.5v-208q0 -45 42 -45h62z" glyph-name="afii10046" horiz-adv-x="618" unicode="Ь"/><glyph d="M279 637q140 0 241.5 -89t101.5 -238q0 -145 -97.5 -232.5t-233.5 -87.5q-98 0 -163.5 44t-92.5 93l20 16q73 -81 170 -81q86 0 155 49t98 135q9 39 -26 39h-199v43h206q34 0 37 45q-3 105 -55.5 167t-133.5 62q-66 0 -99 -40t-33 -90q0 -32 -18 -52t-49 -20 q-34 0 -52 21.5t-18 52.5q0 62 66 112.5t175 50.5z" glyph-name="afii10047" horiz-adv-x="652" unicode="Э"/><glyph d="M652 637q133 0 226 -88.5t93 -227.5q0 -146 -96.5 -238.5t-236.5 -92.5q-127 0 -218.5 82.5t-98.5 214.5h-106v-202q0 -27 15.5 -39t50.5 -18v-28h-251v28q34 6 50 18.5t16 38.5v451q0 27 -15.5 39t-50.5 18v28h251v-28q-35 -6 -50.5 -18t-15.5 -39v-206h106 q7 136 102 221.5t229 85.5zM666 31q71 0 122 60t51 184q0 139 -62.5 230t-152.5 91q-71 0 -122 -59.5t-51 -182.5q0 -140 62.5 -231.5t152.5 -91.5z" glyph-name="afii10048" horiz-adv-x="1001" unicode="Ю"/><glyph d="M624 0h-261v28q42 5 59 17.5t17 39.5v136q0 29 -14 41t-50 12q-50 0 -78.5 -24t-49.5 -84q-31 -91 -68 -128.5t-115 -37.5h-44v28q31 0 48.5 30.5t41.5 104.5q17 53 43.5 82.5t71.5 41.5q3 1 4.5 3.5t0 5t-4.5 2.5q-148 28 -148 154q0 81 63.5 125t177.5 44h306v-28 q-35 -6 -50.5 -18t-15.5 -39v-451q0 -26 16 -38.5t50 -18.5v-28zM384 317q30 0 42.5 12.5t12.5 40.5v163q0 45 -42 45h-74q-65 0 -94.5 -35t-29.5 -92q0 -59 31 -96.5t100 -37.5h54z" glyph-name="afii10049" horiz-adv-x="654" unicode="Я"/><glyph d="M161 -6q-56 0 -93.5 27.5t-37.5 82.5q0 63 61 101t210 58q18 2 25 9.5t7 24.5v16q0 114 -95 114q-70 0 -70 -73q0 -28 -15.5 -42.5t-40.5 -14.5q-24 0 -37.5 14.5t-13.5 36.5q0 51 65 81.5t149 30.5q87 0 125 -40t38 -135v-203q0 -49 50 -38v-28q-27 -21 -75 -21 q-36 0 -56.5 18.5t-22.5 50.5q0 5 -3 7.5t-6.5 1t-7.5 -6.5q-59 -72 -156 -72zM217 53q48 0 82 31t34 75v41q0 19 -8.5 26.5t-31.5 5.5q-85 -9 -119.5 -38t-34.5 -65q0 -32 20 -54t58 -22z" glyph-name="afii10065" horiz-adv-x="508" unicode="а"/><glyph d="M266 -6q-31 0 -60.5 7.5t-62 29t-56.5 55t-40 92t-17 133.5q-1 157 63.5 233.5t195.5 76.5h51q38 0 53 3.5t26 15.5h29q0 -63 -36.5 -88t-118.5 -25h-53q-161 0 -161 -102q0 -50 36 -50q12 0 30.5 13.5t37 29t51 29t68.5 13.5q83 0 139 -60.5t56 -165.5 q0 -113 -66.5 -176.5t-164.5 -63.5zM277 31q50 0 80.5 44t30.5 117q0 89 -41 146.5t-99 57.5q-49 0 -79 -43.5t-30 -117.5q0 -89 40.5 -146.5t97.5 -57.5z" glyph-name="afii10066" horiz-adv-x="527" unicode="б"/><glyph d="M30 0v28q32 5 43 14.5t11 36.5v298q0 24 -12 33t-42 13v28h236q183 0 183 -107q0 -38 -25.5 -64t-73.5 -36q58 -10 91 -40.5t33 -77.5q0 -126 -203 -126q-49 0 -88.5 2t-45.5 2q-62 0 -107 -4zM214 262h47q84 0 84 75q0 78 -84 78h-47q-25 0 -25 -25v-103q0 -25 25 -25z M221 37h49q100 0 100 91q0 49 -32.5 73.5t-108.5 24.5h-15q-25 0 -25 -25v-126q0 -38 32 -38z" glyph-name="afii10067" horiz-adv-x="499" unicode="в"/><glyph d="M30 0v28q31 5 42.5 14.5t11.5 34.5v300q0 24 -12 33t-42 13v28h383l21 -113h-28q-21 47 -42.5 62t-77.5 15h-72q-25 0 -25 -26v-312q0 -25 11.5 -34.5t41.5 -14.5v-28h-212z" glyph-name="afii10068" horiz-adv-x="462" unicode="г"/><glyph d="M20 -110v136q0 10 10 11q141 20 141 348q0 18 -17.5 26.5t-61.5 11.5v28h489v-28q-79 -6 -79 -37v-305q0 -24 16.5 -34.5t55.5 -10.5q12 0 11 -12l-24 -134h-28q0 29 -1 44t-7.5 29.5t-15 20t-30.5 10.5t-45.5 5.5t-67.5 0.5h-145q-78 0 -114 -9.5t-47.5 -31t-11.5 -69.5 h-28zM107 36h232q58 0 58 45v302q0 17 -8.5 24.5t-27.5 7.5h-122q-18 0 -24.5 -6.5t-6.5 -23.5q0 -291 -101 -349z" glyph-name="afii10069" horiz-adv-x="610" unicode="д"/><glyph d="M320 58q72 0 115 53l22 -18q-19 -36 -68.5 -67.5t-121.5 -31.5q-99 0 -168 62t-69 169q0 110 72 172.5t171 62.5q81 0 133.5 -41.5t52.5 -105.5q0 -51 -41 -69t-135 -21l-112 -3q-27 -1 -19 -39q19 -58 63.5 -90.5t104.5 -32.5zM258 427q-52 0 -81.5 -34.5t-35.5 -96.5 l1 1q-2 -26 6 -36.5t27 -10.5l66 1q65 0 91 18t26 54q0 45 -26.5 74.5t-73.5 29.5z" glyph-name="afii10070" horiz-adv-x="494" unicode="е"/><glyph d="M703 95q53 -59 97 -67v-28h-208v28q44 10 17 39l-106 120q-12 14 -30 14h-10v-124q0 -25 11.5 -34.5t41.5 -14.5v-28h-212v28q30 5 42 14.5t12 34.5v124h-10q-19 0 -31 -14l-106 -120q-26 -30 17 -39v-28h-208v28q45 8 97 67l132 148q16 19 0 38l-87 99q-8 12 -17 11 t-14 -7t-17 -13t-26 -7q-20 0 -34.5 13t-14.5 34t14.5 33.5t40.5 12.5q20 0 37.5 -9t28 -19t28.5 -31l107 -124q25 -30 51 -30h12v130q0 25 -12 34.5t-42 14.5v28h212v-28q-30 -5 -41.5 -14.5t-11.5 -34.5v-130h12q26 0 51 30l106 124q20 22 29 31t27 18.5t38 9.5 q26 0 40.5 -12.5t14.5 -33.5t-14 -34t-34 -13q-14 0 -26 7t-17.5 13t-14.5 7t-17 -11l-87 -99q-16 -19 0 -38z" glyph-name="afii10072" horiz-adv-x="820" unicode="ж"/><glyph d="M210 -8q-84 0 -132 39.5t-48 92.5q0 49 46 49q16 0 25 -7t11.5 -15t7 -26t8.5 -29q26 -71 94 -71q45 0 71.5 31.5t26.5 80.5q0 41 -21 62.5t-53 21.5q-23 0 -56 -14l-12 32q64 24 90 51t26 70q0 67 -66 67q-41 0 -73.5 -26t-45.5 -74q-3 -10 -4.5 -14t-5.5 -8t-12 -4 q-29 0 -30 45t12 75q80 39 160 39q75 0 116.5 -29.5t41.5 -76.5q0 -64 -76 -97q46 0 81 -29.5t35 -78.5q0 -69 -64 -113t-153 -44z" glyph-name="afii10073" horiz-adv-x="452" unicode="з"/><glyph d="M561 423q-30 -5 -42 -14.5t-12 -34.5v-297q0 -25 12 -34.5t42 -14.5v-28h-213v28q31 5 42.5 14.5t11.5 34.5v236l-213 -216v-20q0 -25 11.5 -34.5t41.5 -14.5v-28h-212v28q31 5 42.5 14.5t11.5 34.5v297q0 25 -11.5 34.5t-42.5 14.5v28h212v-28q-30 -5 -41.5 -14.5 t-11.5 -34.5v-237l213 218v19q0 25 -11.5 34.5t-42.5 14.5v28h213v-28z" glyph-name="afii10074" horiz-adv-x="591" unicode="и"/><glyph d="M296 552q-62 0 -101 35t-39 93q0 11 9 11h20q9 0 10 -10q7 -26 32.5 -43t68.5 -17t68.5 17t31.5 43q3 10 10 10h21q9 0 9 -11q0 -58 -39 -93t-101 -35zM561 423q-30 -5 -42 -14.5t-12 -34.5v-297q0 -25 12 -34.5t42 -14.5v-28h-213v28q31 5 42.5 14.5t11.5 34.5v236 l-213 -216v-20q0 -25 11.5 -34.5t41.5 -14.5v-28h-212v28q31 5 42.5 14.5t11.5 34.5v297q0 25 -11.5 34.5t-42.5 14.5v28h212v-28q-30 -5 -41.5 -14.5t-11.5 -34.5v-237l213 218v19q0 25 -11.5 34.5t-42.5 14.5v28h213v-28z" glyph-name="afii10075" horiz-adv-x="591" unicode="й"/><glyph d="M429 95q54 -59 98 -67v-28h-209v28q44 10 18 39l-107 120q-12 14 -30 14h-10v-124q0 -25 11.5 -34.5t41.5 -14.5v-28h-212v28q31 5 42.5 14.5t11.5 34.5v297q0 25 -11.5 34.5t-42.5 14.5v28h212v-28q-30 -5 -41.5 -14.5t-11.5 -34.5v-130h12q26 0 51 30l107 124 q19 21 28.5 30.5t27 19t37.5 9.5q26 0 40.5 -12.5t14.5 -33.5t-14 -34t-34 -13q-14 0 -26 7t-17.5 13t-14.5 7t-17 -11l-86 -99q-17 -20 0 -38z" glyph-name="afii10076" horiz-adv-x="542" unicode="к"/><glyph d="M117 -11q-43 0 -70 19.5t-27 53.5q0 23 13 38t37 15q22 0 30.5 -13.5t7.5 -30.5t5.5 -30.5t24.5 -13.5q37 0 48.5 47.5t11.5 145.5v154q0 25 -19.5 34.5t-66.5 14.5v28h469v-28q-30 -5 -42 -14.5t-12 -34.5v-297q0 -25 12 -34.5t42 -14.5v-28h-213v28q31 5 42.5 14.5 t11.5 34.5v297q0 25 -11.5 33t-42.5 8h-79q-31 0 -42.5 -8t-11.5 -33v-152q0 -33 -0.5 -50t-2.5 -46.5t-6.5 -45t-13 -36t-20.5 -30.5t-31 -17.5t-44 -7.5z" glyph-name="afii10077" horiz-adv-x="611" unicode="л"/><glyph d="M627 423q-30 -5 -42 -14.5t-12 -34.5v-297q0 -25 12 -34.5t42 -14.5v-28h-213v28q31 5 42.5 14.5t11.5 34.5v286l-147 -323h-49l-151 318v-281q0 -25 11.5 -34.5t41.5 -14.5v-28h-144v28q31 5 42.5 14.5t11.5 34.5v297q0 25 -11.5 34.5t-42.5 14.5v28h153l146 -307 l139 307h159v-28z" glyph-name="afii10078" horiz-adv-x="657" unicode="м"/><glyph d="M576 423q-30 -5 -42 -14.5t-12 -34.5v-297q0 -25 12 -34.5t42 -14.5v-28h-213v28q31 5 42.5 14.5t11.5 34.5v128h-228v-128q0 -25 11.5 -34.5t41.5 -14.5v-28h-212v28q31 5 42.5 14.5t11.5 34.5v297q0 25 -11.5 34.5t-42.5 14.5v28h212v-28q-30 -5 -41.5 -14.5 t-11.5 -34.5v-132h228v132q0 25 -11.5 34.5t-42.5 14.5v28h213v-28z" glyph-name="afii10079" horiz-adv-x="606" unicode="н"/><glyph d="M268 -6q-98 0 -168 62.5t-70 170.5t70 170.5t168 62.5t168 -62.5t70 -170.5t-70 -170.5t-168 -62.5zM289 28q48 0 76.5 41.5t28.5 121.5q0 97 -42 166t-105 69q-48 0 -76.5 -41.5t-28.5 -121.5q0 -97 42 -166t105 -69z" glyph-name="afii10080" horiz-adv-x="536" unicode="о"/><glyph d="M30 0v28q31 5 42.5 14.5t11.5 34.5v297q0 25 -11.5 34.5t-42.5 14.5v28h551v-28q-30 -5 -42 -14.5t-12 -34.5v-297q0 -25 12 -34.5t42 -14.5v-28h-213v28q31 5 42.5 14.5t11.5 34.5v297q0 25 -11.5 33t-42.5 8h-126q-30 0 -41.5 -8t-11.5 -33v-297q0 -25 11.5 -34.5 t41.5 -14.5v-28h-212z" glyph-name="afii10081" horiz-adv-x="611" unicode="п"/><glyph d="M351 460q84 0 141.5 -61.5t57.5 -164.5q0 -111 -64.5 -175.5t-152.5 -64.5q-26 0 -51 6t-39.5 12.5t-26.5 10t-17 -1t-5 -20.5v-104q0 -30 14 -42.5t50 -15.5v-29h-233v29q36 3 50 15.5t14 42.5v452q0 34 -14 46.5t-50 8.5v28l129 26q40 8 40 -33v-9q0 -9 6.5 -11.5 t14.5 6.5q18 18 54.5 33.5t81.5 15.5zM329 31q53 0 82.5 43.5t29.5 116.5q0 87 -38.5 146t-100.5 59q-44 0 -76 -28.5t-32 -94.5v-102q0 -69 42 -104.5t93 -35.5z" glyph-name="afii10082" horiz-adv-x="580" unicode="р"/><glyph d="M275 -6q-100 0 -172.5 62.5t-72.5 168.5q0 109 75 172t176 63q76 0 125.5 -38t49.5 -85q0 -24 -13 -40.5t-39 -16.5q-25 0 -40.5 15.5t-15.5 37.5q0 39 -19 66.5t-66 27.5q-57 0 -89.5 -44.5t-32.5 -116.5q0 -95 52.5 -151.5t133.5 -56.5q69 0 112 53l22 -18 q-19 -36 -67 -67.5t-119 -31.5z" glyph-name="afii10083" horiz-adv-x="496" unicode="с"/><glyph d="M132 0v28q34 5 46.5 14.5t12.5 34.5v289q0 30 -13 39.5t-47 9.5q-35 0 -51.5 -15t-31.5 -61h-28l13 112h420l13 -112h-28q-15 48 -31 62t-51 14q-34 0 -47 -9.5t-13 -39.5v-289q0 -25 12.5 -34.5t46.5 -14.5v-28h-223z" glyph-name="afii10084" horiz-adv-x="486" unicode="т"/><glyph d="M134 -198q-43 0 -69.5 19.5t-26.5 50.5q0 23 15.5 39t40.5 16q23 0 34 -13.5t12.5 -29.5t8 -29.5t21.5 -13.5q29 0 50 58q22 54 -6 123l-123 312q-17 43 -32.5 60t-48.5 28v29h222v-29q-40 -11 -45.5 -27.5t13.5 -60.5l89 -218q3 -9 8 -12t9.5 0t7.5 12l46 119 q30 77 35 115t-6.5 51t-45.5 21v29h188v-29q-43 -11 -61 -27.5t-36 -60.5l-158 -400q-28 -71 -58.5 -101.5t-83.5 -30.5z" glyph-name="afii10085" horiz-adv-x="541" unicode="у"/><glyph d="M647 460q84 0 141.5 -61.5t57.5 -164.5q0 -111 -64.5 -175.5t-152.5 -64.5q-26 0 -51 6t-39.5 12.5t-26.5 10t-17 -1t-5 -20.5v-104q0 -30 14 -42.5t50 -15.5v-29h-233v29q36 3 50 15.5t14 42.5v174q-58 -77 -156 -77q-84 0 -141.5 61t-57.5 164q0 111 65 176t154 65 q27 0 52.5 -6.5t39 -12.5t25 -8.5t15.5 4.5t4 28v80q0 35 -13.5 47t-50.5 9v28l129 25q40 8 40 -32v-206q0 -9 6.5 -11.5t14.5 6.5q18 18 54.5 33.5t81.5 15.5zM282 58q41 0 72 25.5t31 81.5v107q0 73 -41.5 112t-92.5 39q-53 0 -82 -44t-29 -116q0 -86 39.5 -145.5 t102.5 -59.5zM625 31q53 0 82.5 43.5t29.5 116.5q0 87 -38.5 146t-100.5 59q-44 0 -76 -28.5t-32 -94.5v-102q0 -69 42 -104.5t93 -35.5z" glyph-name="afii10086" horiz-adv-x="876" unicode="ф"/><glyph d="M489 422q-44 -12 -72 -32t-67 -67l-60 -73l94 -130q30 -43 51.5 -61.5t53.5 -29.5v-29h-217v29q20 5 29 11t7 18t-9 24.5t-25 37.5l-42 59q-35 -44 -52 -69.5t-20 -42.5t5.5 -24.5t30.5 -13.5v-29h-181v29q44 12 72 32.5t67 66.5l61 74l-94 129q-31 43 -52.5 61.5 t-53.5 29.5v29h218v-29q-20 -5 -29 -11t-7 -18t9 -24.5t25 -37.5l42 -58q35 43 52 68.5t19.5 42t-6 24.5t-30.5 14v29h181v-29z" glyph-name="afii10087" horiz-adv-x="504" unicode="х"/><glyph d="M558 -110q0 29 -1 44t-8.5 30t-16.5 20t-33.5 10t-51 5.5t-75.5 0.5h-342v28q31 5 42.5 14.5t11.5 34.5v297q0 25 -11.5 34.5t-42.5 14.5v28h212v-28q-30 -5 -41.5 -14.5t-11.5 -34.5v-297q0 -25 11.5 -33t41.5 -8h130q50 0 50 42v296q0 25 -11.5 34.5t-42.5 14.5v28h213 v-28q-30 -5 -42 -14.5t-12 -34.5v-296q0 -24 16 -33t56 -9q13 0 11 -12l-24 -134h-28z" glyph-name="afii10088" horiz-adv-x="636" unicode="ц"/><glyph d="M550 429q-32 -5 -43 -14.5t-11 -36.5v-305q0 -27 11 -36.5t43 -14.5v-22h-208v22q32 5 43 14.5t11 36.5v106q0 15 -4 15q-3 0 -26 -24q-63 -62 -143 -62q-65 0 -107 44t-42 143v83q0 27 -11 36.5t-43 14.5v22h208v-22q-32 -5 -43 -14.5t-11 -36.5v-83q0 -58 26.5 -95 t72.5 -37q49 0 86 35t37 88v92q0 27 -11 36.5t-43 14.5v22h208v-22z" glyph-name="afii10089" horiz-adv-x="580" unicode="ч"/><glyph d="M30 0v28q31 5 42.5 14.5t11.5 34.5v297q0 25 -11.5 34.5t-42.5 14.5v28h212v-28q-30 -5 -41.5 -14.5t-11.5 -34.5v-297q0 -25 11.5 -33t41.5 -8h53q31 0 42.5 8t11.5 33v297q0 25 -11.5 34.5t-42.5 14.5v28h212v-28q-30 -5 -41.5 -14.5t-11.5 -34.5v-297q0 -25 11.5 -33 t41.5 -8h53q30 0 42 8t12 33v297q0 25 -12 34.5t-42 14.5v28h213v-28q-31 -5 -42.5 -14.5t-11.5 -34.5v-297q0 -25 11.5 -34.5t42.5 -14.5v-28h-743z" glyph-name="afii10090" horiz-adv-x="803" unicode="ш"/><glyph d="M790 36q14 0 12 -12l-24 -134h-29q0 29 -1 44t-8.5 30t-16.5 20t-33.5 10t-51 5.5t-75.5 0.5h-533v28q31 5 42.5 14.5t11.5 34.5v297q0 25 -11.5 34.5t-42.5 14.5v28h212v-28q-30 -5 -41.5 -14.5t-11.5 -34.5v-297q0 -25 11.5 -33t41.5 -8h53q31 0 42.5 8t11.5 33v297 q0 25 -11.5 34.5t-42.5 14.5v28h212v-28q-30 -5 -41.5 -14.5t-11.5 -34.5v-297q0 -25 11.5 -33t41.5 -8h53h8q46 3 46 42v296q0 25 -12 34.5t-42 14.5v28h213v-28q-31 -5 -42.5 -14.5t-11.5 -34.5v-296q0 -24 16 -33t55 -9z" glyph-name="afii10091" horiz-adv-x="827" unicode="щ"/><glyph d="M327 329q110 0 170 -43t60 -121t-60.5 -121.5t-169.5 -43.5h-221v28q31 5 42.5 14.5t11.5 34.5v296q0 42 -45 42q-27 0 -42.5 -12.5t-29.5 -44.5h-28l16 93h287v-28q-30 -5 -41.5 -14.5t-11.5 -34.5v-25q0 -8 6 -14t14 -6h42zM327 36q119 0 119 129q0 128 -118 128h-43 q-8 0 -14 -6t-6 -14v-196q0 -25 13.5 -33t48.5 -8z" glyph-name="afii10092" horiz-adv-x="582" unicode="ъ"/><glyph d="M30 0v28q31 5 42.5 14.5t11.5 34.5v297q0 25 -11.5 34.5t-42.5 14.5v28h212v-28q-30 -5 -41.5 -14.5t-11.5 -34.5v-25q0 -8 6 -14t14 -6h43q109 0 169 -43t60 -121t-60 -121.5t-169 -43.5h-222zM510 0v28q31 5 42.5 14.5t11.5 34.5v297q0 25 -11.5 34.5t-42.5 14.5v28 h212v-28q-30 -5 -41.5 -14.5t-11.5 -34.5v-297q0 -25 11.5 -34.5t41.5 -14.5v-28h-212zM251 36q119 0 119 129q0 128 -118 128h-43q-8 0 -14 -6t-6 -14v-196q0 -25 13.5 -33t48.5 -8z" glyph-name="afii10093" horiz-adv-x="752" unicode="ы"/><glyph d="M30 0v28q31 5 42.5 14.5t11.5 34.5v297q0 25 -11.5 34.5t-42.5 14.5v28h212v-28q-30 -5 -41.5 -14.5t-11.5 -34.5v-25q0 -8 6 -14t14 -6h43q109 0 169 -43t60 -121t-60 -121.5t-169 -43.5h-222zM251 36q119 0 119 129q0 128 -118 128h-43q-8 0 -14 -6t-6 -14v-196 q0 -25 13.5 -33t48.5 -8z" glyph-name="afii10094" horiz-adv-x="512" unicode="ь"/><glyph d="M215 460q101 0 176 -63t75 -172q0 -106 -72.5 -168.5t-172.5 -62.5q-70 0 -118 31.5t-67 67.5l21 18q43 -53 112 -53q68 0 117 40.5t63 111.5h-138v33h143q1 7 1 23q0 72 -32.5 116.5t-89.5 44.5q-47 0 -66 -27.5t-19 -66.5q0 -22 -15.5 -37.5t-40.5 -15.5 q-26 0 -39 16.5t-13 40.5q0 47 49.5 85t125.5 38z" glyph-name="afii10095" horiz-adv-x="496" unicode="э"/><glyph d="M512 460q98 0 168 -62.5t70 -170.5t-70 -170.5t-168 -62.5q-93 0 -162 57t-75 156h-86v-130q0 -25 11.5 -34.5t41.5 -14.5v-28h-212v28q31 5 42.5 14.5t11.5 34.5v297q0 25 -11.5 34.5t-42.5 14.5v28h212v-28q-30 -5 -41.5 -14.5t-11.5 -34.5v-125h86q8 98 76.5 154.5 t160.5 56.5zM533 28q48 0 76.5 41.5t28.5 121.5q0 97 -42 166t-105 69q-48 0 -76.5 -41.5t-28.5 -121.5q0 -97 42 -166t105 -69z" glyph-name="afii10096" horiz-adv-x="780" unicode="ю"/><glyph d="M485 423q-30 -5 -41.5 -14.5t-11.5 -34.5v-297q0 -25 11.5 -34.5t41.5 -14.5v-28h-212v28q30 5 42 14.5t12 34.5v118h-59q-33 0 -48.5 -16.5t-27.5 -63.5q-15 -57 -47.5 -86t-97.5 -29h-32v28q28 5 42 24.5t27 67.5q19 76 89 86q-60 10 -92 40t-32 75q0 60 47.5 95 t126.5 35h262v-28zM238 231h89v143q0 25 -12 33t-42 8h-25q-94 0 -94 -93q0 -39 19.5 -65t64.5 -26z" glyph-name="afii10097" horiz-adv-x="515" unicode="я"/><glyph d="M143 607q-29 18 -37.5 39.5t8.5 41.5q34 37 79 -13l96 -108q16 -18 6 -31t-32 0zM320 58q72 0 115 53l22 -18q-19 -36 -68.5 -67.5t-121.5 -31.5q-99 0 -168 62t-69 169q0 110 72 172.5t171 62.5q81 0 133.5 -41.5t52.5 -105.5q0 -51 -41 -69t-135 -21l-112 -3 q-27 -1 -19 -39q19 -58 63.5 -90.5t104.5 -32.5zM258 427q-52 0 -81.5 -34.5t-35.5 -96.5l1 1q-2 -26 6 -36.5t27 -10.5l66 1q65 0 91 18t26 54q0 45 -26.5 74.5t-73.5 29.5z" glyph-name="uni0450" horiz-adv-x="494" unicode="ѐ"/><glyph d="M145 543q-26 0 -44.5 18.5t-18.5 44.5t18.5 44.5t44.5 18.5t44.5 -18.5t18.5 -44.5t-18.5 -44.5t-44.5 -18.5zM348 543q-26 0 -44.5 18.5t-18.5 44.5t18.5 44.5t44.5 18.5t44.5 -18.5t18.5 -44.5t-18.5 -44.5t-44.5 -18.5zM320 58q72 0 115 53l22 -18 q-19 -36 -68.5 -67.5t-121.5 -31.5q-99 0 -168 62t-69 169q0 110 72 172.5t171 62.5q81 0 133.5 -41.5t52.5 -105.5q0 -51 -41 -69t-135 -21l-112 -3q-27 -1 -19 -39q19 -58 63.5 -90.5t104.5 -32.5zM258 427q-52 0 -81.5 -34.5t-35.5 -96.5l1 1q-2 -26 6 -36.5t27 -10.5 l66 1q65 0 91 18t26 54q0 45 -26.5 74.5t-73.5 29.5z" glyph-name="afii10071" horiz-adv-x="494" unicode="ё"/><glyph d="M189 567q-16 -19 -6 -31q10 -13 32 0l120 71q29 18 38 39.5t-8 41.5q-35 37 -80 -13zM30 0v28q31 5 42.5 14.5t11.5 34.5v300q0 24 -12 33t-42 13v28h383l21 -113h-28q-21 47 -42.5 62t-77.5 15h-72q-25 0 -25 -26v-312q0 -25 11.5 -34.5t41.5 -14.5v-28h-212z" glyph-name="afii10100" horiz-adv-x="462" unicode="ѓ"/><glyph d="M439 111l22 -18q-19 -36 -67 -67.5t-119 -31.5q-100 0 -172.5 62.5t-72.5 168.5q0 109 75 172t176 63q76 0 125.5 -38t49.5 -85q0 -24 -13 -40.5t-39 -16.5q-25 0 -40.5 15.5t-15.5 37.5q0 39 -19 66.5t-66 27.5q-57 0 -89.5 -44.5t-32.5 -116.5q0 -16 1 -23h143v-33 h-138q14 -71 63 -111.5t117 -40.5q69 0 112 53z" glyph-name="afii10101" horiz-adv-x="496" unicode="є"/><glyph d="M207 -6q-75 0 -128.5 30.5t-53.5 85.5q0 51 45 51q22 0 34.5 -12t12.5 -28q0 -46 32.5 -70t75.5 -24q41 0 61.5 20.5t20.5 51.5q0 18 -7.5 31.5t-26 24t-33.5 16t-45 14.5q-158 46 -158 145q0 59 51 94.5t129 35.5q70 0 121 -27t51 -76q0 -47 -48 -47q-40 0 -40 35 q0 36 -27 59t-68 23q-34 0 -52.5 -16.5t-18.5 -45.5q0 -35 24 -53t72 -32q88 -28 117 -46q60 -38 60 -100q0 -65 -57.5 -102.5t-143.5 -37.5z" glyph-name="afii10102" horiz-adv-x="433" unicode="ѕ"/><glyph d="M131 543q-26 0 -44.5 18.5t-18.5 44.5t18.5 44.5t44.5 18.5t44.5 -18.5t18.5 -44.5t-18.5 -44.5t-44.5 -18.5zM25 0v29q36 3 50 15.5t14 42.5v262q0 34 -14 46.5t-50 8.5v28l129 26q40 8 40 -33v-338q0 -30 14 -42.5t50 -15.5v-29h-233z" glyph-name="afii10103" horiz-adv-x="283" unicode="і"/><glyph d="M30 543q-26 0 -44.5 18.5t-18.5 44.5t18.5 44.5t44.5 18.5t44.5 -18.5t18.5 -44.5t-18.5 -44.5t-44.5 -18.5zM233 543q-26 0 -44.5 18.5t-18.5 44.5t18.5 44.5t44.5 18.5t44.5 -18.5t18.5 -44.5t-18.5 -44.5t-44.5 -18.5zM25 0v29q36 3 50 15.5t14 42.5v262 q0 34 -14 46.5t-50 8.5v28l129 26q40 8 40 -33v-338q0 -30 14 -42.5t50 -15.5v-29h-233z" glyph-name="afii10104" horiz-adv-x="283" unicode="ї"/><glyph d="M133 543q-26 0 -44.5 18.5t-18.5 44.5t18.5 44.5t44.5 18.5t44 -18.5t18 -44.5t-18 -44.5t-44 -18.5zM45 -201q-45 0 -77.5 18t-32.5 54q0 23 12.5 36.5t34.5 13.5q21 0 35 -13t19 -28.5t12.5 -28.5t17.5 -13q12 0 18.5 15t6.5 37v459q0 34 -14 46.5t-51 8.5v28l129 26 q41 8 41 -33v-478q0 -70 -42.5 -109t-108.5 -39z" glyph-name="afii10105" horiz-adv-x="261" unicode="ј"/><glyph d="M271 552q-62 0 -101 35t-39 93q0 11 9 11h20q9 0 10 -10q7 -26 32.5 -43t68.5 -17t68.5 17t31.5 43q3 10 10 10h21q9 0 9 -11q0 -58 -39 -93t-101 -35zM134 -198q-43 0 -69.5 19.5t-26.5 50.5q0 23 15.5 39t40.5 16q23 0 34 -13.5t12.5 -29.5t8 -29.5t21.5 -13.5 q29 0 50 58q22 54 -6 123l-123 312q-17 43 -32.5 60t-48.5 28v29h222v-29q-40 -11 -45.5 -27.5t13.5 -60.5l89 -218q3 -9 8 -12t9.5 0t7.5 12l46 119q30 77 35 115t-6.5 51t-45.5 21v29h188v-29q-43 -11 -61 -27.5t-36 -60.5l-158 -400q-28 -71 -58.5 -101.5t-83.5 -30.5z " glyph-name="afii10110" horiz-adv-x="541" unicode="ў"/><glyph d="M30 0v28q34 6 50 18.5t16 38.5v451q0 27 -15.5 39t-50.5 18v28h348q45 0 67.5 12t44.5 40h30l-21 -87h-218q-35 0 -50.5 -10.5t-15.5 -39.5v-451q0 -27 17 -39.5t59 -17.5v-28h-261z" glyph-name="afii10050" horiz-adv-x="545" unicode="Ґ"/><glyph d="M30 0v28q31 5 42.5 14.5t11.5 34.5v300q0 24 -12 33t-42 13v28h256q56 0 77 11.5t38 45.5h28l-16 -93h-199q-25 0 -25 -26v-312q0 -25 11.5 -34.5t41.5 -14.5v-28h-212z" glyph-name="afii10098" horiz-adv-x="449" unicode="ґ"/><glyph d="M362 637q133 0 226 -88.5t93 -227.5q0 -146 -96.5 -238.5t-235.5 -92.5q-133 0 -226 88.5t-93 229.5q0 144 96.5 236.5t235.5 92.5zM334 596q-71 0 -122 -59.5t-51 -182.5v-19h386q-14 116 -73.5 188.5t-139.5 72.5zM377 31q71 0 122 60t51 184v17h-385 q13 -116 72.5 -188.5t139.5 -72.5z" glyph-name="uni04E8" horiz-adv-x="711" unicode="Ө"/><glyph d="M268 460q98 0 168 -62.5t70 -170.5t-70 -170.5t-168 -62.5t-168 62.5t-70 170.5t70 170.5t168 62.5zM247 426q-48 0 -76.5 -41.5t-28.5 -121.5v-17h248q-12 78 -50.5 129t-92.5 51zM289 28q48 0 76.5 41.5t28.5 121.5v18h-248q11 -78 50 -129.5t93 -51.5z" glyph-name="uni04E9" horiz-adv-x="536" unicode="ө"/><glyph d="M557 737l-96 108q-45 50 -79 13q-17 -20 -8.5 -41.5t37.5 -39.5l120 -71q22 -13 32 0t-6 31zM308 0l-194 483q-24 61 -41 82.5t-53 27.5v28h246v-28q-43 -7 -51 -26t8 -49l137 -349q10 -24 20 0l77 200q28 74 6 130q-21 50 -37.5 69t-50.5 25v28h246v-28q-43 -7 -51 -26 t8 -49l137 -349q10 -24 20 0l131 343q13 36 -3 55t-62 26v28h210v-28q-39 -8 -60 -27.5t-36 -58.5l-162 -416q-23 -62 -23 -91h-67l-153 381l-112 -290q-24 -61 -24 -91h-66z" glyph-name="Wgrave" horiz-adv-x="1031" unicode="Ẁ"/><glyph d="M469 567l-95 108q-45 50 -80 13q-17 -20 -8.5 -41.5t38.5 -39.5l120 -71q22 -13 32 0q9 13 -7 31zM215 0l-124 334q-16 43 -32 60t-49 28v29h220v-29q-39 -11 -44 -27.5t12 -60.5l79 -217q3 -9 8 -12.5t10 0t8 12.5l36 108q26 74 6 129q-10 28 -25 43t-43 25v29h220v-29 q-39 -11 -44 -27.5t12 -60.5l79 -217q3 -9 8.5 -12.5t10.5 0t8 12.5l39 118q27 80 31.5 117t-6.5 49.5t-45 20.5v29h189v-29q-44 -11 -62.5 -28t-35.5 -60l-124 -334h-75l-96 260l-96 -260h-75z" glyph-name="wgrave" horiz-adv-x="789" unicode="ẁ"/><glyph d="M488 737q-16 -19 -6 -31q10 -13 32 0l120 71q29 18 38 39.5t-8 41.5q-35 37 -80 -13zM308 0l-194 483q-24 61 -41 82.5t-53 27.5v28h246v-28q-43 -7 -51 -26t8 -49l137 -349q10 -24 20 0l77 200q28 74 6 130q-21 50 -37.5 69t-50.5 25v28h246v-28q-43 -7 -51 -26t8 -49 l137 -349q10 -24 20 0l131 343q13 36 -3 55t-62 26v28h210v-28q-39 -8 -60 -27.5t-36 -58.5l-162 -416q-23 -62 -23 -91h-67l-153 381l-112 -290q-24 -61 -24 -91h-66z" glyph-name="Wacute" horiz-adv-x="1031" unicode="Ẃ"/><glyph d="M372 567q-16 -18 -6 -31t32 0l120 71q29 18 37.5 39.5t-8.5 41.5q-34 37 -79 -13zM215 0l-124 334q-16 43 -32 60t-49 28v29h220v-29q-39 -11 -44 -27.5t12 -60.5l79 -217q3 -9 8 -12.5t10 0t8 12.5l36 108q26 74 6 129q-10 28 -25 43t-43 25v29h220v-29 q-39 -11 -44 -27.5t12 -60.5l79 -217q3 -9 8.5 -12.5t10.5 0t8 12.5l39 118q27 80 31.5 117t-6.5 49.5t-45 20.5v29h189v-29q-44 -11 -62.5 -28t-35.5 -60l-124 -334h-75l-96 260l-96 -260h-75z" glyph-name="wacute" horiz-adv-x="789" unicode="ẃ"/><glyph d="M413 713q-26 0 -44.5 18.5t-18.5 44.5t18.5 44.5t44.5 18.5t44.5 -18.5t18.5 -44.5t-18.5 -44.5t-44.5 -18.5zM616 713q-26 0 -44.5 18.5t-18.5 44.5t18.5 44.5t44.5 18.5t44.5 -18.5t18.5 -44.5t-18.5 -44.5t-44.5 -18.5zM308 0l-194 483q-24 61 -41 82.5t-53 27.5v28 h246v-28q-43 -7 -51 -26t8 -49l137 -349q10 -24 20 0l77 200q28 74 6 130q-21 50 -37.5 69t-50.5 25v28h246v-28q-43 -7 -51 -26t8 -49l137 -349q10 -24 20 0l131 343q13 36 -3 55t-62 26v28h210v-28q-39 -8 -60 -27.5t-36 -58.5l-162 -416q-23 -62 -23 -91h-67l-153 381 l-112 -290q-24 -61 -24 -91h-66z" glyph-name="Wdieresis" horiz-adv-x="1031" unicode="Ẅ"/><glyph d="M274 543q-26 0 -44.5 18.5t-18.5 44.5t18.5 44.5t44.5 18.5q25 0 43.5 -18.5t18.5 -44.5t-18.5 -44.5t-43.5 -18.5zM477 543q-26 0 -44.5 18.5t-18.5 44.5t18.5 44.5t44.5 18.5t44 -18.5t18 -44.5t-18 -44.5t-44 -18.5zM215 0l-124 334q-16 43 -32 60t-49 28v29h220v-29 q-39 -11 -44 -27.5t12 -60.5l79 -217q3 -9 8 -12.5t10 0t8 12.5l36 108q26 74 6 129q-10 28 -25 43t-43 25v29h220v-29q-39 -11 -44 -27.5t12 -60.5l79 -217q3 -9 8.5 -12.5t10.5 0t8 12.5l39 118q27 80 31.5 117t-6.5 49.5t-45 20.5v29h189v-29q-44 -11 -62.5 -28 t-35.5 -60l-124 -334h-75l-96 260l-96 -260h-75z" glyph-name="wdieresis" horiz-adv-x="789" unicode="ẅ"/><glyph d="M380 711q-44 0 -108.5 33t-85.5 33q-19 0 -32 -12t-13 -34h-28q0 54 29 84t76 30q44 0 108.5 -33.5t85.5 -33.5q19 0 32 11.5t13 34.5h28q0 -54 -28.5 -83.5t-76.5 -29.5zM30 0v28q34 6 50 18.5t16 38.5v451q0 27 -15.5 39t-50.5 18v28h473q14 0 15 -11q6 -60 20 -118 h-21q-22 47 -51 68t-76 21h-113q-33 0 -47.5 -11t-14.5 -39v-147q0 -27 15 -38t47 -11h78q49 0 66 16t24 55h18v-182h-18q-7 38 -24.5 54.5t-65.5 16.5h-78q-32 0 -47 -11t-15 -38v-157q0 -27 17.5 -38.5t61.5 -10.5l112 1q48 1 72 13.5t40 36.5l24 37h22q-22 -42 -30 -114 q-2 -14 -16 -14h-488z" glyph-name="uni1EBC" horiz-adv-x="584" unicode="Ẽ"/><glyph d="M134 607q-19 0 -32 -12t-13 -34h-28q0 54 29 84t76 30q44 0 108.5 -33.5t85.5 -33.5q19 0 32 11.5t13 34.5h28q0 -54 -28.5 -83.5t-76.5 -29.5q-44 0 -108.5 33t-85.5 33zM320 58q72 0 115 53l22 -18q-19 -36 -68.5 -67.5t-121.5 -31.5q-99 0 -168 62t-69 169 q0 110 72 172.5t171 62.5q81 0 133.5 -41.5t52.5 -105.5q0 -51 -41 -69t-135 -21l-112 -3q-27 -1 -19 -39q19 -58 63.5 -90.5t104.5 -32.5zM258 427q-52 0 -81.5 -34.5t-35.5 -96.5l1 1q-2 -26 6 -36.5t27 -10.5l66 1q65 0 91 18t26 54q0 45 -26.5 74.5t-73.5 29.5z" glyph-name="uni1EBD" horiz-adv-x="494" unicode="ẽ"/><glyph d="M372 737l-96 108q-45 50 -79 13q-17 -20 -8.5 -41.5t37.5 -39.5l120 -71q22 -13 32 0t-6 31zM185 0v28q48 5 66.5 17.5t18.5 39.5v148q0 35 -21 67l-124 194q-33 51 -56 72t-54 27v28h254v-28q-37 -6 -44 -23t15 -53l118 -185q7 -12 14 0l116 184q21 35 9.5 54t-50.5 23 v28h196v-28q-33 -4 -56.5 -24t-51.5 -62l-129 -203q-16 -26 -16 -71v-148q0 -27 18.5 -39.5t66.5 -17.5v-28h-290z" glyph-name="Ygrave" horiz-adv-x="658" unicode="Ỳ"/><glyph d="M314 567l-96 108q-45 50 -79 13q-17 -20 -8.5 -41.5t37.5 -39.5l120 -71q22 -13 32 0t-6 31zM134 -198q-43 0 -69.5 19.5t-26.5 50.5q0 23 15.5 39t40.5 16q23 0 34 -13.5t12.5 -29.5t8 -29.5t21.5 -13.5q29 0 50 58q22 54 -6 123l-123 312q-17 43 -32.5 60t-48.5 28v29 h222v-29q-40 -11 -45.5 -27.5t13.5 -60.5l89 -218q3 -9 8 -12t9.5 0t7.5 12l46 119q30 77 35 115t-6.5 51t-45.5 21v29h188v-29q-43 -11 -61 -27.5t-36 -60.5l-158 -400q-28 -71 -58.5 -101.5t-83.5 -30.5z" glyph-name="ygrave" horiz-adv-x="541" unicode="ỳ"/><glyph d="M50 282h582v-49h-582v49z" glyph-name="endash" horiz-adv-x="682" unicode="–"/><glyph d="M50 282h819v-49h-819v49z" glyph-name="emdash" horiz-adv-x="919" unicode="—"/><glyph d="M50 282h819v-49h-819v49z" glyph-name="afii00208" horiz-adv-x="919" unicode="―"/><glyph d="M115 637l17 -19q-43 -36 -43 -69q0 -16 17 -16q26 0 43 -18t17 -44q0 -29 -19 -46.5t-47 -17.5q-34 0 -52 24t-18 61q0 44 24 82.5t61 62.5z" glyph-name="quoteleft" horiz-adv-x="196" unicode="‘"/><glyph d="M81 406l-17 19q43 38 43 70q0 16 -17 16q-26 0 -43 17.5t-17 44.5q0 28 19 46t47 18q34 0 52 -24t18 -61q0 -44 -24 -82.5t-61 -63.5z" glyph-name="quoteright" horiz-adv-x="196" unicode="’"/><glyph d="M81 -110l-17 19q43 38 43 69q0 17 -17 17q-26 0 -43 17.5t-17 43.5q0 29 19 47t47 18q34 0 52 -24t18 -61q0 -44 -24 -83t-61 -63z" glyph-name="quotesinglbase" horiz-adv-x="196" unicode="‚"/><glyph d="M115 637l17 -19q-43 -38 -43 -69q0 -17 17 -17q26 0 43 -17.5t17 -43.5q0 -29 -19 -47t-47 -18q-34 0 -52 24t-18 61q0 44 24 82.5t61 63.5zM288 637l18 -19q-43 -37 -43 -69q0 -17 16 -17q27 0 44 -17.5t17 -43.5q0 -29 -19 -47t-48 -18q-34 0 -52 24t-18 61 q0 44 24 82.5t61 63.5z" glyph-name="quotedblleft" horiz-adv-x="370" unicode="“"/><glyph d="M81 406l-17 19q43 38 43 70q0 16 -17 16q-26 0 -43 17.5t-17 44.5q0 28 19 46t47 18q34 0 52 -24t18 -61q0 -44 -24 -82.5t-61 -63.5zM255 406l-17 19q42 37 42 70q0 16 -16 16q-26 0 -43.5 17.5t-17.5 44.5q0 28 19.5 46t47.5 18q34 0 52 -24t18 -61q0 -44 -24 -82.5 t-61 -63.5z" glyph-name="quotedblright" horiz-adv-x="370" unicode="”"/><glyph d="M81 -110l-17 19q43 38 43 69q0 17 -17 17q-26 0 -43 17.5t-17 43.5q0 29 19 47t47 18q34 0 52 -24t18 -61q0 -44 -24 -83t-61 -63zM254 -110l-17 19q43 38 43 69q0 17 -17 17q-26 0 -43 17.5t-17 43.5q0 29 19 47t47 18q34 0 52 -24t18 -61q0 -44 -24 -83t-61 -63z" glyph-name="quotedblbase" horiz-adv-x="369" unicode="„"/><glyph d="M374 511q26 0 44 -17.5t18 -42.5t-18 -42.5t-44 -17.5q-14 0 -47.5 18t-58.5 20l2 -36l50 -49l-64 -214h-26l-64 214l50 49l2 36q-25 -2 -58.5 -20t-47.5 -18q-26 0 -44 17.5t-18 42.5t18 42.5t44 17.5q13 0 47.5 -18.5t60.5 -20.5q1 27 -19 61.5t-20 46.5q0 25 18 42.5 t44 17.5t44 -17.5t18 -42.5q0 -12 -20 -46.5t-19 -61.5q26 2 60 20.5t48 18.5z" glyph-name="dagger" horiz-adv-x="486" unicode="†"/><glyph d="M374 211q26 0 44 -17.5t18 -42.5t-18 -42.5t-44 -17.5q-14 0 -49 19.5t-61 21.5q1 -27 21 -62t20 -48q0 -25 -18 -42.5t-44 -17.5t-44 17.5t-18 42.5q0 13 20 48t21 62q-26 -2 -61.5 -21.5t-48.5 -19.5q-26 0 -44 17.5t-18 42.5t18 42.5t44 17.5q13 0 48.5 -19.5 t61.5 -21.5v33l-56 99l56 97v33q-26 -2 -61.5 -21.5t-48.5 -19.5q-26 0 -44 17.5t-18 42.5t18 42.5t44 17.5q13 0 48.5 -19.5t61.5 -21.5q-1 27 -21 62t-20 48q0 25 18 42.5t44 17.5t44 -17.5t18 -42.5q0 -13 -20 -48t-21 -62q26 2 61 21.5t49 19.5q26 0 44 -17.5t18 -42.5 t-18 -42.5t-44 -17.5q-14 0 -49 19.5t-61 21.5v-33l55 -98l-55 -98v-33q26 2 61 21.5t49 19.5z" glyph-name="daggerdbl" horiz-adv-x="486" unicode="‡"/><glyph d="M172 181q-46 0 -79 32.5t-33 78.5t33 79t79 33t78.5 -33t32.5 -79t-32.5 -78.5t-78.5 -32.5z" glyph-name="bullet" horiz-adv-x="343" unicode="•"/><glyph d="M103 -6q-26 0 -44.5 19t-18.5 45t19 44.5t44 18.5t44 -18.5t19 -44.5t-18.5 -45t-44.5 -19zM288 -6q-25 0 -43.5 19t-18.5 45t18.5 44.5t43.5 18.5q26 0 44.5 -18.5t18.5 -44.5t-18.5 -45t-44.5 -19zM474 -6q-26 0 -44.5 19t-18.5 45t18.5 44.5t44.5 18.5t44.5 -18.5 t18.5 -44.5t-18.5 -45t-44.5 -19z" glyph-name="ellipsis" horiz-adv-x="577" unicode="…"/><glyph d="M523 621h44l-410 -621h-93l434 587q-30 -25 -66.5 -30.5t-59 -0.5t-65.5 19q15 -27 15 -63q0 -67 -48 -115.5t-113 -48.5q-54 0 -82.5 33t-28.5 82q0 67 48 116t113 49q45 0 91 -11.5t72.5 -20.5t65.5 -5t83 30zM179 379q32 0 48 35t16 88q0 94 -51 94q-31 0 -47 -35 t-16 -88q0 -94 50 -94zM505 269q53 0 81.5 -33t28.5 -82q0 -68 -47.5 -116.5t-113.5 -48.5q-53 0 -81.5 33t-28.5 83q0 67 48 115.5t113 48.5zM812 269q53 0 81.5 -33t28.5 -82q0 -68 -47.5 -116.5t-113.5 -48.5q-54 0 -82.5 33t-28.5 83q0 67 48 115.5t114 48.5zM473 21 q31 0 47 35t16 88q0 94 -50 94q-31 0 -47 -35t-16 -88q0 -94 50 -94zM780 21q31 0 47 35t16 88q0 94 -50 94q-32 0 -48 -35t-16 -88q0 -94 51 -94z" glyph-name="perthousand" horiz-adv-x="972" unicode="‰"/><glyph d="M50 282l153 136l19 -17l-82 -119l82 -118l-19 -17z" glyph-name="guilsinglleft" horiz-adv-x="272" unicode="‹"/><glyph d="M222 282l-153 -135l-19 17l82 118l-82 119l19 17z" glyph-name="guilsinglright" horiz-adv-x="272" unicode="›"/><glyph d="M-152 -5l432 641h66l-432 -641h-66z" glyph-name="fraction" horiz-adv-x="171" unicode="⁄"/><glyph d="M661 143l20 -16q-27 -49 -92.5 -93t-164.5 -44q-119 0 -211.5 69.5t-113.5 188.5h-69v24h66q-2 24 -2 38q0 15 1 23h-65v24h67q17 129 115 204.5t225 75.5q109 0 175 -50.5t66 -112.5q0 -31 -18.5 -52.5t-51.5 -21.5q-31 0 -49.5 20t-18.5 52q0 50 -33 90t-99 40 q-83 0 -135.5 -65.5t-52.5 -176.5v-3h216v-24h-215q1 -24 9 -61h206v-24h-199q29 -87 98 -136.5t155 -49.5q98 0 171 81z" glyph-name="Euro" horiz-adv-x="716" unicode="€"/><glyph d="M38 621h221l8 -61h-18q-6 12 -9 17.5t-12 11.5t-21 6q-28 0 -28 -26v-119q0 -20 8.5 -27.5t27.5 -9.5v-19h-133v19q19 2 27.5 9.5t8.5 27.5v119q0 26 -28 26q-17 0 -25 -8.5t-16 -26.5h-19zM583 602q-17 -2 -21.5 -9t-4.5 -29v-113q0 -22 4.5 -29t21.5 -9v-19h-114v19 q17 2 22 9.5t5 28.5v98l-63 -131h-24l-66 128v-95q0 -21 5.5 -28.5t21.5 -9.5v-19h-81v19q17 2 22 9.5t5 28.5v113q0 21 -5 28.5t-22 9.5v19h81l69 -132l63 132h81v-19z" glyph-name="trademark" horiz-adv-x="613" unicode="™"/><glyph d="M32 392v28q29 2 29 18v153l-31 -10v34l56 25q13 6 23.5 0t9.5 -15v-187q0 -16 29 -18v-28h-116zM26 -5l432 641h66l-432 -641h-66zM486 -11q-47 0 -74.5 22.5t-27.5 57.5q0 20 13 37.5t34 24.5q-33 17 -33 50q0 25 23.5 44t64.5 19q38 0 63 -18.5t25 -43.5q0 -32 -33 -49 q22 -8 36 -26.5t14 -42.5q0 -30 -29.5 -52.5t-75.5 -22.5zM502 146q8 -1 15.5 11t7.5 24q0 33 -38 33q-16 0 -24 -10t-8 -22q0 -26 26 -31zM486 20q42 0 42 45q0 31 -39 40l-28 6q-8 2 -16 -12t-8 -31q0 -20 12.5 -34t36.5 -14z" glyph-name="oneeighth" horiz-adv-x="626" unicode="⅛"/><glyph d="M138 383q-47 0 -75 23.5t-28 55.5q0 25 26 25q15 0 21 -5.5t8 -20t3 -17.5q11 -30 44 -30q20 0 33.5 15t13.5 36q0 32 -21 38.5t-47 -7.5l-13 28l24 11q37 13 37 44t-32 31q-22 0 -30 -19.5t-2 -39.5l-44 6q-12 5 -12 14q-1 31 23.5 51t67.5 20q42 0 66 -19.5t24 -41.5 q0 -29 -27 -43q46 -17 46 -66q0 -38 -30.5 -63.5t-75.5 -25.5zM134 -5l432 641h66l-432 -641h-66zM583 -11q-47 0 -74.5 22.5t-27.5 57.5q0 20 13 37.5t34 24.5q-33 17 -33 50q0 25 23.5 44t64.5 19q39 0 64 -18.5t25 -43.5q0 -32 -34 -49q22 -8 36.5 -26.5t14.5 -42.5 q0 -30 -29.5 -52.5t-76.5 -22.5zM599 146q8 -1 15.5 11t7.5 24q0 33 -38 33q-16 0 -24 -10t-8 -22q0 -26 26 -31zM583 20q42 0 42 45q0 31 -39 40l-28 6q-8 2 -16 -12t-8 -31q0 -20 12.5 -34t36.5 -14z" glyph-name="threeeighths" horiz-adv-x="729" unicode="⅜"/><glyph d="M139 389q-48 0 -75 20.5t-29 57.5q-1 11 7 19t22 8q12 0 19 -5t9 -10t3.5 -15.5t2.5 -13.5q10 -31 41 -31q17 0 29.5 15t12.5 40t-14.5 42t-35.5 17q-8 0 -16 -2t-12.5 -3.5t-12 -5.5t-9.5 -5h-32l10 125h133l7 5h24l-3 -42l-12 -10h-113l-3 -40q23 14 57 14 q35 0 65.5 -24t30.5 -64q0 -42 -29.5 -67t-76.5 -25zM129 -5l432 641h66l-432 -641h-66zM578 -11q-47 0 -74.5 22.5t-27.5 57.5q0 20 13 37.5t34 24.5q-33 17 -33 50q0 25 23.5 44t64.5 19q38 0 63 -18.5t25 -43.5q0 -32 -33 -49q22 -8 36 -26.5t14 -42.5q0 -30 -29.5 -52.5 t-75.5 -22.5zM594 146q8 -1 15.5 11t7.5 24q0 33 -38 33q-16 0 -24 -10t-8 -22q0 -26 26 -31zM578 20q42 0 42 45q0 31 -39 40l-28 6q-8 2 -16 -12t-8 -31q0 -20 12.5 -34t36.5 -14z" glyph-name="fiveeighths" horiz-adv-x="718" unicode="⅝"/><glyph d="M97 390q-12 0 -18 8.5t0 19.5l95 175h-98l-6 -17h-35l12 50q3 14 21 14h173l-125 -250h-19zM104 -5l432 641h66l-432 -641h-66zM553 -11q-47 0 -74.5 22.5t-27.5 57.5q0 20 13 37.5t34 24.5q-33 17 -33 50q0 25 23.5 44t64.5 19q38 0 63 -18.5t25 -43.5q0 -32 -33 -49 q22 -8 36 -26.5t14 -42.5q0 -30 -29.5 -52.5t-75.5 -22.5zM569 146q8 -1 15.5 11t7.5 24q0 33 -38 33q-16 0 -24 -10t-8 -22q0 -26 26 -31zM553 20q42 0 42 45q0 31 -39 40l-28 6q-8 2 -16 -12t-8 -31q0 -20 12.5 -34t36.5 -14z" glyph-name="seveneighths" horiz-adv-x="683" unicode="⅞"/><glyph d="M268 -10q-104 0 -168.5 60.5t-64.5 153.5q0 89 58.5 143.5t140.5 54.5q58 0 103 -26t61 -51q0 50 -9 95.5t-28.5 87.5t-57 66.5t-88.5 24.5q-39 0 -83 -23l-17 25q44 36 122 36q68 0 121.5 -28.5t86 -77.5t49 -110.5t16.5 -130.5q1 -131 -59 -215.5t-183 -84.5zM261 24 q66 0 101.5 57.5t35.5 134.5q0 56 -36 96.5t-92 40.5q-59 0 -92 -46t-33 -120q0 -65 28 -114t88 -49z" glyph-name="partialdiff" horiz-adv-x="540" unicode="∂"/><glyph d="M434 404q77 -67 77 -177q0 -108 -70 -170.5t-168 -62.5q-79 0 -143 42l-28 -34l-17 14l28 34q-78 65 -78 177q0 108 70 170.5t168 62.5q80 0 143 -43l28 34l17 -14zM147 263q0 -75 27 -139l187 226q-42 76 -109 76q-48 0 -76.5 -41.5t-28.5 -121.5zM294 28 q48 0 76.5 41.5t28.5 121.5q0 76 -27 138l-187 -226q42 -75 109 -75z" glyph-name="emptyset" horiz-adv-x="546" unicode="∅"/><glyph d="M515 800v-1000h-34v966h-397v-966h-34v1000h465z" glyph-name="product" horiz-adv-x="565" unicode="∏"/><glyph d="M480 800v-34h-385l318 -467l-317 -465h384v-34h-430v34l316 466l-316 466v34h430z" glyph-name="summation" horiz-adv-x="530" unicode="∑"/><glyph d="M50 269h370v-35h-370v35z" glyph-name="minus" horiz-adv-x="470" unicode="−"/><glyph d="M247 -200l-138 333q-17 42 -34.5 59t-54.5 31v28l155 -2l130 -318l310 869h107v-28q-49 -12 -65.5 -29.5t-36.5 -68.5l-319 -874h-54z" glyph-name="radical" horiz-adv-x="742" unicode="√"/><glyph d="M216 54q-71 0 -118.5 57.5t-47.5 150.5q0 88 43.5 140.5t105.5 52.5q81 0 138 -91q59 92 149 92q71 0 118.5 -57.5t47.5 -151.5q0 -88 -43 -140t-105 -52q-80 0 -139 90q-57 -91 -149 -91zM183 150q74 0 106 88l31 84q-46 61 -117 61q-47 0 -81.5 -29t-34.5 -91 q0 -58 28 -85.5t68 -27.5zM500 127q47 0 81.5 29t34.5 91q0 57 -28 85t-68 28q-74 0 -107 -89l-30 -84q46 -60 117 -60z" glyph-name="infinity" horiz-adv-x="702" unicode="∞"/><glyph d="M311 672q62 0 102.5 -28t40.5 -68q0 -23 -15 -36.5t-38 -13.5q-26 0 -38.5 18t-14.5 39t-14.5 39t-37.5 18q-36 0 -48.5 -31.5t-12.5 -94.5v-542q0 -89 -51.5 -138.5t-130.5 -49.5q-61 0 -102 28t-41 68q0 24 15 37t38 13q26 0 38.5 -18t14.5 -39t14.5 -39t37.5 -18 q36 0 49 31.5t13 94.5v543q0 89 51 138t130 49z" glyph-name="integral" horiz-adv-x="434" unicode="∫"/><glyph d="M482 389h-32q0 -25 -15.5 -37t-37.5 -12q-25 0 -99 35.5t-125 35.5q-55 0 -89 -32t-34 -90h33q0 23 15 36t37 13q25 0 99 -35.5t126 -35.5q55 0 88.5 32t33.5 90zM482 219h-32q0 -25 -15.5 -37t-37.5 -12q-25 0 -99 35.5t-125 35.5q-55 0 -89 -32t-34 -90h33q0 23 15 36 t37 13q25 0 99 -35.5t126 -35.5q55 0 88.5 32t33.5 90z" glyph-name="approxequal" horiz-adv-x="532" unicode="≈"/><glyph d="M420 324h-131l-60 -145h191v-35h-206l-60 -144h-39l60 144h-125v35h140l60 145h-200v35h215l57 137h39l-57 -137h116v-35z" glyph-name="notequal" horiz-adv-x="470" unicode="≠"/><glyph d="M50 342l373 168v-39l-332 -153l332 -152v-39l-373 168v47zM423 34v-34h-370v34h370z" glyph-name="lessequal" horiz-adv-x="473" unicode="≤"/><glyph d="M423 342v-47l-373 -168v39l332 152l-332 153v39zM50 34h370v-34h-370v34z" glyph-name="greaterequal" horiz-adv-x="473" unicode="≥"/><glyph d="M377 310l-142 -310h-58l-142 310l142 311h58zM317 310l-111 254l-111 -254l111 -254z" glyph-name="lozenge" horiz-adv-x="412" unicode="◊"/><glyph d="M131 543q-26 0 -44.5 18.5t-18.5 44.5t18.5 44.5t44.5 18.5t44.5 -18.5t18.5 -44.5t-18.5 -44.5t-44.5 -18.5zM25 0v29q36 3 50 15.5t14 42.5v262q0 34 -14 46.5t-50 8.5v28l129 26q40 8 40 -33v-338q0 -30 14 -42.5t50 -15.5v-29h-233z" glyph-name="i.aalt" horiz-adv-x="283"/><glyph d="M670 460q84 0 141.5 -61.5t57.5 -164.5q0 -111 -64.5 -175.5t-151.5 -64.5q-37 0 -71.5 12.5t-58 25t-34.5 12.5q-16 0 -34.5 -25t-29.5 -25q-17 0 -17 18v464q0 76 -31.5 125t-95.5 49q-49 0 -69 -32.5t-20 -93.5v-41q0 -32 24 -32h102v-36h-102q-24 0 -24 -24v-304 q0 -30 14.5 -42.5t51.5 -15.5v-29h-235v29q36 3 50 15.5t14 42.5v304q0 14 -6 19t-20 5h-41v25q35 3 51 10.5t16 27.5v16q0 90 60 139t155 49q42 0 77.5 -10t66.5 -31.5t49 -61t18 -94.5v-69q0 -9 6.5 -11.5t14.5 6.5q18 18 55 33.5t81 15.5zM648 31q53 0 82.5 43.5 t29.5 116.5q0 87 -38.5 146t-101.5 59q-43 0 -75 -28.5t-32 -94.5v-102q0 -69 42 -104.5t93 -35.5z" glyph-name="f_b.dlig" horiz-adv-x="899"/><glyph d="M828 82q0 -49 50 -38v-28q-29 -21 -76 -21q-79 0 -79 77v194q0 57 -26.5 91.5t-73.5 34.5q-50 0 -80 -35t-30 -91v-179q0 -30 14 -42.5t50 -15.5v-29h-233v29q36 3 50 15.5t14 42.5v389q0 76 -31.5 125t-95.5 49q-49 0 -69 -32.5t-20 -93.5v-41q0 -32 24 -32h102v-36 h-102q-24 0 -24 -24v-304q0 -30 14.5 -42.5t51.5 -15.5v-29h-235v29q36 3 50 15.5t14 42.5v304q0 14 -6 19t-20 5h-41v25q35 3 51 10.5t16 27.5v16q0 90 60 139t155 49q42 0 77.5 -10t66.5 -31.5t49 -61t18 -94.5v-58q0 -39 16 -39q6 1 11 7q63 66 142 66q63 0 104.5 -40 t41.5 -131v-208z" glyph-name="f_h.dlig" horiz-adv-x="898"/><glyph d="M23 0v29q36 3 50 15.5t14 42.5v304q0 14 -6 19t-20 5h-41v25q35 3 51 10.5t16 27.5v7q0 89 55.5 138t141.5 49q74 0 120 -28t46 -68q0 -23 -15 -36.5t-38 -13.5q-26 0 -39.5 18t-18 39t-21.5 39t-49 18q-43 0 -60 -32.5t-17 -93.5v-36q0 -27 24 -27h98v-36h-98 q-24 0 -24 -24v-304q0 -30 14.5 -42.5t51.5 -15.5v-29h-235zM380 -198q-45 0 -77.5 18t-32.5 54q0 22 13 36t34 14t35 -13t19 -28.5t12.5 -28.5t17.5 -13q12 0 18.5 15t6.5 37v456q0 34 -14 46.5t-51 8.5v28l129 26q41 8 41 -33v-475q0 -70 -42.5 -109t-108.5 -39z" glyph-name="f_j.dlig" horiz-adv-x="596"/><glyph d="M787 78q19 -27 36 -36.5t50 -12.5v-29h-224v29q47 5 19 44l-91 133q-14 20 -29 7q-13 -11 -19 -17.5t-11 -18t-5 -25.5v-65q0 -30 14 -42.5t50 -15.5v-29h-233v29q36 3 50 15.5t14 42.5v389q0 76 -31.5 125t-95.5 49q-49 0 -69 -32.5t-20 -93.5v-41q0 -32 24 -32h102v-36 h-102q-24 0 -24 -24v-304q0 -30 14.5 -42.5t51.5 -15.5v-29h-235v29q36 3 50 15.5t14 42.5v304q0 14 -6 19t-20 5h-41v25q35 3 51 10.5t16 27.5v16q0 90 60 139t155 49q42 0 77.5 -10t66.5 -31.5t49 -61t18 -94.5v-210q0 -18 10.5 -24t20.5 4l136 120q10 10 10.5 19.5 t-12.5 17.5t-36 10v29h190v-29q-33 -3 -52.5 -13.5t-49.5 -37.5l-93 -81z" glyph-name="f_k.dlig" horiz-adv-x="873"/><glyph d="M268 -6q-98 0 -168 62.5t-70 170.5t70 170.5t168 62.5t168 -62.5t70 -170.5t-70 -170.5t-168 -62.5zM289 28q48 0 76.5 41.5t28.5 121.5q0 97 -42 166t-105 69q-48 0 -76.5 -41.5t-28.5 -121.5q0 -97 42 -166t105 -69z" glyph-name="zero.oldstyle" horiz-adv-x="536"/><glyph d="M35 0v29q44 3 61 15.5t17 42.5v243q0 25 -8.5 34t-31.5 5l-43 -8v29l151 66q17 7 27 1.5t10 -17.5v-353q0 -30 17 -42.5t61 -15.5v-29h-261z" glyph-name="one.oldstyle" horiz-adv-x="326"/><glyph d="M40 0q203 169 248 217q60 65 61 115q0 41 -24.5 67.5t-69.5 26.5q-47 0 -72 -24.5t-25 -58.5q0 -18 7 -37t7 -30q0 -27 -17.5 -40.5t-41.5 -13.5q-31 0 -49 23.5t-18 58.5q0 64 57.5 110t162.5 46q96 0 145.5 -38.5t49.5 -94.5q0 -46 -37 -89.5t-80 -68.5t-97 -53 t-67 -37l140 3q55 2 76.5 12t50.5 49h29l-9 -36q-18 -77 -9 -107h-418z" glyph-name="two.oldstyle" horiz-adv-x="516"/><glyph d="M270 -187q-99 0 -167 48t-68 126q0 68 58 68q22 0 32.5 -9.5t13 -21.5t6.5 -36t11 -41q40 -100 123 -100q63 0 100.5 50.5t37.5 120.5q0 62 -32 96t-81 34q-35 0 -74 -19l-12 32q88 29 122.5 58.5t34.5 85.5q0 55 -28.5 88t-81.5 33q-95 0 -95 -113q0 -62 -52 -62 q-28 0 -42 17.5t-14 44.5q0 56 55 101.5t160 45.5q99 0 151 -39.5t52 -102.5q0 -52 -34.5 -83.5t-83.5 -46.5q58 4 113.5 -39.5t55.5 -123.5q0 -93 -75.5 -152.5t-185.5 -59.5z" glyph-name="three.oldstyle" horiz-adv-x="571"/><glyph d="M528 0h-102v-80q0 -30 17 -42.5t61 -15.5v-29h-261v29q44 3 61 15.5t17 42.5v80h-278l-18 59l295 411l106 -16v-371h102v-83zM113 83h208v334l-221 -307q-8 -12 -4.5 -19.5t17.5 -7.5z" glyph-name="four.oldstyle" horiz-adv-x="568"/><glyph d="M267 -180q-98 0 -165 48t-67 126q0 68 57 68q28 0 37.5 -12t14.5 -45t12 -51q37 -100 119 -100q58 0 95.5 46t37.5 122q0 82 -43 137.5t-118 55.5q-42 0 -79 -19t-58 -52h-27l24 308h291l74 14l-12 -111h-329l-12 -159q64 62 168 62q91 0 164.5 -55t73.5 -159 q0 -101 -72.5 -162.5t-185.5 -61.5z" glyph-name="five.oldstyle" horiz-adv-x="560"/><glyph d="M278 -10q-123 0 -183.5 84.5t-59.5 215.5q0 69 16.5 130t49 110.5t86 78t122.5 28.5q78 0 121 -36l-16 -25q-45 23 -84 23q-51 0 -88.5 -24.5t-57 -66.5t-28.5 -87.5t-9 -95.5q15 25 60.5 51t103.5 26q82 0 140.5 -54.5t58.5 -143.5q0 -93 -64 -153.5t-168 -60.5zM284 24 q60 0 88.5 49t28.5 114q0 74 -33.5 120t-91.5 46q-56 0 -92.5 -40.5t-36.5 -96.5q0 -77 35.5 -134.5t101.5 -57.5z" glyph-name="six.oldstyle" horiz-adv-x="540"/><glyph d="M105 -170l308 524h-198q-64 0 -96 -12t-55 -50h-29l52 167l80 -8h327l-316 -621h-73z" glyph-name="seven.oldstyle" horiz-adv-x="519"/><glyph d="M396 349q134 -52 134 -169q0 -83 -72.5 -136.5t-182.5 -53.5q-109 0 -174.5 51.5t-65.5 131.5q0 103 109 161q-72 54 -72 136q0 76 62.5 121.5t151.5 45.5q87 0 143.5 -43t56.5 -110q0 -83 -90 -135zM285 603q-59 0 -85 -30.5t-26 -72.5q0 -82 107 -115l62 -19 q60 45 60 118q0 46 -27 82.5t-91 36.5zM280 24q70 0 103.5 42t33.5 93q0 42 -26 68.5t-90 44.5l-78 23q-23 7 -37 14q-60 -47 -60 -121q0 -66 40 -115t114 -49z" glyph-name="eight.oldstyle" horiz-adv-x="565"/><glyph d="M263 458q123 0 183 -84.5t59 -215.5q0 -69 -16.5 -130.5t-49 -110.5t-86 -77.5t-121.5 -28.5q-78 0 -122 36l17 25q44 -23 83 -23q51 0 88.5 24.5t57 66.5t28.5 87.5t9 95.5q-16 -25 -61 -51t-103 -26q-82 0 -140.5 54.5t-58.5 143.5q0 93 64.5 153.5t168.5 60.5z M256 424q-60 0 -88 -49t-28 -114q0 -74 33 -120t92 -46q56 0 92 40.5t36 96.5q0 77 -35.5 134.5t-101.5 57.5z" glyph-name="nine.oldstyle" horiz-adv-x="540"/><glyph d="M300 -10q-122 0 -191 94.5t-69 229.5q0 87 29 159t89 118t142 46t142 -46t89 -118t29 -159q0 -135 -69 -229.5t-191 -94.5zM300 30q72 0 106 76.5t34 207.5q0 129 -34.5 206.5t-105.5 77.5q-72 0 -106.5 -77.5t-34.5 -206.5q0 -131 34.5 -207.5t106.5 -76.5z" glyph-name="zero.tnum" horiz-adv-x="600"/><glyph d="M162 0v29q51 3 69.5 15t18.5 43v403q0 30 -8.5 39.5t-31.5 5.5l-43 -7v28l151 69q17 7 27 1.5t10 -17.5v-522q0 -31 18.5 -43t69.5 -15v-29h-281z" glyph-name="one.tnum" horiz-adv-x="600"/><glyph d="M64 0q0 47 19 91t49.5 77.5t67.5 65t74.5 61t68 58.5t49.5 63t19 70q0 47 -28 82t-81 35q-49 0 -79.5 -32t-30.5 -78q0 -19 7.5 -39t7.5 -32q0 -25 -17 -37.5t-40 -12.5q-32 0 -52 25.5t-20 66.5q0 72 61 122.5t168 50.5q102 0 162 -46.5t60 -126.5q0 -54 -32 -97 t-83 -74t-105 -58.5t-107 -65t-79 -80.5h246q65 0 94.5 14.5t44.5 56.5h29l-17 -97q-8 -47 4 -63h-460z" glyph-name="two.tnum" horiz-adv-x="600"/><glyph d="M282 -10q-99 0 -167 48t-68 126q0 68 58 68q22 0 32.5 -9.5t13 -21.5t6.5 -36t11 -41q40 -100 123 -100q63 0 100.5 50.5t37.5 120.5q0 62 -32 96t-81 34q-35 0 -74 -19l-12 32q88 29 122.5 58.5t34.5 85.5q0 55 -28.5 88t-81.5 33q-95 0 -95 -113q0 -62 -52 -62 q-28 0 -42 17.5t-14 44.5q0 56 55 101.5t160 45.5q99 0 151 -39.5t52 -102.5q0 -52 -34.5 -83.5t-83.5 -46.5q58 4 113.5 -39.5t55.5 -123.5q0 -93 -75.5 -152.5t-185.5 -59.5z" glyph-name="three.tnum" horiz-adv-x="600"/><glyph d="M552 167h-102v-80q0 -30 17 -42.5t60 -15.5v-29h-260v29q44 3 61 15.5t17 42.5v80h-278l-18 59l295 411l106 -16v-371h102v-83zM136 250h209v334l-222 -307q-8 -12 -4.5 -19.5t17.5 -7.5z" glyph-name="four.tnum" horiz-adv-x="600"/><glyph d="M283 -11q-97 0 -164.5 48t-67.5 126q0 69 57 69q22 0 33 -9.5t13.5 -22t7 -36t10.5 -40.5q37 -100 119 -100q59 0 96 46t37 122q0 81 -43 136.5t-118 55.5q-92 0 -137 -71h-27l24 309h291l74 14l-12 -112h-329l-12 -158q63 61 168 61q57 0 109 -21t90.5 -71t38.5 -121 q0 -101 -73 -163t-185 -62z" glyph-name="five.tnum" horiz-adv-x="600"/><glyph d="M304 -10q-123 0 -183 84.5t-59 215.5q0 69 16.5 130.5t49 110.5t86 77.5t121.5 28.5q78 0 122 -36l-17 -25q-44 23 -83 23q-51 0 -88.5 -24.5t-57 -66.5t-28.5 -87.5t-9 -95.5q16 25 61 51t103 26q82 0 140.5 -54.5t58.5 -143.5q0 -93 -64.5 -153.5t-168.5 -60.5zM311 24 q60 0 88 49t28 114q0 74 -33 120t-92 46q-56 0 -92.5 -40.5t-36.5 -96.5q0 -76 36 -134t102 -58z" glyph-name="six.tnum" horiz-adv-x="600"/><glyph d="M140 0l307 524h-197q-64 0 -96 -12t-56 -50h-28l52 167l79 -8h328l-316 -621h-73z" glyph-name="seven.tnum" horiz-adv-x="600"/><glyph d="M413 349q135 -52 135 -169q0 -83 -72.5 -136.5t-182.5 -53.5t-175 51.5t-65 131.5q0 103 108 161q-72 54 -72 136q0 76 62.5 121.5t151.5 45.5q87 0 144 -43t57 -110q0 -82 -91 -135zM302 603q-59 0 -84.5 -30t-25.5 -73q0 -82 106 -115l63 -19q60 45 60 118 q0 46 -27.5 82.5t-91.5 36.5zM298 24q69 0 103 42t34 93q0 42 -26.5 68.5t-90.5 44.5l-78 23q-23 7 -36 13q-60 -46 -60 -120q0 -66 40 -115t114 -49z" glyph-name="eight.tnum" horiz-adv-x="600"/><glyph d="M295 634q123 0 183 -84.5t59 -215.5q0 -69 -16.5 -130.5t-49 -110.5t-86 -77.5t-121.5 -28.5q-78 0 -122 36l17 25q44 -23 83 -23q51 0 88.5 24.5t57 66.5t28.5 87.5t9 95.5q-16 -25 -61 -51t-103 -26q-82 0 -140.5 54.5t-58.5 143.5q0 93 64.5 153.5t168.5 60.5z M288 600q-60 0 -88 -49t-28 -114q0 -74 33 -120t92 -46q56 0 92.5 40.5t36.5 96.5q0 76 -36 134t-102 58z" glyph-name="nine.tnum" horiz-adv-x="600"/><glyph d="M140 -11q-49 0 -77 37.5t-28 89.5q0 51 28.5 89.5t76.5 38.5t76.5 -38.5t28.5 -89.5q0 -52 -28.5 -89.5t-76.5 -37.5zM140 32q47 0 47 84q0 85 -47 85q-48 0 -48 -85q0 -84 48 -84z" glyph-name="zero.dnom" horiz-adv-x="280"/><glyph d="M32 -6v28q29 2 29 18v153l-31 -10v34l56 25q13 6 23.5 0t9.5 -15v-187q0 -16 29 -18v-28h-116z" glyph-name="one.dnom" horiz-adv-x="178"/><glyph d="M40 -6q15 74 98 125q46 28 46 56q0 17 -10.5 28.5t-26.5 11.5q-31 0 -38 -24q-2 -10 0.5 -21.5t1.5 -16.5q-7 -15 -22.5 -17t-28 6.5t-12.5 19.5q0 37 25.5 61.5t73.5 24.5q45 0 69 -20.5t24 -55.5q0 -8 -1.5 -15t-5 -13t-6 -11t-8.5 -10.5t-9 -8.5t-11.5 -8.5t-11 -7 t-12 -7t-10.5 -6.5q-20 -11 -27.5 -16t-16 -13.5t-11.5 -17.5h86q16 0 21 8l9 13h28l-10 -51q-3 -14 -21 -14h-183z" glyph-name="two.dnom" horiz-adv-x="294"/><glyph d="M138 -11q-47 0 -75 23.5t-28 55.5q0 25 26 25q15 0 21 -5.5t8 -20t3 -17.5q11 -30 44 -30q20 0 33.5 15t13.5 36q0 32 -21 38.5t-47 -7.5l-13 28l24 11q37 13 37 44t-32 31q-22 0 -30 -19.5t-2 -39.5l-44 6q-12 5 -12 14q-1 31 23.5 51t67.5 20q42 0 66 -19.5t24 -41.5 q0 -29 -27 -43q46 -17 46 -66q0 -38 -30.5 -63.5t-75.5 -25.5z" glyph-name="three.dnom" horiz-adv-x="284"/><glyph d="M221 62h-35v-27q0 -18 25 -18v-23h-109v23q24 0 24 18v27h-101v33l122 150q9 11 24 7t15 -16v-141h35v-33zM70 95h56v70z" glyph-name="four.dnom" horiz-adv-x="261"/><glyph d="M139 -11q-48 0 -75 20.5t-29 57.5q-1 11 7 19t22 8q12 0 19 -5t9 -10t3.5 -15.5t2.5 -13.5q10 -31 41 -31q17 0 29.5 15t12.5 40t-14.5 42t-35.5 17q-8 0 -16 -2t-12.5 -3.5t-12 -5.5t-9.5 -5h-32l10 125h133l7 5h24l-3 -42l-12 -10h-113l-3 -40q23 14 57 14 q35 0 65.5 -24t30.5 -64q0 -42 -29.5 -67t-76.5 -25z" glyph-name="five.dnom" horiz-adv-x="280"/><glyph d="M137 -11q-53 0 -77.5 34.5t-24.5 86.5q0 53 29 95.5t82 42.5q33 0 56 -16q8 -6 -1 -23q-7 -6 -12.5 -4.5t-18.5 6.5t-22 5q-41 0 -48 -71q20 11 47 11q36 0 61.5 -23t25.5 -59q0 -33 -26.5 -59t-70.5 -26zM137 22q37 0 37 54q0 22 -9.5 34.5t-24.5 12.5q-17 0 -29.5 -6.5 t-12.5 -11.5q-1 -41 10 -62t29 -21z" glyph-name="six.dnom" horiz-adv-x="264"/><glyph d="M97 -8q-12 0 -18 8.5t0 19.5l95 175h-98l-6 -17h-35l12 50q3 14 21 14h173l-125 -250h-19z" glyph-name="seven.dnom" horiz-adv-x="266"/><glyph d="M137 -11q-47 0 -74.5 22.5t-27.5 57.5q0 20 13 37.5t34 24.5q-33 17 -33 50q0 25 23.5 44t64.5 19q38 0 63 -18.5t25 -43.5q0 -32 -33 -49q22 -8 36 -26.5t14 -42.5q0 -30 -29.5 -52.5t-75.5 -22.5zM153 146q8 -1 15.5 11t7.5 24q0 33 -38 33q-16 0 -24 -10t-8 -22 q0 -26 26 -31zM137 20q42 0 42 45q0 31 -39 40l-28 6q-8 2 -16 -12t-8 -31q0 -20 12.5 -34t36.5 -14z" glyph-name="eight.dnom" horiz-adv-x="277"/><glyph d="M127 248q53 0 77.5 -34.5t24.5 -86.5q0 -53 -29 -95.5t-82 -42.5q-33 0 -56 16q-8 6 1 23q7 6 12.5 4.5t18.5 -6.5t22 -5q41 0 48 71q-20 -11 -47 -11q-36 0 -61.5 23t-25.5 59q0 33 26.5 59t70.5 26zM127 215q-37 0 -37 -54q0 -22 9.5 -34.5t24.5 -12.5q17 0 29.5 6.5 t12.5 11.5q1 41 -10 62t-29 21z" glyph-name="nine.dnom" horiz-adv-x="264"/><glyph d="M140 388q-49 0 -77 37.5t-28 89.5q0 51 28.5 89.5t76.5 38.5t76.5 -38.5t28.5 -89.5q0 -52 -28.5 -89.5t-76.5 -37.5zM140 431q47 0 47 84q0 85 -47 85q-48 0 -48 -85q0 -84 48 -84z" glyph-name="zero.numr" horiz-adv-x="280"/><glyph d="M32 392v28q29 2 29 18v153l-31 -10v34l56 25q13 6 23.5 0t9.5 -15v-187q0 -16 29 -18v-28h-116z" glyph-name="one.numr" horiz-adv-x="178"/><glyph d="M40 387q15 74 98 125q46 28 46 56q0 17 -10.5 28.5t-26.5 11.5q-31 0 -38 -24q-2 -10 0.5 -21.5t1.5 -16.5q-7 -15 -22.5 -17t-28 6.5t-12.5 19.5q0 37 25.5 61.5t73.5 24.5q45 0 69 -20.5t24 -55.5q0 -8 -1.5 -15t-5 -13t-6 -11t-8.5 -10.5t-9 -8.5t-11.5 -8.5t-11 -7 t-12 -7t-10.5 -6.5q-20 -11 -27.5 -16t-16 -13.5t-11.5 -17.5h86q16 0 21 8l9 13h28l-10 -51q-3 -14 -21 -14h-183z" glyph-name="two.numr" horiz-adv-x="294"/><glyph d="M138 383q-47 0 -75 23.5t-28 55.5q0 25 26 25q15 0 21 -5.5t8 -20t3 -17.5q11 -30 44 -30q20 0 33.5 15t13.5 36q0 32 -21 38.5t-47 -7.5l-13 28l24 11q37 13 37 44t-32 31q-22 0 -30 -19.5t-2 -39.5l-44 6q-12 5 -12 14q-1 31 23.5 51t67.5 20q42 0 66 -19.5t24 -41.5 q0 -29 -27 -43q46 -17 46 -66q0 -38 -30.5 -63.5t-75.5 -25.5z" glyph-name="three.numr" horiz-adv-x="284"/><glyph d="M221 453h-35v-27q0 -18 25 -18v-23h-109v23q24 0 24 18v27h-101v33l122 150q9 11 24 7t15 -16v-141h35v-33zM70 486h56v70z" glyph-name="four.numr" horiz-adv-x="261"/><glyph d="M139 389q-48 0 -75 20.5t-29 57.5q-1 11 7 19t22 8q12 0 19 -5t9 -10t3.5 -15.5t2.5 -13.5q10 -31 41 -31q17 0 29.5 15t12.5 40t-14.5 42t-35.5 17q-8 0 -16 -2t-12.5 -3.5t-12 -5.5t-9.5 -5h-32l10 125h133l7 5h24l-3 -42l-12 -10h-113l-3 -40q23 14 57 14 q35 0 65.5 -24t30.5 -64q0 -42 -29.5 -67t-76.5 -25z" glyph-name="five.numr" horiz-adv-x="280"/><glyph d="M137 382q-53 0 -77.5 34.5t-24.5 86.5q0 53 29 95.5t82 42.5q33 0 56 -16q8 -6 -1 -23q-7 -6 -12.5 -4.5t-18.5 6.5t-22 5q-41 0 -48 -71q20 11 47 11q36 0 61.5 -23t25.5 -59q0 -33 -26.5 -59t-70.5 -26zM137 415q37 0 37 54q0 22 -9.5 34.5t-24.5 12.5 q-17 0 -29.5 -6.5t-12.5 -11.5q-1 -41 10 -62t29 -21z" glyph-name="six.numr" horiz-adv-x="264"/><glyph d="M97 390q-12 0 -18 8.5t0 19.5l95 175h-98l-6 -17h-35l12 50q3 14 21 14h173l-125 -250h-19z" glyph-name="seven.numr" horiz-adv-x="266"/><glyph d="M137 387q-47 0 -74.5 22.5t-27.5 57.5q0 20 13 37.5t34 24.5q-33 17 -33 50q0 25 23.5 44t64.5 19q38 0 63 -18.5t25 -43.5q0 -32 -33 -49q22 -8 36 -26.5t14 -42.5q0 -30 -29.5 -52.5t-75.5 -22.5zM153 544q8 -1 15.5 11t7.5 24q0 33 -38 33q-16 0 -24 -10t-8 -22 q0 -26 26 -31zM137 418q42 0 42 45q0 31 -39 40l-28 6q-8 2 -16 -12t-8 -31q0 -20 12.5 -34t36.5 -14z" glyph-name="eight.numr" horiz-adv-x="277"/><glyph d="M127 642q53 0 77.5 -34.5t24.5 -86.5q0 -53 -29 -95.5t-82 -42.5q-33 0 -56 16q-8 6 1 23q7 6 12.5 4.5t18.5 -6.5t22 -5q41 0 48 71q-20 -11 -47 -11q-36 0 -61.5 23t-25.5 59q0 33 26.5 59t70.5 26zM127 609q-37 0 -37 -54q0 -22 9.5 -34.5t24.5 -12.5q17 0 29.5 6.5 t12.5 11.5q1 41 -10 62t-29 21z" glyph-name="nine.numr" horiz-adv-x="264"/></font>
</defs>
</svg>
